<?xml version="1.0" encoding="UTF-8" standalone="no"?>
<!DOCTYPE svg PUBLIC "-//W3C//DTD SVG 1.1//EN"
 "http://www.w3.org/Graphics/SVG/1.1/DTD/svg11.dtd">
<!-- Generated by graphviz version 8.0.5 (20230430.1635)
 -->
<!-- Title: handlers.c Pages: 1 -->
<svg width="358pt" height="248pt"
 viewBox="0.00 0.00 357.88 248.25" xmlns="http://www.w3.org/2000/svg" xmlns:xlink="http://www.w3.org/1999/xlink">
<g id="graph0" class="graph" transform="scale(1 1) rotate(0) translate(4 244.25)">
<title>handlers.c</title>
<!-- Node1 -->
<g id="node1" class="node">
<title>Node1</title>
<g id="a_node1"><a xlink:title=" ">
<polygon fill="#999999" stroke="#666666" points="203.12,-240.25 142.12,-240.25 142.12,-221 203.12,-221 203.12,-240.25"/>
<text text-anchor="middle" x="172.62" y="-226.75" font-family="Helvetica,sans-Serif" font-size="10.00">handlers.c</text>
</a>
</g>
</g>
<!-- Node2 -->
<g id="node2" class="node">
<title>Node2</title>
<g id="a_node2"><a xlink:title=" ">
<polygon fill="#e0e0e0" stroke="#999999" points="45.25,-185 0,-185 0,-165.75 45.25,-165.75 45.25,-185"/>
<text text-anchor="middle" x="22.62" y="-171.5" font-family="Helvetica,sans-Serif" font-size="10.00">stdio.h</text>
</a>
</g>
</g>
<!-- Node1&#45;&gt;Node2 -->
<g id="edge1" class="edge">
<title>Node1&#45;&gt;Node2</title>
<path fill="none" stroke="#63b8ff" d="M147.18,-220.59C122.09,-211.69 83.61,-198.03 56.06,-188.25"/>
<polygon fill="#63b8ff" stroke="#63b8ff" points="57.32,-184.62 46.73,-184.58 54.98,-191.22 57.32,-184.62"/>
</g>
<!-- Node3 -->
<g id="node3" class="node">
<title>Node3</title>
<g id="a_node3"><a xlink:title=" ">
<polygon fill="#e0e0e0" stroke="#999999" points="111.75,-185 63.5,-185 63.5,-165.75 111.75,-165.75 111.75,-185"/>
<text text-anchor="middle" x="87.62" y="-171.5" font-family="Helvetica,sans-Serif" font-size="10.00">string.h</text>
</a>
</g>
</g>
<!-- Node1&#45;&gt;Node3 -->
<g id="edge2" class="edge">
<title>Node1&#45;&gt;Node3</title>
<path fill="none" stroke="#63b8ff" d="M158.21,-220.59C145.38,-212.56 126.39,-200.66 111.33,-191.23"/>
<polygon fill="#63b8ff" stroke="#63b8ff" points="113.45,-187.8 103.11,-185.45 109.73,-193.73 113.45,-187.8"/>
</g>
<!-- Node4 -->
<g id="node4" class="node">
<title>Node4</title>
<g id="a_node4"><a xlink:href="symbol__table_8h.html" target="_top" xlink:title=" ">
<polygon fill="white" stroke="#666666" points="238.62,-129.75 156.62,-129.75 156.62,-110.5 238.62,-110.5 238.62,-129.75"/>
<text text-anchor="middle" x="197.62" y="-116.25" font-family="Helvetica,sans-Serif" font-size="10.00">symbol_table.h</text>
</a>
</g>
</g>
<!-- Node1&#45;&gt;Node4 -->
<g id="edge3" class="edge">
<title>Node1&#45;&gt;Node4</title>
<path fill="none" stroke="#63b8ff" d="M167.54,-220.72C161.07,-208.16 151.52,-184.67 158.62,-165.75 162.66,-155 170.59,-145.14 178.25,-137.44"/>
<polygon fill="#63b8ff" stroke="#63b8ff" points="180.33,-140.36 185.27,-130.99 175.56,-135.23 180.33,-140.36"/>
</g>
<!-- Node6 -->
<g id="node6" class="node">
<title>Node6</title>
<g id="a_node6"><a xlink:href="types_8h.html" target="_top" xlink:title=" ">
<polygon fill="white" stroke="#666666" points="295.75,-74.5 247.5,-74.5 247.5,-55.25 295.75,-55.25 295.75,-74.5"/>
<text text-anchor="middle" x="271.62" y="-61" font-family="Helvetica,sans-Serif" font-size="10.00">types.h</text>
</a>
</g>
</g>
<!-- Node1&#45;&gt;Node6 -->
<g id="edge13" class="edge">
<title>Node1&#45;&gt;Node6</title>
<path fill="none" stroke="#63b8ff" d="M201.89,-220.63C219.39,-213.7 240.51,-202.34 252.62,-185 273.45,-155.2 274.77,-111.04 273.46,-85.7"/>
<polygon fill="#63b8ff" stroke="#63b8ff" points="276.89,-85.63 272.68,-75.91 269.91,-86.14 276.89,-85.63"/>
</g>
<!-- Node9 -->
<g id="node9" class="node">
<title>Node9</title>
<g id="a_node9"><a xlink:href="syntax__tree_8h.html" target="_top" xlink:title=" ">
<polygon fill="white" stroke="#666666" points="243.25,-185 168,-185 168,-165.75 243.25,-165.75 243.25,-185"/>
<text text-anchor="middle" x="205.62" y="-171.5" font-family="Helvetica,sans-Serif" font-size="10.00">syntax_tree.h</text>
</a>
</g>
</g>
<!-- Node1&#45;&gt;Node9 -->
<g id="edge11" class="edge">
<title>Node1&#45;&gt;Node9</title>
<path fill="none" stroke="#63b8ff" d="M178.07,-220.83C182.49,-213.71 188.86,-203.43 194.36,-194.55"/>
<polygon fill="#63b8ff" stroke="#63b8ff" points="197.76,-196.7 200.06,-186.36 191.81,-193.02 197.76,-196.7"/>
</g>
<!-- Node10 -->
<g id="node10" class="node">
<title>Node10</title>
<g id="a_node10"><a xlink:title=" ">
<polygon fill="#e0e0e0" stroke="#999999" points="349.88,-185 299.38,-185 299.38,-165.75 349.88,-165.75 349.88,-185"/>
<text text-anchor="middle" x="324.62" y="-171.5" font-family="Helvetica,sans-Serif" font-size="10.00">parser.h</text>
</a>
</g>
</g>
<!-- Node1&#45;&gt;Node10 -->
<g id="edge14" class="edge">
<title>Node1&#45;&gt;Node10</title>
<path fill="none" stroke="#63b8ff" d="M198.41,-220.59C223.27,-211.88 261.1,-198.63 288.87,-188.9"/>
<polygon fill="#63b8ff" stroke="#63b8ff" points="289.69,-191.97 297.97,-185.36 287.37,-185.37 289.69,-191.97"/>
</g>
<!-- Node5 -->
<g id="node5" class="node">
<title>Node5</title>
<g id="a_node5"><a xlink:title=" ">
<polygon fill="#e0e0e0" stroke="#999999" points="185.38,-19.25 137.88,-19.25 137.88,0 185.38,0 185.38,-19.25"/>
<text text-anchor="middle" x="161.62" y="-5.75" font-family="Helvetica,sans-Serif" font-size="10.00">stdlib.h</text>
</a>
</g>
</g>
<!-- Node4&#45;&gt;Node5 -->
<g id="edge4" class="edge">
<title>Node4&#45;&gt;Node5</title>
<path fill="none" stroke="#63b8ff" d="M182.5,-110.32C170.81,-102.56 155.51,-90.08 148.62,-74.5 142.26,-60.11 146.65,-42.5 151.98,-29.42"/>
<polygon fill="#63b8ff" stroke="#63b8ff" points="155.47,-31.22 156.47,-20.67 149.11,-28.29 155.47,-31.22"/>
</g>
<!-- Node4&#45;&gt;Node6 -->
<g id="edge5" class="edge">
<title>Node4&#45;&gt;Node6</title>
<path fill="none" stroke="#63b8ff" d="M204.96,-110.09C214.45,-102.06 230.68,-90.16 244.86,-80.73"/>
<polygon fill="#63b8ff" stroke="#63b8ff" points="246.29,-83.32 252.78,-74.95 242.49,-77.45 246.29,-83.32"/>
</g>
<!-- Node8 -->
<g id="node8" class="node">
<title>Node8</title>
<g id="a_node8"><a xlink:href="hash__table_8h.html" target="_top" xlink:title=" ">
<polygon fill="white" stroke="#666666" points="229.38,-74.5 157.88,-74.5 157.88,-55.25 229.38,-55.25 229.38,-74.5"/>
<text text-anchor="middle" x="193.62" y="-61" font-family="Helvetica,sans-Serif" font-size="10.00">hash_table.h</text>
</a>
</g>
</g>
<!-- Node4&#45;&gt;Node8 -->
<g id="edge8" class="edge">
<title>Node4&#45;&gt;Node8</title>
<path fill="none" stroke="#63b8ff" d="M196.96,-110.33C196.46,-103.67 195.76,-94.24 195.12,-85.78"/>
<polygon fill="#63b8ff" stroke="#63b8ff" points="198.54,-85.57 194.3,-75.86 191.56,-86.09 198.54,-85.57"/>
</g>
<!-- Node6&#45;&gt;Node4 -->
<g id="edge7" class="edge">
<title>Node6&#45;&gt;Node4</title>
<path fill="none" stroke="#63b8ff" d="M264.45,-74.77C254.98,-82.81 238.63,-94.8 224.37,-104.29"/>
<polygon fill="#63b8ff" stroke="#63b8ff" points="222.89,-101.72 216.4,-110.09 226.69,-107.6 222.89,-101.72"/>
</g>
<!-- Node7 -->
<g id="node7" class="node">
<title>Node7</title>
<g id="a_node7"><a xlink:title=" ">
<polygon fill="#e0e0e0" stroke="#999999" points="273.75,-19.25 225.5,-19.25 225.5,0 273.75,0 273.75,-19.25"/>
<text text-anchor="middle" x="249.62" y="-5.75" font-family="Helvetica,sans-Serif" font-size="10.00">stdint.h</text>
</a>
</g>
</g>
<!-- Node6&#45;&gt;Node7 -->
<g id="edge6" class="edge">
<title>Node6&#45;&gt;Node7</title>
<path fill="none" stroke="#63b8ff" d="M267.99,-55.08C265.14,-48.19 261.07,-38.34 257.49,-29.66"/>
<polygon fill="#63b8ff" stroke="#63b8ff" points="260.39,-28.52 253.34,-20.61 253.92,-31.19 260.39,-28.52"/>
</g>
<!-- Node8&#45;&gt;Node5 -->
<g id="edge10" class="edge">
<title>Node8&#45;&gt;Node5</title>
<path fill="none" stroke="#63b8ff" d="M188.34,-55.08C184.06,-47.96 177.88,-37.68 172.55,-28.8"/>
<polygon fill="#63b8ff" stroke="#63b8ff" points="175.17,-27.38 167.02,-20.61 169.17,-30.98 175.17,-27.38"/>
</g>
<!-- Node8&#45;&gt;Node7 -->
<g id="edge9" class="edge">
<title>Node8&#45;&gt;Node7</title>
<path fill="none" stroke="#63b8ff" d="M203.12,-54.84C211.14,-47.22 222.81,-36.12 232.45,-26.95"/>
<polygon fill="#63b8ff" stroke="#63b8ff" points="234.43,-29.95 239.27,-20.52 229.61,-24.88 234.43,-29.95"/>
</g>
<!-- Node9&#45;&gt;Node4 -->
<g id="edge12" class="edge">
<title>Node9&#45;&gt;Node4</title>
<path fill="none" stroke="#63b8ff" d="M204.3,-165.58C203.29,-158.84 201.85,-149.27 200.57,-140.74"/>
<polygon fill="#63b8ff" stroke="#63b8ff" points="203.92,-140.48 198.97,-131.11 197,-141.52 203.92,-140.48"/>
</g>
</g>
</svg>
