<?xml version="1.0" encoding="UTF-8" standalone="no"?>
<!DOCTYPE svg PUBLIC "-//W3C//DTD SVG 1.1//EN"
 "http://www.w3.org/Graphics/SVG/1.1/DTD/svg11.dtd">
<!-- Generated by graphviz version 8.0.5 (20230430.1635)
 -->
<!-- Title: handlers.h Pages: 1 -->
<svg width="220pt" height="248pt"
 viewBox="0.00 0.00 220.00 248.25" xmlns="http://www.w3.org/2000/svg" xmlns:xlink="http://www.w3.org/1999/xlink">
<g id="graph0" class="graph" transform="scale(1 1) rotate(0) translate(4 244.25)">
<title>handlers.h</title>
<!-- Node1 -->
<g id="node1" class="node">
<title>Node1</title>
<g id="a_node1"><a xlink:title=" ">
<polygon fill="#999999" stroke="#666666" points="131.25,-240.25 70.25,-240.25 70.25,-221 131.25,-221 131.25,-240.25"/>
<text text-anchor="middle" x="100.75" y="-226.75" font-family="Helvetica,sans-Serif" font-size="10.00">handlers.h</text>
</a>
</g>
</g>
<!-- Node2 -->
<g id="node2" class="node">
<title>Node2</title>
<g id="a_node2"><a xlink:href="symbol__table_8h.html" target="_top" xlink:title=" ">
<polygon fill="white" stroke="#666666" points="100.75,-129.75 18.75,-129.75 18.75,-110.5 100.75,-110.5 100.75,-129.75"/>
<text text-anchor="middle" x="59.75" y="-116.25" font-family="Helvetica,sans-Serif" font-size="10.00">symbol_table.h</text>
</a>
</g>
</g>
<!-- Node1&#45;&gt;Node2 -->
<g id="edge1" class="edge">
<title>Node1&#45;&gt;Node2</title>
<path fill="none" stroke="#63b8ff" d="M70.11,-221.1C52.32,-214.4 31.38,-203.1 20.75,-185 11.07,-168.52 25.4,-149.88 39.34,-137.01"/>
<polygon fill="#63b8ff" stroke="#63b8ff" points="41.01,-139.33 46.31,-130.16 36.45,-134.02 41.01,-139.33"/>
</g>
<!-- Node4 -->
<g id="node4" class="node">
<title>Node4</title>
<g id="a_node4"><a xlink:href="types_8h.html" target="_top" xlink:title=" ">
<polygon fill="white" stroke="#666666" points="157.88,-74.5 109.62,-74.5 109.62,-55.25 157.88,-55.25 157.88,-74.5"/>
<text text-anchor="middle" x="133.75" y="-61" font-family="Helvetica,sans-Serif" font-size="10.00">types.h</text>
</a>
</g>
</g>
<!-- Node1&#45;&gt;Node4 -->
<g id="edge11" class="edge">
<title>Node1&#45;&gt;Node4</title>
<path fill="none" stroke="#63b8ff" d="M104.04,-220.5C107.17,-211.56 111.81,-197.49 114.75,-185 122.88,-150.45 128.57,-109.44 131.49,-85.67"/>
<polygon fill="#63b8ff" stroke="#63b8ff" points="135.06,-86.27 132.76,-75.93 128.11,-85.45 135.06,-86.27"/>
</g>
<!-- Node7 -->
<g id="node7" class="node">
<title>Node7</title>
<g id="a_node7"><a xlink:href="syntax__tree_8h.html" target="_top" xlink:title=" ">
<polygon fill="white" stroke="#666666" points="105.38,-185 30.12,-185 30.12,-165.75 105.38,-165.75 105.38,-185"/>
<text text-anchor="middle" x="67.75" y="-171.5" font-family="Helvetica,sans-Serif" font-size="10.00">syntax_tree.h</text>
</a>
</g>
</g>
<!-- Node1&#45;&gt;Node7 -->
<g id="edge9" class="edge">
<title>Node1&#45;&gt;Node7</title>
<path fill="none" stroke="#63b8ff" d="M95.3,-220.83C90.88,-213.71 84.51,-203.43 79.01,-194.55"/>
<polygon fill="#63b8ff" stroke="#63b8ff" points="81.56,-193.02 73.32,-186.36 75.61,-196.7 81.56,-193.02"/>
</g>
<!-- Node8 -->
<g id="node8" class="node">
<title>Node8</title>
<g id="a_node8"><a xlink:title=" ">
<polygon fill="#e0e0e0" stroke="#999999" points="212,-185 161.5,-185 161.5,-165.75 212,-165.75 212,-185"/>
<text text-anchor="middle" x="186.75" y="-171.5" font-family="Helvetica,sans-Serif" font-size="10.00">parser.h</text>
</a>
</g>
</g>
<!-- Node1&#45;&gt;Node8 -->
<g id="edge12" class="edge">
<title>Node1&#45;&gt;Node8</title>
<path fill="none" stroke="#63b8ff" d="M115.34,-220.59C128.31,-212.56 147.53,-200.66 162.76,-191.23"/>
<polygon fill="#63b8ff" stroke="#63b8ff" points="164.43,-193.69 171.09,-185.45 160.75,-187.74 164.43,-193.69"/>
</g>
<!-- Node3 -->
<g id="node3" class="node">
<title>Node3</title>
<g id="a_node3"><a xlink:title=" ">
<polygon fill="#e0e0e0" stroke="#999999" points="47.5,-19.25 0,-19.25 0,0 47.5,0 47.5,-19.25"/>
<text text-anchor="middle" x="23.75" y="-5.75" font-family="Helvetica,sans-Serif" font-size="10.00">stdlib.h</text>
</a>
</g>
</g>
<!-- Node2&#45;&gt;Node3 -->
<g id="edge2" class="edge">
<title>Node2&#45;&gt;Node3</title>
<path fill="none" stroke="#63b8ff" d="M44.62,-110.32C32.93,-102.56 17.63,-90.08 10.75,-74.5 4.39,-60.11 8.78,-42.5 14.11,-29.42"/>
<polygon fill="#63b8ff" stroke="#63b8ff" points="17.6,-31.22 18.6,-20.67 11.24,-28.29 17.6,-31.22"/>
</g>
<!-- Node2&#45;&gt;Node4 -->
<g id="edge3" class="edge">
<title>Node2&#45;&gt;Node4</title>
<path fill="none" stroke="#63b8ff" d="M67.09,-110.09C76.57,-102.06 92.81,-90.16 106.98,-80.73"/>
<polygon fill="#63b8ff" stroke="#63b8ff" points="108.41,-83.32 114.91,-74.95 104.61,-77.45 108.41,-83.32"/>
</g>
<!-- Node6 -->
<g id="node6" class="node">
<title>Node6</title>
<g id="a_node6"><a xlink:href="hash__table_8h.html" target="_top" xlink:title=" ">
<polygon fill="white" stroke="#666666" points="91.5,-74.5 20,-74.5 20,-55.25 91.5,-55.25 91.5,-74.5"/>
<text text-anchor="middle" x="55.75" y="-61" font-family="Helvetica,sans-Serif" font-size="10.00">hash_table.h</text>
</a>
</g>
</g>
<!-- Node2&#45;&gt;Node6 -->
<g id="edge6" class="edge">
<title>Node2&#45;&gt;Node6</title>
<path fill="none" stroke="#63b8ff" d="M59.09,-110.33C58.59,-103.67 57.88,-94.24 57.25,-85.78"/>
<polygon fill="#63b8ff" stroke="#63b8ff" points="60.66,-85.57 56.42,-75.86 53.68,-86.09 60.66,-85.57"/>
</g>
<!-- Node4&#45;&gt;Node2 -->
<g id="edge5" class="edge">
<title>Node4&#45;&gt;Node2</title>
<path fill="none" stroke="#63b8ff" d="M126.57,-74.77C117.1,-82.81 100.75,-94.8 86.5,-104.29"/>
<polygon fill="#63b8ff" stroke="#63b8ff" points="85.02,-101.72 78.52,-110.09 88.82,-107.6 85.02,-101.72"/>
</g>
<!-- Node5 -->
<g id="node5" class="node">
<title>Node5</title>
<g id="a_node5"><a xlink:title=" ">
<polygon fill="#e0e0e0" stroke="#999999" points="135.88,-19.25 87.62,-19.25 87.62,0 135.88,0 135.88,-19.25"/>
<text text-anchor="middle" x="111.75" y="-5.75" font-family="Helvetica,sans-Serif" font-size="10.00">stdint.h</text>
</a>
</g>
</g>
<!-- Node4&#45;&gt;Node5 -->
<g id="edge4" class="edge">
<title>Node4&#45;&gt;Node5</title>
<path fill="none" stroke="#63b8ff" d="M130.12,-55.08C127.27,-48.19 123.2,-38.34 119.61,-29.66"/>
<polygon fill="#63b8ff" stroke="#63b8ff" points="122.52,-28.52 115.46,-20.61 116.05,-31.19 122.52,-28.52"/>
</g>
<!-- Node6&#45;&gt;Node3 -->
<g id="edge8" class="edge">
<title>Node6&#45;&gt;Node3</title>
<path fill="none" stroke="#63b8ff" d="M50.47,-55.08C46.18,-47.96 40.01,-37.68 34.67,-28.8"/>
<polygon fill="#63b8ff" stroke="#63b8ff" points="37.3,-27.38 29.15,-20.61 31.3,-30.98 37.3,-27.38"/>
</g>
<!-- Node6&#45;&gt;Node5 -->
<g id="edge7" class="edge">
<title>Node6&#45;&gt;Node5</title>
<path fill="none" stroke="#63b8ff" d="M65.25,-54.84C73.26,-47.22 84.93,-36.12 94.58,-26.95"/>
<polygon fill="#63b8ff" stroke="#63b8ff" points="96.56,-29.95 101.39,-20.52 91.73,-24.88 96.56,-29.95"/>
</g>
<!-- Node7&#45;&gt;Node2 -->
<g id="edge10" class="edge">
<title>Node7&#45;&gt;Node2</title>
<path fill="none" stroke="#63b8ff" d="M66.43,-165.58C65.42,-158.84 63.98,-149.27 62.7,-140.74"/>
<polygon fill="#63b8ff" stroke="#63b8ff" points="66.05,-140.48 61.1,-131.11 59.12,-141.52 66.05,-140.48"/>
</g>
</g>
</svg>
