<?xml version="1.0" encoding="UTF-8" standalone="no"?>
<!DOCTYPE svg PUBLIC "-//W3C//DTD SVG 1.1//EN"
 "http://www.w3.org/Graphics/SVG/1.1/DTD/svg11.dtd">
<!-- Generated by graphviz version 8.0.5 (20230430.1635)
 -->
<!-- Title: hash_table.c Pages: 1 -->
<svg width="178pt" height="138pt"
 viewBox="0.00 0.00 178.36 137.75" xmlns="http://www.w3.org/2000/svg" xmlns:xlink="http://www.w3.org/1999/xlink">
<g id="graph0" class="graph" transform="scale(1 1) rotate(0) translate(4 133.75)">
<title>hash_table.c</title>
<!-- Node1 -->
<g id="node1" class="node">
<title>Node1</title>
<g id="a_node1"><a xlink:title=" ">
<polygon fill="#999999" stroke="#666666" points="130.88,-129.75 59.38,-129.75 59.38,-110.5 130.88,-110.5 130.88,-129.75"/>
<text text-anchor="middle" x="95.12" y="-116.25" font-family="Helvetica,sans-Serif" font-size="10.00">hash_table.c</text>
</a>
</g>
</g>
<!-- Node2 -->
<g id="node2" class="node">
<title>Node2</title>
<g id="a_node2"><a xlink:title=" ">
<polygon fill="#e0e0e0" stroke="#999999" points="48.25,-19.25 0,-19.25 0,0 48.25,0 48.25,-19.25"/>
<text text-anchor="middle" x="24.12" y="-5.75" font-family="Helvetica,sans-Serif" font-size="10.00">stdint.h</text>
</a>
</g>
</g>
<!-- Node1&#45;&gt;Node2 -->
<g id="edge1" class="edge">
<title>Node1&#45;&gt;Node2</title>
<path fill="none" stroke="#63b8ff" d="M60.43,-110.09C42.36,-103.42 21.84,-92.33 11.12,-74.5 2.84,-60.72 7.75,-42.57 13.77,-29.14"/>
<polygon fill="#63b8ff" stroke="#63b8ff" points="17.22,-31.06 18.59,-20.56 10.97,-27.91 17.22,-31.06"/>
</g>
<!-- Node3 -->
<g id="node3" class="node">
<title>Node3</title>
<g id="a_node3"><a xlink:title=" ">
<polygon fill="#e0e0e0" stroke="#999999" points="161.88,-19.25 114.38,-19.25 114.38,0 161.88,0 161.88,-19.25"/>
<text text-anchor="middle" x="138.12" y="-5.75" font-family="Helvetica,sans-Serif" font-size="10.00">stdlib.h</text>
</a>
</g>
</g>
<!-- Node1&#45;&gt;Node3 -->
<g id="edge2" class="edge">
<title>Node1&#45;&gt;Node3</title>
<path fill="none" stroke="#63b8ff" d="M122.06,-110.11C138.26,-103.14 157.54,-91.72 167.12,-74.5 175.69,-59.11 165.32,-40.72 154.68,-27.64"/>
<polygon fill="#63b8ff" stroke="#63b8ff" points="157.75,-25.69 148.5,-20.53 152.51,-30.33 157.75,-25.69"/>
</g>
<!-- Node4 -->
<g id="node4" class="node">
<title>Node4</title>
<g id="a_node4"><a xlink:title=" ">
<polygon fill="#e0e0e0" stroke="#999999" points="158.25,-74.5 110,-74.5 110,-55.25 158.25,-55.25 158.25,-74.5"/>
<text text-anchor="middle" x="134.12" y="-61" font-family="Helvetica,sans-Serif" font-size="10.00">string.h</text>
</a>
</g>
</g>
<!-- Node1&#45;&gt;Node4 -->
<g id="edge3" class="edge">
<title>Node1&#45;&gt;Node4</title>
<path fill="none" stroke="#63b8ff" d="M101.57,-110.33C106.9,-103.05 114.64,-92.48 121.23,-83.48"/>
<polygon fill="#63b8ff" stroke="#63b8ff" points="124.46,-85.99 127.55,-75.86 118.81,-81.86 124.46,-85.99"/>
</g>
<!-- Node5 -->
<g id="node5" class="node">
<title>Node5</title>
<g id="a_node5"><a xlink:href="hash__table_8h.html" target="_top" xlink:title=" ">
<polygon fill="white" stroke="#666666" points="91.88,-74.5 20.38,-74.5 20.38,-55.25 91.88,-55.25 91.88,-74.5"/>
<text text-anchor="middle" x="56.12" y="-61" font-family="Helvetica,sans-Serif" font-size="10.00">hash_table.h</text>
</a>
</g>
</g>
<!-- Node1&#45;&gt;Node5 -->
<g id="edge4" class="edge">
<title>Node1&#45;&gt;Node5</title>
<path fill="none" stroke="#63b8ff" d="M88.68,-110.33C83.35,-103.05 75.61,-92.48 69.02,-83.48"/>
<polygon fill="#63b8ff" stroke="#63b8ff" points="71.44,-81.86 62.7,-75.86 65.79,-85.99 71.44,-81.86"/>
</g>
<!-- Node5&#45;&gt;Node2 -->
<g id="edge5" class="edge">
<title>Node5&#45;&gt;Node2</title>
<path fill="none" stroke="#63b8ff" d="M50.84,-55.08C46.56,-47.96 40.38,-37.68 35.05,-28.8"/>
<polygon fill="#63b8ff" stroke="#63b8ff" points="37.67,-27.38 29.52,-20.61 31.67,-30.98 37.67,-27.38"/>
</g>
<!-- Node5&#45;&gt;Node3 -->
<g id="edge6" class="edge">
<title>Node5&#45;&gt;Node3</title>
<path fill="none" stroke="#63b8ff" d="M70.04,-54.84C82.4,-46.81 100.73,-34.91 115.25,-25.48"/>
<polygon fill="#63b8ff" stroke="#63b8ff" points="116.67,-28.08 123.15,-19.7 112.85,-22.21 116.67,-28.08"/>
</g>
</g>
</svg>
