<?xml version="1.0" encoding="UTF-8" standalone="no"?>
<!DOCTYPE svg PUBLIC "-//W3C//DTD SVG 1.1//EN"
 "http://www.w3.org/Graphics/SVG/1.1/DTD/svg11.dtd">
<!-- Generated by graphviz version 8.0.5 (20230430.1635)
 -->
<!-- Title: hash_table.h Pages: 1 -->
<svg width="531pt" height="248pt"
 viewBox="0.00 0.00 531.18 248.25" xmlns="http://www.w3.org/2000/svg" xmlns:xlink="http://www.w3.org/1999/xlink">
<g id="graph0" class="graph" transform="scale(1 1) rotate(0) translate(4 244.25)">
<title>hash_table.h</title>
<!-- Node1 -->
<g id="node1" class="node">
<title>Node1</title>
<g id="a_node1"><a xlink:title=" ">
<polygon fill="#999999" stroke="#666666" points="192.38,-240.25 120.88,-240.25 120.88,-221 192.38,-221 192.38,-240.25"/>
<text text-anchor="middle" x="156.62" y="-226.75" font-family="Helvetica,sans-Serif" font-size="10.00">hash_table.h</text>
</a>
</g>
</g>
<!-- Node2 -->
<g id="node2" class="node">
<title>Node2</title>
<g id="a_node2"><a xlink:href="hash__table_8c.html" target="_top" xlink:title=" ">
<polygon fill="white" stroke="#666666" points="128.38,-185 56.88,-185 56.88,-165.75 128.38,-165.75 128.38,-185"/>
<text text-anchor="middle" x="92.62" y="-171.5" font-family="Helvetica,sans-Serif" font-size="10.00">hash_table.c</text>
</a>
</g>
</g>
<!-- Node1&#45;&gt;Node2 -->
<g id="edge1" class="edge">
<title>Node1&#45;&gt;Node2</title>
<path fill="none" stroke="#63b8ff" d="M137.47,-213.69C126.3,-204.39 112.61,-193.01 103.32,-185.27"/>
<polygon fill="#63b8ff" stroke="#63b8ff" points="134.84,-216.89 144.77,-220.59 139.32,-211.51 134.84,-216.89"/>
</g>
<!-- Node3 -->
<g id="node3" class="node">
<title>Node3</title>
<g id="a_node3"><a xlink:href="symbol__table_8c.html" target="_top" xlink:title=" ">
<polygon fill="white" stroke="#666666" points="131.62,-129.75 49.62,-129.75 49.62,-110.5 131.62,-110.5 131.62,-129.75"/>
<text text-anchor="middle" x="90.62" y="-116.25" font-family="Helvetica,sans-Serif" font-size="10.00">symbol_table.c</text>
</a>
</g>
</g>
<!-- Node1&#45;&gt;Node3 -->
<g id="edge2" class="edge">
<title>Node1&#45;&gt;Node3</title>
<path fill="none" stroke="#63b8ff" d="M153.55,-210.04C150.83,-196.81 145.96,-179.34 137.62,-165.75 128.68,-151.17 113.79,-138.17 103.17,-130.02"/>
<polygon fill="#63b8ff" stroke="#63b8ff" points="150.26,-210.55 155.47,-219.77 157.15,-209.31 150.26,-210.55"/>
</g>
<!-- Node4 -->
<g id="node4" class="node">
<title>Node4</title>
<g id="a_node4"><a xlink:href="symbol__table_8h.html" target="_top" xlink:title=" ">
<polygon fill="white" stroke="#666666" points="332.62,-185 250.62,-185 250.62,-165.75 332.62,-165.75 332.62,-185"/>
<text text-anchor="middle" x="291.62" y="-171.5" font-family="Helvetica,sans-Serif" font-size="10.00">symbol_table.h</text>
</a>
</g>
</g>
<!-- Node1&#45;&gt;Node4 -->
<g id="edge3" class="edge">
<title>Node1&#45;&gt;Node4</title>
<path fill="none" stroke="#63b8ff" d="M189.46,-216.67C213.97,-207 246.85,-194.04 268.61,-185.45"/>
<polygon fill="#63b8ff" stroke="#63b8ff" points="188.54,-213.67 180.53,-220.59 191.11,-220.18 188.54,-213.67"/>
</g>
<!-- Node4&#45;&gt;Node3 -->
<g id="edge6" class="edge">
<title>Node4&#45;&gt;Node3</title>
<path fill="none" stroke="#63b8ff" d="M247.07,-162.57C210.2,-152.8 158.59,-139.13 124.89,-130.2"/>
<polygon fill="#63b8ff" stroke="#63b8ff" points="245.97,-166.16 256.53,-165.34 247.76,-159.4 245.97,-166.16"/>
</g>
<!-- Node5 -->
<g id="node5" class="node">
<title>Node5</title>
<g id="a_node5"><a xlink:href="handlers_8c.html" target="_top" xlink:title=" ">
<polygon fill="white" stroke="#666666" points="319.12,-74.5 258.12,-74.5 258.12,-55.25 319.12,-55.25 319.12,-74.5"/>
<text text-anchor="middle" x="288.62" y="-61" font-family="Helvetica,sans-Serif" font-size="10.00">handlers.c</text>
</a>
</g>
</g>
<!-- Node4&#45;&gt;Node5 -->
<g id="edge4" class="edge">
<title>Node4&#45;&gt;Node5</title>
<path fill="none" stroke="#63b8ff" d="M291.08,-154.68C290.43,-131.01 289.36,-92.3 288.87,-74.88"/>
<polygon fill="#63b8ff" stroke="#63b8ff" points="287.6,-154.6 291.38,-164.5 294.6,-154.4 287.6,-154.6"/>
</g>
<!-- Node6 -->
<g id="node6" class="node">
<title>Node6</title>
<g id="a_node6"><a xlink:href="handlers_8h.html" target="_top" xlink:title=" ">
<polygon fill="white" stroke="#666666" points="398.12,-74.5 337.12,-74.5 337.12,-55.25 398.12,-55.25 398.12,-74.5"/>
<text text-anchor="middle" x="367.62" y="-61" font-family="Helvetica,sans-Serif" font-size="10.00">handlers.h</text>
</a>
</g>
</g>
<!-- Node4&#45;&gt;Node6 -->
<g id="edge5" class="edge">
<title>Node4&#45;&gt;Node6</title>
<path fill="none" stroke="#63b8ff" d="M304.08,-156.6C320.5,-133.16 348.78,-92.78 361.32,-74.88"/>
<polygon fill="#63b8ff" stroke="#63b8ff" points="300.71,-154.3 297.84,-164.5 306.45,-158.31 300.71,-154.3"/>
</g>
<!-- Node7 -->
<g id="node7" class="node">
<title>Node7</title>
<g id="a_node7"><a xlink:href="syntax__tree_8c.html" target="_top" xlink:title=" ">
<polygon fill="white" stroke="#666666" points="75.25,-74.5 0,-74.5 0,-55.25 75.25,-55.25 75.25,-74.5"/>
<text text-anchor="middle" x="37.62" y="-61" font-family="Helvetica,sans-Serif" font-size="10.00">syntax_tree.c</text>
</a>
</g>
</g>
<!-- Node4&#45;&gt;Node7 -->
<g id="edge7" class="edge">
<title>Node4&#45;&gt;Node7</title>
<path fill="none" stroke="#63b8ff" d="M256.56,-161.49C234.07,-152.99 204.37,-141.32 178.62,-129.75 161.36,-121.99 157.76,-118.54 140.62,-110.5 112.93,-97.5 80.46,-83.66 59.5,-74.9"/>
<polygon fill="#63b8ff" stroke="#63b8ff" points="255.07,-165.04 265.66,-165.28 257.53,-158.49 255.07,-165.04"/>
</g>
<!-- Node8 -->
<g id="node8" class="node">
<title>Node8</title>
<g id="a_node8"><a xlink:href="syntax__tree_8h.html" target="_top" xlink:title=" ">
<polygon fill="white" stroke="#666666" points="263.25,-129.75 188,-129.75 188,-110.5 263.25,-110.5 263.25,-129.75"/>
<text text-anchor="middle" x="225.62" y="-116.25" font-family="Helvetica,sans-Serif" font-size="10.00">syntax_tree.h</text>
</a>
</g>
</g>
<!-- Node4&#45;&gt;Node8 -->
<g id="edge8" class="edge">
<title>Node4&#45;&gt;Node8</title>
<path fill="none" stroke="#63b8ff" d="M271.88,-158.44C260.35,-149.14 246.24,-137.76 236.66,-130.02"/>
<polygon fill="#63b8ff" stroke="#63b8ff" points="269.45,-161.79 279.43,-165.34 273.84,-156.34 269.45,-161.79"/>
</g>
<!-- Node10 -->
<g id="node10" class="node">
<title>Node10</title>
<g id="a_node10"><a xlink:href="typecheck_8c.html" target="_top" xlink:title=" ">
<polygon fill="white" stroke="#666666" points="282.25,-19.25 213,-19.25 213,0 282.25,0 282.25,-19.25"/>
<text text-anchor="middle" x="247.62" y="-5.75" font-family="Helvetica,sans-Serif" font-size="10.00">typecheck.c</text>
</a>
</g>
</g>
<!-- Node4&#45;&gt;Node10 -->
<g id="edge17" class="edge">
<title>Node4&#45;&gt;Node10</title>
<path fill="none" stroke="#63b8ff" d="M343.49,-166.4C423.79,-151.93 563.81,-117 511.62,-55.25 482.71,-21.03 347.67,-13.04 282.71,-11.19"/>
<polygon fill="#63b8ff" stroke="#63b8ff" points="343.3,-163.05 334.06,-168.22 344.51,-169.95 343.3,-163.05"/>
</g>
<!-- Node12 -->
<g id="node12" class="node">
<title>Node12</title>
<g id="a_node12"><a xlink:href="types_8h.html" target="_top" xlink:title=" ">
<polygon fill="white" stroke="#666666" points="405.75,-129.75 357.5,-129.75 357.5,-110.5 405.75,-110.5 405.75,-129.75"/>
<text text-anchor="middle" x="381.62" y="-116.25" font-family="Helvetica,sans-Serif" font-size="10.00">types.h</text>
</a>
</g>
</g>
<!-- Node4&#45;&gt;Node12 -->
<g id="edge18" class="edge">
<title>Node4&#45;&gt;Node12</title>
<path fill="none" stroke="#63b8ff" d="M310.52,-159.57C325.37,-150.15 345.79,-138.25 361.06,-130.2"/>
<polygon fill="#63b8ff" stroke="#63b8ff" points="309.14,-156.95 302.68,-165.34 312.96,-162.81 309.14,-156.95"/>
</g>
<!-- Node8&#45;&gt;Node5 -->
<g id="edge9" class="edge">
<title>Node8&#45;&gt;Node5</title>
<path fill="none" stroke="#63b8ff" d="M244.48,-103.19C255.48,-93.89 268.95,-82.51 278.1,-74.77"/>
<polygon fill="#63b8ff" stroke="#63b8ff" points="242.69,-100.96 237.31,-110.09 247.21,-106.31 242.69,-100.96"/>
</g>
<!-- Node8&#45;&gt;Node6 -->
<g id="edge10" class="edge">
<title>Node8&#45;&gt;Node6</title>
<path fill="none" stroke="#63b8ff" d="M259.82,-106.3C285.64,-96.62 320.43,-83.57 343.42,-74.95"/>
<polygon fill="#63b8ff" stroke="#63b8ff" points="258.85,-103.3 250.71,-110.09 261.31,-109.86 258.85,-103.3"/>
</g>
<!-- Node8&#45;&gt;Node7 -->
<g id="edge12" class="edge">
<title>Node8&#45;&gt;Node7</title>
<path fill="none" stroke="#63b8ff" d="M183.51,-107.2C149.05,-97.44 101.06,-83.84 69.67,-74.95"/>
<polygon fill="#63b8ff" stroke="#63b8ff" points="182.16,-110.73 192.73,-110.09 184.07,-104 182.16,-110.73"/>
</g>
<!-- Node9 -->
<g id="node9" class="node">
<title>Node9</title>
<g id="a_node9"><a xlink:href="main_8c.html" target="_top" xlink:title=" ">
<polygon fill="white" stroke="#666666" points="170.25,-19.25 125,-19.25 125,0 170.25,0 170.25,-19.25"/>
<text text-anchor="middle" x="147.62" y="-5.75" font-family="Helvetica,sans-Serif" font-size="10.00">main.c</text>
</a>
</g>
</g>
<!-- Node8&#45;&gt;Node9 -->
<g id="edge11" class="edge">
<title>Node8&#45;&gt;Node9</title>
<path fill="none" stroke="#63b8ff" d="M177.02,-110.33C156.62,-103.97 134.83,-93.09 122.62,-74.5 110.86,-56.58 128,-32.28 139.21,-19.43"/>
<polygon fill="#63b8ff" stroke="#63b8ff" points="175.94,-113.94 186.51,-113.25 177.82,-107.19 175.94,-113.94"/>
</g>
<!-- Node8&#45;&gt;Node10 -->
<g id="edge13" class="edge">
<title>Node8&#45;&gt;Node10</title>
<path fill="none" stroke="#63b8ff" d="M229.55,-99.76C234.35,-76.12 242.25,-37.13 245.8,-19.63"/>
<polygon fill="#63b8ff" stroke="#63b8ff" points="225.98,-98.75 227.43,-109.25 232.84,-100.14 225.98,-98.75"/>
</g>
<!-- Node11 -->
<g id="node11" class="node">
<title>Node11</title>
<g id="a_node11"><a xlink:href="typecheck_8h.html" target="_top" xlink:title=" ">
<polygon fill="white" stroke="#666666" points="201.25,-74.5 132,-74.5 132,-55.25 201.25,-55.25 201.25,-74.5"/>
<text text-anchor="middle" x="166.62" y="-61" font-family="Helvetica,sans-Serif" font-size="10.00">typecheck.h</text>
</a>
</g>
</g>
<!-- Node8&#45;&gt;Node11 -->
<g id="edge14" class="edge">
<title>Node8&#45;&gt;Node11</title>
<path fill="none" stroke="#63b8ff" d="M207.66,-102.91C197.42,-93.67 184.97,-82.43 176.49,-74.77"/>
<polygon fill="#63b8ff" stroke="#63b8ff" points="204.85,-104.99 214.62,-109.09 209.54,-99.79 204.85,-104.99"/>
</g>
<!-- Node11&#45;&gt;Node9 -->
<g id="edge15" class="edge">
<title>Node11&#45;&gt;Node9</title>
<path fill="none" stroke="#63b8ff" d="M159.82,-44.79C156.75,-36.21 153.28,-26.48 150.83,-19.61"/>
<polygon fill="#63b8ff" stroke="#63b8ff" points="156.83,-45.84 163.49,-54.08 163.42,-43.49 156.83,-45.84"/>
</g>
<!-- Node11&#45;&gt;Node10 -->
<g id="edge16" class="edge">
<title>Node11&#45;&gt;Node10</title>
<path fill="none" stroke="#63b8ff" d="M189.55,-48.8C203.82,-39.42 221.69,-27.67 233.82,-19.7"/>
<polygon fill="#63b8ff" stroke="#63b8ff" points="187.8,-46.42 181.37,-54.84 191.64,-52.27 187.8,-46.42"/>
</g>
<!-- Node12&#45;&gt;Node4 -->
<g id="edge21" class="edge">
<title>Node12&#45;&gt;Node4</title>
<path fill="none" stroke="#63b8ff" d="M362.65,-135.98C347.77,-145.41 327.36,-157.31 312.11,-165.34"/>
<polygon fill="#63b8ff" stroke="#63b8ff" points="364.04,-138.59 370.51,-130.2 360.22,-132.73 364.04,-138.59"/>
</g>
<!-- Node12&#45;&gt;Node5 -->
<g id="edge19" class="edge">
<title>Node12&#45;&gt;Node5</title>
<path fill="none" stroke="#63b8ff" d="M356.71,-104.86C340.11,-95.36 318.8,-83.15 304.48,-74.95"/>
<polygon fill="#63b8ff" stroke="#63b8ff" points="354.43,-108.16 364.85,-110.09 357.91,-102.09 354.43,-108.16"/>
</g>
<!-- Node12&#45;&gt;Node6 -->
<g id="edge20" class="edge">
<title>Node12&#45;&gt;Node6</title>
<path fill="none" stroke="#63b8ff" d="M376.53,-99.75C374.29,-91.24 371.77,-81.65 369.99,-74.86"/>
<polygon fill="#63b8ff" stroke="#63b8ff" points="373.39,-100.55 379.31,-109.33 380.16,-98.77 373.39,-100.55"/>
</g>
<!-- Node12&#45;&gt;Node10 -->
<g id="edge22" class="edge">
<title>Node12&#45;&gt;Node10</title>
<path fill="none" stroke="#63b8ff" d="M397.4,-102.05C408.02,-88.42 418.32,-69.33 407.62,-55.25 392.54,-35.38 324.77,-21.99 282.42,-15.39"/>
<polygon fill="#63b8ff" stroke="#63b8ff" points="394.36,-99.22 390.58,-109.12 399.71,-103.74 394.36,-99.22"/>
</g>
<!-- Node13 -->
<g id="node13" class="node">
<title>Node13</title>
<g id="a_node13"><a xlink:href="types_8c.html" target="_top" xlink:title=" ">
<polygon fill="white" stroke="#666666" points="502.75,-74.5 454.5,-74.5 454.5,-55.25 502.75,-55.25 502.75,-74.5"/>
<text text-anchor="middle" x="478.62" y="-61" font-family="Helvetica,sans-Serif" font-size="10.00">types.c</text>
</a>
</g>
</g>
<!-- Node12&#45;&gt;Node13 -->
<g id="edge23" class="edge">
<title>Node12&#45;&gt;Node13</title>
<path fill="none" stroke="#63b8ff" d="M407.61,-104.86C424.92,-95.36 447.15,-83.15 462.09,-74.95"/>
<polygon fill="#63b8ff" stroke="#63b8ff" points="406.16,-102.21 399.08,-110.09 409.53,-108.35 406.16,-102.21"/>
</g>
</g>
</svg>
