<?xml version="1.0" encoding="UTF-8" standalone="no"?>
<!DOCTYPE svg PUBLIC "-//W3C//DTD SVG 1.1//EN"
 "http://www.w3.org/Graphics/SVG/1.1/DTD/svg11.dtd">
<!-- Generated by graphviz version 8.0.5 (20230430.1635)
 -->
<!-- Title: main.c Pages: 1 -->
<svg width="410pt" height="304pt"
 viewBox="0.00 0.00 410.25 303.50" xmlns="http://www.w3.org/2000/svg" xmlns:xlink="http://www.w3.org/1999/xlink">
<g id="graph0" class="graph" transform="scale(1 1) rotate(0) translate(4 299.5)">
<title>main.c</title>
<!-- Node1 -->
<g id="node1" class="node">
<title>Node1</title>
<g id="a_node1"><a xlink:title=" ">
<polygon fill="#999999" stroke="#666666" points="211.25,-295.5 166,-295.5 166,-276.25 211.25,-276.25 211.25,-295.5"/>
<text text-anchor="middle" x="188.62" y="-282" font-family="Helvetica,sans-Serif" font-size="10.00">main.c</text>
</a>
</g>
</g>
<!-- Node2 -->
<g id="node2" class="node">
<title>Node2</title>
<g id="a_node2"><a xlink:title=" ">
<polygon fill="#e0e0e0" stroke="#999999" points="45.25,-240.25 0,-240.25 0,-221 45.25,-221 45.25,-240.25"/>
<text text-anchor="middle" x="22.62" y="-226.75" font-family="Helvetica,sans-Serif" font-size="10.00">stdio.h</text>
</a>
</g>
</g>
<!-- Node1&#45;&gt;Node2 -->
<g id="edge1" class="edge">
<title>Node1&#45;&gt;Node2</title>
<path fill="none" stroke="#63b8ff" d="M165.54,-277.47C137.05,-268.33 88.38,-252.72 55.87,-242.29"/>
<polygon fill="#63b8ff" stroke="#63b8ff" points="57.1,-238.69 46.51,-238.97 54.96,-245.35 57.1,-238.69"/>
</g>
<!-- Node3 -->
<g id="node3" class="node">
<title>Node3</title>
<g id="a_node3"><a xlink:title=" ">
<polygon fill="#e0e0e0" stroke="#999999" points="161.38,-19.25 113.88,-19.25 113.88,0 161.38,0 161.38,-19.25"/>
<text text-anchor="middle" x="137.62" y="-5.75" font-family="Helvetica,sans-Serif" font-size="10.00">stdlib.h</text>
</a>
</g>
</g>
<!-- Node1&#45;&gt;Node3 -->
<g id="edge2" class="edge">
<title>Node1&#45;&gt;Node3</title>
<path fill="none" stroke="#63b8ff" d="M165.54,-279.92C143.73,-274.07 111.61,-262.23 92.62,-240.25 73.27,-217.83 73.62,-205.99 73.62,-176.38 73.62,-176.38 73.62,-176.38 73.62,-119.12 73.62,-82.55 100.94,-47.45 119.88,-27.52"/>
<polygon fill="#63b8ff" stroke="#63b8ff" points="122.07,-30.27 126.62,-20.71 117.1,-25.34 122.07,-30.27"/>
</g>
<!-- Node4 -->
<g id="node4" class="node">
<title>Node4</title>
<g id="a_node4"><a xlink:href="arch_8h.html" target="_top" xlink:title=" ">
<polygon fill="white" stroke="#666666" points="145.12,-240.25 102.12,-240.25 102.12,-221 145.12,-221 145.12,-240.25"/>
<text text-anchor="middle" x="123.62" y="-226.75" font-family="Helvetica,sans-Serif" font-size="10.00">arch.h</text>
</a>
</g>
</g>
<!-- Node1&#45;&gt;Node4 -->
<g id="edge3" class="edge">
<title>Node1&#45;&gt;Node4</title>
<path fill="none" stroke="#63b8ff" d="M177.6,-275.84C168.11,-268.07 154.2,-256.67 142.88,-247.4"/>
<polygon fill="#63b8ff" stroke="#63b8ff" points="145.44,-244.15 135.49,-240.52 141.01,-249.57 145.44,-244.15"/>
</g>
<!-- Node5 -->
<g id="node5" class="node">
<title>Node5</title>
<g id="a_node5"><a xlink:title=" ">
<polygon fill="#e0e0e0" stroke="#999999" points="213.88,-240.25 163.38,-240.25 163.38,-221 213.88,-221 213.88,-240.25"/>
<text text-anchor="middle" x="188.62" y="-226.75" font-family="Helvetica,sans-Serif" font-size="10.00">parser.h</text>
</a>
</g>
</g>
<!-- Node1&#45;&gt;Node5 -->
<g id="edge4" class="edge">
<title>Node1&#45;&gt;Node5</title>
<path fill="none" stroke="#63b8ff" d="M188.62,-276.08C188.62,-269.42 188.62,-259.99 188.62,-251.53"/>
<polygon fill="#63b8ff" stroke="#63b8ff" points="192.13,-251.61 188.62,-241.61 185.13,-251.61 192.13,-251.61"/>
</g>
<!-- Node6 -->
<g id="node6" class="node">
<title>Node6</title>
<g id="a_node6"><a xlink:title=" ">
<polygon fill="#e0e0e0" stroke="#999999" points="276.88,-240.25 232.38,-240.25 232.38,-221 276.88,-221 276.88,-240.25"/>
<text text-anchor="middle" x="254.62" y="-226.75" font-family="Helvetica,sans-Serif" font-size="10.00">lexer.h</text>
</a>
</g>
</g>
<!-- Node1&#45;&gt;Node6 -->
<g id="edge5" class="edge">
<title>Node1&#45;&gt;Node6</title>
<path fill="none" stroke="#63b8ff" d="M199.82,-275.84C209.46,-268.07 223.58,-256.67 235.07,-247.4"/>
<polygon fill="#63b8ff" stroke="#63b8ff" points="237.01,-249.53 242.59,-240.52 232.61,-244.08 237.01,-249.53"/>
</g>
<!-- Node7 -->
<g id="node7" class="node">
<title>Node7</title>
<g id="a_node7"><a xlink:href="syntax__tree_8h.html" target="_top" xlink:title=" ">
<polygon fill="white" stroke="#666666" points="342.25,-185 267,-185 267,-165.75 342.25,-165.75 342.25,-185"/>
<text text-anchor="middle" x="304.62" y="-171.5" font-family="Helvetica,sans-Serif" font-size="10.00">syntax_tree.h</text>
</a>
</g>
</g>
<!-- Node1&#45;&gt;Node7 -->
<g id="edge6" class="edge">
<title>Node1&#45;&gt;Node7</title>
<path fill="none" stroke="#63b8ff" d="M211.53,-280.1C233.57,-274.34 266.32,-262.52 285.62,-240.25 296.29,-227.95 300.98,-209.86 303.03,-196.07"/>
<polygon fill="#63b8ff" stroke="#63b8ff" points="306.6,-196.64 304.24,-186.31 299.64,-195.86 306.6,-196.64"/>
</g>
<!-- Node12 -->
<g id="node12" class="node">
<title>Node12</title>
<g id="a_node12"><a xlink:href="typecheck_8h.html" target="_top" xlink:title=" ">
<polygon fill="white" stroke="#666666" points="402.25,-240.25 333,-240.25 333,-221 402.25,-221 402.25,-240.25"/>
<text text-anchor="middle" x="367.62" y="-226.75" font-family="Helvetica,sans-Serif" font-size="10.00">typecheck.h</text>
</a>
</g>
</g>
<!-- Node1&#45;&gt;Node12 -->
<g id="edge15" class="edge">
<title>Node1&#45;&gt;Node12</title>
<path fill="none" stroke="#63b8ff" d="M211.66,-278.02C240.79,-269.36 291.45,-254.28 327.12,-243.68"/>
<polygon fill="#63b8ff" stroke="#63b8ff" points="327.62,-246.88 336.2,-240.68 325.62,-240.17 327.62,-246.88"/>
</g>
<!-- Node8 -->
<g id="node8" class="node">
<title>Node8</title>
<g id="a_node8"><a xlink:href="symbol__table_8h.html" target="_top" xlink:title=" ">
<polygon fill="white" stroke="#666666" points="320.62,-129.75 238.62,-129.75 238.62,-110.5 320.62,-110.5 320.62,-129.75"/>
<text text-anchor="middle" x="279.62" y="-116.25" font-family="Helvetica,sans-Serif" font-size="10.00">symbol_table.h</text>
</a>
</g>
</g>
<!-- Node7&#45;&gt;Node8 -->
<g id="edge7" class="edge">
<title>Node7&#45;&gt;Node8</title>
<path fill="none" stroke="#63b8ff" d="M300.5,-165.58C297.22,-158.61 292.53,-148.62 288.43,-139.87"/>
<polygon fill="#63b8ff" stroke="#63b8ff" points="291.26,-138.67 283.84,-131.11 284.92,-141.65 291.26,-138.67"/>
</g>
<!-- Node8&#45;&gt;Node3 -->
<g id="edge8" class="edge">
<title>Node8&#45;&gt;Node3</title>
<path fill="none" stroke="#63b8ff" d="M238.15,-113.78C211.45,-108.25 177.9,-97.06 156.62,-74.5 145.45,-62.65 140.82,-44.52 138.92,-30.6"/>
<polygon fill="#63b8ff" stroke="#63b8ff" points="142.31,-30.32 137.85,-20.71 135.34,-31 142.31,-30.32"/>
</g>
<!-- Node9 -->
<g id="node9" class="node">
<title>Node9</title>
<g id="a_node9"><a xlink:href="types_8h.html" target="_top" xlink:title=" ">
<polygon fill="white" stroke="#666666" points="303.75,-74.5 255.5,-74.5 255.5,-55.25 303.75,-55.25 303.75,-74.5"/>
<text text-anchor="middle" x="279.62" y="-61" font-family="Helvetica,sans-Serif" font-size="10.00">types.h</text>
</a>
</g>
</g>
<!-- Node8&#45;&gt;Node9 -->
<g id="edge9" class="edge">
<title>Node8&#45;&gt;Node9</title>
<path fill="none" stroke="#63b8ff" d="M274.46,-110.33C273.02,-103.59 272.56,-94.02 273.09,-85.49"/>
<polygon fill="#63b8ff" stroke="#63b8ff" points="276.65,-86.22 274.42,-75.86 269.7,-85.35 276.65,-86.22"/>
</g>
<!-- Node11 -->
<g id="node11" class="node">
<title>Node11</title>
<g id="a_node11"><a xlink:href="hash__table_8h.html" target="_top" xlink:title=" ">
<polygon fill="white" stroke="#666666" points="237.38,-74.5 165.88,-74.5 165.88,-55.25 237.38,-55.25 237.38,-74.5"/>
<text text-anchor="middle" x="201.62" y="-61" font-family="Helvetica,sans-Serif" font-size="10.00">hash_table.h</text>
</a>
</g>
</g>
<!-- Node8&#45;&gt;Node11 -->
<g id="edge12" class="edge">
<title>Node8&#45;&gt;Node11</title>
<path fill="none" stroke="#63b8ff" d="M266.39,-110.09C254.74,-102.14 237.53,-90.39 223.78,-81"/>
<polygon fill="#63b8ff" stroke="#63b8ff" points="226.15,-77.7 215.92,-74.95 222.21,-83.48 226.15,-77.7"/>
</g>
<!-- Node9&#45;&gt;Node8 -->
<g id="edge11" class="edge">
<title>Node9&#45;&gt;Node8</title>
<path fill="none" stroke="#63b8ff" d="M284.83,-74.86C286.24,-81.58 286.68,-91.02 286.17,-99.46"/>
<polygon fill="#63b8ff" stroke="#63b8ff" points="282.57,-98.97 284.79,-109.33 289.52,-99.85 282.57,-98.97"/>
</g>
<!-- Node10 -->
<g id="node10" class="node">
<title>Node10</title>
<g id="a_node10"><a xlink:title=" ">
<polygon fill="#e0e0e0" stroke="#999999" points="265.75,-19.25 217.5,-19.25 217.5,0 265.75,0 265.75,-19.25"/>
<text text-anchor="middle" x="241.62" y="-5.75" font-family="Helvetica,sans-Serif" font-size="10.00">stdint.h</text>
</a>
</g>
</g>
<!-- Node9&#45;&gt;Node10 -->
<g id="edge10" class="edge">
<title>Node9&#45;&gt;Node10</title>
<path fill="none" stroke="#63b8ff" d="M273.35,-55.08C268.21,-47.88 260.77,-37.46 254.39,-28.51"/>
<polygon fill="#63b8ff" stroke="#63b8ff" points="256.69,-26.72 248.04,-20.61 251,-30.78 256.69,-26.72"/>
</g>
<!-- Node11&#45;&gt;Node3 -->
<g id="edge14" class="edge">
<title>Node11&#45;&gt;Node3</title>
<path fill="none" stroke="#63b8ff" d="M190.77,-54.84C181.43,-47.07 167.73,-35.67 156.58,-26.4"/>
<polygon fill="#63b8ff" stroke="#63b8ff" points="159.25,-23.23 149.32,-19.52 154.77,-28.61 159.25,-23.23"/>
</g>
<!-- Node11&#45;&gt;Node10 -->
<g id="edge13" class="edge">
<title>Node11&#45;&gt;Node10</title>
<path fill="none" stroke="#63b8ff" d="M208.23,-55.08C213.7,-47.8 221.64,-37.23 228.4,-28.23"/>
<polygon fill="#63b8ff" stroke="#63b8ff" points="231.67,-30.71 234.88,-20.61 226.07,-26.5 231.67,-30.71"/>
</g>
<!-- Node12&#45;&gt;Node7 -->
<g id="edge16" class="edge">
<title>Node12&#45;&gt;Node7</title>
<path fill="none" stroke="#63b8ff" d="M356.94,-220.59C347.74,-212.82 334.26,-201.42 323.29,-192.15"/>
<polygon fill="#63b8ff" stroke="#63b8ff" points="326.05,-189.06 316.15,-185.27 321.53,-194.4 326.05,-189.06"/>
</g>
</g>
</svg>
