<?xml version="1.0" encoding="UTF-8" standalone="no"?>
<!DOCTYPE svg PUBLIC "-//W3C//DTD SVG 1.1//EN"
 "http://www.w3.org/Graphics/SVG/1.1/DTD/svg11.dtd">
<!-- Generated by graphviz version 8.0.5 (20230430.1635)
 -->
<!-- Title: StatementBlock Pages: 1 -->
<svg width="452pt" height="828pt"
 viewBox="0.00 0.00 451.75 828.25" xmlns="http://www.w3.org/2000/svg" xmlns:xlink="http://www.w3.org/1999/xlink">
<g id="graph0" class="graph" transform="scale(1 1) rotate(0) translate(4 824.25)">
<title>StatementBlock</title>
<!-- Node1 -->
<g id="node1" class="node">
<title>Node1</title>
<g id="a_node1"><a xlink:title=" ">
<polygon fill="#999999" stroke="#666666" points="0,-448.75 0,-506.5 85.75,-506.5 85.75,-448.75 0,-448.75"/>
<text text-anchor="middle" x="42.88" y="-493" font-family="Helvetica,sans-Serif" font-size="10.00">StatementBlock</text>
<polyline fill="none" stroke="#666666" points="0,-487.25 85.75,-487.25"/>
<text text-anchor="middle" x="42.88" y="-473.75" font-family="Helvetica,sans-Serif" font-size="10.00"> </text>
<polyline fill="none" stroke="#666666" points="0,-468 85.75,-468"/>
<text text-anchor="middle" x="42.88" y="-454.5" font-family="Helvetica,sans-Serif" font-size="10.00"> </text>
</a>
</g>
</g>
<!-- Node1&#45;&gt;Node1 -->
<g id="edge17" class="edge">
<title>Node1&#45;&gt;Node1</title>
<path fill="none" stroke="#404040" d="M85.54,-487.41C95.98,-486.68 103.75,-483.42 103.75,-477.62 103.75,-474.64 101.68,-472.32 98.25,-470.68"/>
<polygon fill="none" stroke="#404040" points="98.14,-470.65 91.41,-473.25 86.42,-468.04 93.15,-465.44 98.14,-470.65"/>
<text text-anchor="middle" x="117.62" y="-473.75" font-family="Helvetica,sans-Serif" font-size="10.00"> +next</text>
</g>
<!-- Node2 -->
<g id="node2" class="node">
<title>Node2</title>
<g id="a_node2"><a xlink:href="struct_node.html" target="_top" xlink:title=" ">
<polygon fill="white" stroke="#666666" points="122.38,-106.5 122.38,-400.5 213.38,-400.5 213.38,-106.5 122.38,-106.5"/>
<text text-anchor="middle" x="167.88" y="-387" font-family="Helvetica,sans-Serif" font-size="10.00">Node</text>
<polyline fill="none" stroke="#666666" points="122.38,-381.25 213.38,-381.25"/>
<text text-anchor="start" x="130.38" y="-367.75" font-family="Helvetica,sans-Serif" font-size="10.00">+ tag</text>
<text text-anchor="start" x="130.38" y="-356.5" font-family="Helvetica,sans-Serif" font-size="10.00">+ name</text>
<text text-anchor="start" x="130.38" y="-345.25" font-family="Helvetica,sans-Serif" font-size="10.00">+ var</text>
<text text-anchor="start" x="130.38" y="-334" font-family="Helvetica,sans-Serif" font-size="10.00">+ var_dec</text>
<text text-anchor="start" x="130.38" y="-322.75" font-family="Helvetica,sans-Serif" font-size="10.00">+ type_def</text>
<text text-anchor="start" x="130.38" y="-311.5" font-family="Helvetica,sans-Serif" font-size="10.00">+ op</text>
<text text-anchor="start" x="130.38" y="-300.25" font-family="Helvetica,sans-Serif" font-size="10.00">+ binary_expr</text>
<text text-anchor="start" x="130.38" y="-289" font-family="Helvetica,sans-Serif" font-size="10.00">+ unary_expr</text>
<text text-anchor="start" x="130.38" y="-277.75" font-family="Helvetica,sans-Serif" font-size="10.00">+ literal</text>
<text text-anchor="start" x="130.38" y="-266.5" font-family="Helvetica,sans-Serif" font-size="10.00">+ while_loop</text>
<text text-anchor="start" x="130.38" y="-255.25" font-family="Helvetica,sans-Serif" font-size="10.00">+ do_loop</text>
<text text-anchor="start" x="130.38" y="-244" font-family="Helvetica,sans-Serif" font-size="10.00">+ for_loop</text>
<text text-anchor="start" x="130.38" y="-232.75" font-family="Helvetica,sans-Serif" font-size="10.00">+ tag</text>
<text text-anchor="start" x="130.38" y="-221.5" font-family="Helvetica,sans-Serif" font-size="10.00">+ control</text>
<text text-anchor="start" x="130.38" y="-210.25" font-family="Helvetica,sans-Serif" font-size="10.00">+ if_statement</text>
<text text-anchor="start" x="130.38" y="-199" font-family="Helvetica,sans-Serif" font-size="10.00">+ mangled_name</text>
<text text-anchor="start" x="130.38" y="-187.75" font-family="Helvetica,sans-Serif" font-size="10.00">+ line_num</text>
<text text-anchor="start" x="130.38" y="-176.5" font-family="Helvetica,sans-Serif" font-size="10.00">+ fun_call</text>
<text text-anchor="start" x="130.38" y="-165.25" font-family="Helvetica,sans-Serif" font-size="10.00">+ fun_def</text>
<text text-anchor="start" x="130.38" y="-154" font-family="Helvetica,sans-Serif" font-size="10.00">+ module</text>
<text text-anchor="start" x="130.38" y="-142.75" font-family="Helvetica,sans-Serif" font-size="10.00">+ import</text>
<text text-anchor="start" x="130.38" y="-131.5" font-family="Helvetica,sans-Serif" font-size="10.00">+ op</text>
<polyline fill="none" stroke="#666666" points="122.38,-125.75 213.38,-125.75"/>
<text text-anchor="middle" x="167.88" y="-112.25" font-family="Helvetica,sans-Serif" font-size="10.00"> </text>
</a>
</g>
</g>
<!-- Node1&#45;&gt;Node2 -->
<g id="edge8" class="edge">
<title>Node1&#45;&gt;Node2</title>
<path fill="none" stroke="#404040" d="M38.45,-448.77C37.91,-439.12 38.44,-428.38 41.62,-419 56.09,-376.4 86.52,-336.19 113.88,-306.18"/>
<polygon fill="none" stroke="#404040" points="113.83,-306.24 115,-299.13 122.02,-297.47 120.84,-304.59 113.83,-306.24"/>
<text text-anchor="middle" x="58" y="-420.75" font-family="Helvetica,sans-Serif" font-size="10.00"> +block</text>
</g>
<!-- Node2&#45;&gt;Node1 -->
<g id="edge1" class="edge">
<title>Node2&#45;&gt;Node1</title>
<path fill="none" stroke="#404040" d="M122.47,-350.57C109,-376.91 93.62,-405.13 77.88,-430.25 76.14,-433.02 74.29,-435.83 72.37,-438.62"/>
<polygon fill="none" stroke="#404040" points="72.29,-438.73 72.05,-445.94 65.31,-448.49 65.54,-441.28 72.29,-438.73"/>
<text text-anchor="middle" x="110.12" y="-420.75" font-family="Helvetica,sans-Serif" font-size="10.00"> +statement</text>
</g>
<!-- Node2&#45;&gt;Node2 -->
<g id="edge7" class="edge">
<title>Node2&#45;&gt;Node2</title>
<path fill="none" stroke="#404040" d="M213.25,-284.88C223.7,-282.18 231.38,-271.72 231.38,-253.5 231.38,-242.4 228.53,-234.18 223.93,-228.84"/>
<polygon fill="none" stroke="#404040" points="224.17,-228.99 216.96,-229.18 214.02,-222.6 221.22,-222.41 224.17,-228.99"/>
<text text-anchor="middle" x="247.5" y="-305.88" font-family="Helvetica,sans-Serif" font-size="10.00"> +block</text>
<text text-anchor="middle" x="247.5" y="-294.62" font-family="Helvetica,sans-Serif" font-size="10.00">+child</text>
<text text-anchor="middle" x="247.5" y="-283.38" font-family="Helvetica,sans-Serif" font-size="10.00">+expr</text>
<text text-anchor="middle" x="247.5" y="-272.12" font-family="Helvetica,sans-Serif" font-size="10.00">+inc</text>
<text text-anchor="middle" x="247.5" y="-260.88" font-family="Helvetica,sans-Serif" font-size="10.00">+init</text>
<text text-anchor="middle" x="247.5" y="-249.62" font-family="Helvetica,sans-Serif" font-size="10.00">+left</text>
<text text-anchor="middle" x="247.5" y="-238.38" font-family="Helvetica,sans-Serif" font-size="10.00">+loop</text>
<text text-anchor="middle" x="247.5" y="-227.12" font-family="Helvetica,sans-Serif" font-size="10.00">+next</text>
<text text-anchor="middle" x="247.5" y="-215.88" font-family="Helvetica,sans-Serif" font-size="10.00">+right</text>
<text text-anchor="middle" x="247.5" y="-204.62" font-family="Helvetica,sans-Serif" font-size="10.00">+test</text>
<text text-anchor="middle" x="247.5" y="-193.38" font-family="Helvetica,sans-Serif" font-size="10.00">...</text>
</g>
<!-- Node5 -->
<g id="node5" class="node">
<title>Node5</title>
<g id="a_node5"><a xlink:href="struct_call_args.html" target="_top" xlink:title=" ">
<polygon fill="white" stroke="#666666" points="141.12,-0.5 141.12,-58.25 194.62,-58.25 194.62,-0.5 141.12,-0.5"/>
<text text-anchor="middle" x="167.88" y="-44.75" font-family="Helvetica,sans-Serif" font-size="10.00">CallArgs</text>
<polyline fill="none" stroke="#666666" points="141.12,-39 194.62,-39"/>
<text text-anchor="middle" x="167.88" y="-25.5" font-family="Helvetica,sans-Serif" font-size="10.00"> </text>
<polyline fill="none" stroke="#666666" points="141.12,-19.75 194.62,-19.75"/>
<text text-anchor="middle" x="167.88" y="-6.25" font-family="Helvetica,sans-Serif" font-size="10.00"> </text>
</a>
</g>
</g>
<!-- Node2&#45;&gt;Node5 -->
<g id="edge10" class="edge">
<title>Node2&#45;&gt;Node5</title>
<path fill="none" stroke="#404040" d="M135.24,-106.66C135.9,-96.48 137.45,-86.43 140.12,-76.75 140.75,-74.47 141.53,-72.2 142.41,-69.94"/>
<polygon fill="none" stroke="#404040" points="142.45,-69.87 141.41,-62.73 147.6,-59.03 148.63,-66.17 142.45,-69.87"/>
<text text-anchor="middle" x="154.75" y="-78.5" font-family="Helvetica,sans-Serif" font-size="10.00"> +expr</text>
</g>
<!-- Node3 -->
<g id="node3" class="node">
<title>Node3</title>
<g id="a_node3"><a xlink:href="struct_type.html" target="_top" xlink:title=" ">
<polygon fill="white" stroke="#666666" points="177.5,-554.75 177.5,-680 224.25,-680 224.25,-554.75 177.5,-554.75"/>
<text text-anchor="middle" x="200.88" y="-666.5" font-family="Helvetica,sans-Serif" font-size="10.00">Type</text>
<polyline fill="none" stroke="#666666" points="177.5,-660.75 224.25,-660.75"/>
<text text-anchor="start" x="185.5" y="-647.25" font-family="Helvetica,sans-Serif" font-size="10.00">+ tag</text>
<text text-anchor="start" x="185.5" y="-636" font-family="Helvetica,sans-Serif" font-size="10.00">+ base</text>
<text text-anchor="start" x="185.5" y="-624.75" font-family="Helvetica,sans-Serif" font-size="10.00">+ fun</text>
<text text-anchor="start" x="185.5" y="-613.5" font-family="Helvetica,sans-Serif" font-size="10.00">+ size</text>
<text text-anchor="start" x="185.5" y="-602.25" font-family="Helvetica,sans-Serif" font-size="10.00">+ array</text>
<text text-anchor="start" x="185.5" y="-591" font-family="Helvetica,sans-Serif" font-size="10.00">+ ptr</text>
<text text-anchor="start" x="185.5" y="-579.75" font-family="Helvetica,sans-Serif" font-size="10.00">+ op</text>
<polyline fill="none" stroke="#666666" points="177.5,-574 224.25,-574"/>
<text text-anchor="middle" x="200.88" y="-560.5" font-family="Helvetica,sans-Serif" font-size="10.00"> </text>
</a>
</g>
</g>
<!-- Node3&#45;&gt;Node2 -->
<g id="edge2" class="edge">
<title>Node3&#45;&gt;Node2</title>
<path fill="none" stroke="#404040" d="M184.8,-554.85C181.35,-539.33 178.13,-522.64 176.12,-507 172.25,-476.79 169.87,-444.4 168.46,-413.22"/>
<polygon fill="none" stroke="#404040" points="168.46,-413.31 164.22,-407.48 167.97,-401.32 172.21,-407.15 168.46,-413.31"/>
<text text-anchor="middle" x="190.75" y="-473.75" font-family="Helvetica,sans-Serif" font-size="10.00"> +type</text>
</g>
<!-- Node3&#45;&gt;Node3 -->
<g id="edge3" class="edge">
<title>Node3&#45;&gt;Node3</title>
<path fill="none" stroke="#404040" d="M223.85,-633.45C233.76,-634.76 242.25,-629.4 242.25,-617.38 242.25,-611.17 239.99,-606.74 236.45,-604.09"/>
<polygon fill="none" stroke="#404040" points="236.45,-604.09 229.73,-606.7 224.73,-601.5 231.45,-598.89 236.45,-604.09"/>
<text text-anchor="middle" x="269.62" y="-624.75" font-family="Helvetica,sans-Serif" font-size="10.00"> +elem_type</text>
<text text-anchor="middle" x="269.62" y="-613.5" font-family="Helvetica,sans-Serif" font-size="10.00">+return_type</text>
<text text-anchor="middle" x="269.62" y="-602.25" font-family="Helvetica,sans-Serif" font-size="10.00">+val_type</text>
</g>
<!-- Node4 -->
<g id="node4" class="node">
<title>Node4</title>
<g id="a_node4"><a xlink:href="struct_args.html" target="_top" xlink:title=" ">
<polygon fill="white" stroke="#666666" points="213.38,-448.75 213.38,-506.5 262.38,-506.5 262.38,-448.75 213.38,-448.75"/>
<text text-anchor="middle" x="237.88" y="-493" font-family="Helvetica,sans-Serif" font-size="10.00">Args</text>
<polyline fill="none" stroke="#666666" points="213.38,-487.25 262.38,-487.25"/>
<text text-anchor="start" x="221.38" y="-473.75" font-family="Helvetica,sans-Serif" font-size="10.00">+ name</text>
<polyline fill="none" stroke="#666666" points="213.38,-468 262.38,-468"/>
<text text-anchor="middle" x="237.88" y="-454.5" font-family="Helvetica,sans-Serif" font-size="10.00"> </text>
</a>
</g>
</g>
<!-- Node3&#45;&gt;Node4 -->
<g id="edge5" class="edge">
<title>Node3&#45;&gt;Node4</title>
<path fill="none" stroke="#404040" d="M192.63,-554.87C193.06,-544.67 194.66,-534.38 198.12,-525 199.99,-519.97 202.67,-515.11 205.77,-510.56"/>
<polygon fill="none" stroke="#404040" points="205.65,-510.71 206.19,-503.52 213.03,-501.25 212.49,-508.45 205.65,-510.71"/>
<text text-anchor="middle" x="212.75" y="-526.75" font-family="Helvetica,sans-Serif" font-size="10.00"> +type</text>
</g>
<!-- Node4&#45;&gt;Node2 -->
<g id="edge12" class="edge">
<title>Node4&#45;&gt;Node2</title>
<path fill="none" stroke="#404040" d="M229.15,-448.94C225.8,-438.31 221.69,-425.28 217.21,-411.04"/>
<polygon fill="none" stroke="#404040" points="217.24,-411.13 211.62,-406.61 213.63,-399.69 219.25,-404.21 217.24,-411.13"/>
<text text-anchor="middle" x="236.75" y="-420.75" font-family="Helvetica,sans-Serif" font-size="10.00"> +args</text>
</g>
<!-- Node4&#45;&gt;Node3 -->
<g id="edge4" class="edge">
<title>Node4&#45;&gt;Node3</title>
<path fill="none" stroke="#404040" d="M235.21,-506.4C233.98,-515.94 232.25,-526.64 229.88,-536.25 229.28,-538.67 228.63,-541.13 227.94,-543.59"/>
<polygon fill="none" stroke="#404040" points="227.94,-543.62 230.05,-550.51 224.5,-555.11 222.39,-548.22 227.94,-543.62"/>
<text text-anchor="middle" x="246.75" y="-526.75" font-family="Helvetica,sans-Serif" font-size="10.00"> +args</text>
</g>
<!-- Node4&#45;&gt;Node4 -->
<g id="edge6" class="edge">
<title>Node4&#45;&gt;Node4</title>
<path fill="none" stroke="#404040" d="M262.33,-487.5C272.14,-488.06 280.38,-484.77 280.38,-477.62 280.38,-474.05 278.32,-471.44 275.03,-469.8"/>
<polygon fill="none" stroke="#404040" points="275.07,-469.8 268.51,-472.8 263.22,-467.89 269.78,-464.9 275.07,-469.8"/>
<text text-anchor="middle" x="294.25" y="-473.75" font-family="Helvetica,sans-Serif" font-size="10.00"> +next</text>
</g>
<!-- Node5&#45;&gt;Node2 -->
<g id="edge9" class="edge">
<title>Node5&#45;&gt;Node2</title>
<path fill="none" stroke="#404040" d="M170.63,-57.81C171.15,-64.03 171.61,-70.61 171.88,-76.75 172.12,-82.39 172.3,-88.13 172.44,-93.94"/>
<polygon fill="none" stroke="#404040" points="172.44,-93.81 176.55,-99.74 172.65,-105.81 168.55,-99.88 172.44,-93.81"/>
<text text-anchor="middle" x="186.75" y="-78.5" font-family="Helvetica,sans-Serif" font-size="10.00"> +args</text>
</g>
<!-- Node5&#45;&gt;Node5 -->
<g id="edge11" class="edge">
<title>Node5&#45;&gt;Node5</title>
<path fill="none" stroke="#404040" d="M194.52,-39.29C204.45,-39.62 212.62,-36.31 212.62,-29.38 212.62,-25.91 210.58,-23.35 207.3,-21.69"/>
<polygon fill="none" stroke="#404040" points="207.23,-21.68 200.63,-24.59 195.41,-19.61 202.01,-16.71 207.23,-21.68"/>
<text text-anchor="middle" x="226.5" y="-25.5" font-family="Helvetica,sans-Serif" font-size="10.00"> +next</text>
</g>
<!-- Node6 -->
<g id="node6" class="node">
<title>Node6</title>
<g id="a_node6"><a xlink:href="struct_symbol_table.html" target="_top" xlink:title=" ">
<polygon fill="white" stroke="#666666" points="325.75,-448.75 325.75,-506.5 398,-506.5 398,-448.75 325.75,-448.75"/>
<text text-anchor="middle" x="361.88" y="-493" font-family="Helvetica,sans-Serif" font-size="10.00">SymbolTable</text>
<polyline fill="none" stroke="#666666" points="325.75,-487.25 398,-487.25"/>
<text text-anchor="middle" x="361.88" y="-473.75" font-family="Helvetica,sans-Serif" font-size="10.00"> </text>
<polyline fill="none" stroke="#666666" points="325.75,-468 398,-468"/>
<text text-anchor="middle" x="361.88" y="-454.5" font-family="Helvetica,sans-Serif" font-size="10.00"> </text>
</a>
</g>
</g>
<!-- Node6&#45;&gt;Node2 -->
<g id="edge13" class="edge">
<title>Node6&#45;&gt;Node2</title>
<path fill="none" stroke="#404040" d="M337.7,-448.94C308.8,-415.86 259.59,-359.51 221.56,-315.96"/>
<polygon fill="none" stroke="#404040" points="221.62,-316.03 214.66,-314.15 213.72,-307 220.68,-308.88 221.62,-316.03"/>
<text text-anchor="middle" x="335.88" y="-420.75" font-family="Helvetica,sans-Serif" font-size="10.00"> +table</text>
</g>
<!-- Node6&#45;&gt;Node6 -->
<g id="edge16" class="edge">
<title>Node6&#45;&gt;Node6</title>
<path fill="none" stroke="#404040" d="M397.79,-487.52C408.07,-487.14 416,-483.84 416,-477.62 416,-474.42 413.89,-471.99 410.44,-470.34"/>
<polygon fill="none" stroke="#404040" points="410.42,-470.34 403.74,-473.04 398.67,-467.91 405.36,-465.21 410.42,-470.34"/>
<text text-anchor="middle" x="429.88" y="-473.75" font-family="Helvetica,sans-Serif" font-size="10.00"> +next</text>
</g>
<!-- Node7 -->
<g id="node7" class="node">
<title>Node7</title>
<g id="a_node7"><a xlink:href="struct_hash_table.html" target="_top" xlink:title=" ">
<polygon fill="white" stroke="#666666" points="330.62,-582.88 330.62,-651.88 393.12,-651.88 393.12,-582.88 330.62,-582.88"/>
<text text-anchor="middle" x="361.88" y="-638.38" font-family="Helvetica,sans-Serif" font-size="10.00">HashTable</text>
<polyline fill="none" stroke="#666666" points="330.62,-632.62 393.12,-632.62"/>
<text text-anchor="start" x="338.62" y="-619.12" font-family="Helvetica,sans-Serif" font-size="10.00">+ capacity</text>
<text text-anchor="start" x="338.62" y="-607.88" font-family="Helvetica,sans-Serif" font-size="10.00">+ length</text>
<polyline fill="none" stroke="#666666" points="330.62,-602.12 393.12,-602.12"/>
<text text-anchor="middle" x="361.88" y="-588.62" font-family="Helvetica,sans-Serif" font-size="10.00"> </text>
</a>
</g>
</g>
<!-- Node7&#45;&gt;Node6 -->
<g id="edge14" class="edge">
<title>Node7&#45;&gt;Node6</title>
<path fill="none" stroke="#404040" d="M361.88,-583.03C361.88,-563.79 361.88,-539.45 361.88,-519.12"/>
<polygon fill="none" stroke="#404040" points="361.88,-519.01 357.88,-513.01 361.88,-507.01 365.88,-513.01 361.88,-519.01"/>
<text text-anchor="middle" x="390" y="-526.75" font-family="Helvetica,sans-Serif" font-size="10.00"> +hash_table</text>
</g>
<!-- Node8 -->
<g id="node8" class="node">
<title>Node8</title>
<g id="a_node8"><a xlink:href="struct_table_entry.html" target="_top" xlink:title=" ">
<polygon fill="white" stroke="#666666" points="330.62,-728.25 330.62,-819.75 393.12,-819.75 393.12,-728.25 330.62,-728.25"/>
<text text-anchor="middle" x="361.88" y="-806.25" font-family="Helvetica,sans-Serif" font-size="10.00">TableEntry</text>
<polyline fill="none" stroke="#666666" points="330.62,-800.5 393.12,-800.5"/>
<text text-anchor="start" x="338.62" y="-787" font-family="Helvetica,sans-Serif" font-size="10.00">+ key</text>
<text text-anchor="start" x="338.62" y="-775.75" font-family="Helvetica,sans-Serif" font-size="10.00">+ value</text>
<text text-anchor="start" x="338.62" y="-764.5" font-family="Helvetica,sans-Serif" font-size="10.00">+ hash</text>
<text text-anchor="start" x="338.62" y="-753.25" font-family="Helvetica,sans-Serif" font-size="10.00">+ psl</text>
<polyline fill="none" stroke="#666666" points="330.62,-747.5 393.12,-747.5"/>
<text text-anchor="middle" x="361.88" y="-734" font-family="Helvetica,sans-Serif" font-size="10.00"> </text>
</a>
</g>
</g>
<!-- Node8&#45;&gt;Node7 -->
<g id="edge15" class="edge">
<title>Node8&#45;&gt;Node7</title>
<path fill="none" stroke="#404040" d="M361.88,-728.28C361.88,-708.32 361.88,-684.83 361.88,-664.69"/>
<polygon fill="none" stroke="#404040" points="361.88,-664.6 357.88,-658.6 361.88,-652.6 365.88,-658.6 361.88,-664.6"/>
<text text-anchor="middle" x="381" y="-700.25" font-family="Helvetica,sans-Serif" font-size="10.00"> +entries</text>
</g>
</g>
</svg>
