<?xml version="1.0" encoding="UTF-8" standalone="no"?>
<!DOCTYPE svg PUBLIC "-//W3C//DTD SVG 1.1//EN"
 "http://www.w3.org/Graphics/SVG/1.1/DTD/svg11.dtd">
<!-- Generated by graphviz version 8.0.5 (20230430.1635)
 -->
<!-- Title: CallArgs Pages: 1 -->
<svg width="420pt" height="828pt"
 viewBox="0.00 0.00 419.62 828.25" xmlns="http://www.w3.org/2000/svg" xmlns:xlink="http://www.w3.org/1999/xlink">
<g id="graph0" class="graph" transform="scale(1 1) rotate(0) translate(4 824.25)">
<title>CallArgs</title>
<!-- Node1 -->
<g id="node1" class="node">
<title>Node1</title>
<g id="a_node1"><a xlink:title=" ">
<polygon fill="#999999" stroke="#666666" points="0,-448.75 0,-506.5 53.5,-506.5 53.5,-448.75 0,-448.75"/>
<text text-anchor="middle" x="26.75" y="-493" font-family="Helvetica,sans-Serif" font-size="10.00">CallArgs</text>
<polyline fill="none" stroke="#666666" points="0,-487.25 53.5,-487.25"/>
<text text-anchor="middle" x="26.75" y="-473.75" font-family="Helvetica,sans-Serif" font-size="10.00"> </text>
<polyline fill="none" stroke="#666666" points="0,-468 53.5,-468"/>
<text text-anchor="middle" x="26.75" y="-454.5" font-family="Helvetica,sans-Serif" font-size="10.00"> </text>
</a>
</g>
</g>
<!-- Node1&#45;&gt;Node1 -->
<g id="edge17" class="edge">
<title>Node1&#45;&gt;Node1</title>
<path fill="none" stroke="#404040" d="M53.4,-487.54C63.33,-487.87 71.5,-484.56 71.5,-477.62 71.5,-474.16 69.46,-471.6 66.17,-469.94"/>
<polygon fill="none" stroke="#404040" points="66.1,-469.93 59.5,-472.84 54.28,-467.86 60.88,-464.96 66.1,-469.93"/>
<text text-anchor="middle" x="85.38" y="-473.75" font-family="Helvetica,sans-Serif" font-size="10.00"> +next</text>
</g>
<!-- Node2 -->
<g id="node2" class="node">
<title>Node2</title>
<g id="a_node2"><a xlink:href="struct_node.html" target="_top" xlink:title=" ">
<polygon fill="white" stroke="#666666" points="90.25,-106.5 90.25,-400.5 181.25,-400.5 181.25,-106.5 90.25,-106.5"/>
<text text-anchor="middle" x="135.75" y="-387" font-family="Helvetica,sans-Serif" font-size="10.00">Node</text>
<polyline fill="none" stroke="#666666" points="90.25,-381.25 181.25,-381.25"/>
<text text-anchor="start" x="98.25" y="-367.75" font-family="Helvetica,sans-Serif" font-size="10.00">+ tag</text>
<text text-anchor="start" x="98.25" y="-356.5" font-family="Helvetica,sans-Serif" font-size="10.00">+ name</text>
<text text-anchor="start" x="98.25" y="-345.25" font-family="Helvetica,sans-Serif" font-size="10.00">+ var</text>
<text text-anchor="start" x="98.25" y="-334" font-family="Helvetica,sans-Serif" font-size="10.00">+ var_dec</text>
<text text-anchor="start" x="98.25" y="-322.75" font-family="Helvetica,sans-Serif" font-size="10.00">+ type_def</text>
<text text-anchor="start" x="98.25" y="-311.5" font-family="Helvetica,sans-Serif" font-size="10.00">+ op</text>
<text text-anchor="start" x="98.25" y="-300.25" font-family="Helvetica,sans-Serif" font-size="10.00">+ binary_expr</text>
<text text-anchor="start" x="98.25" y="-289" font-family="Helvetica,sans-Serif" font-size="10.00">+ unary_expr</text>
<text text-anchor="start" x="98.25" y="-277.75" font-family="Helvetica,sans-Serif" font-size="10.00">+ literal</text>
<text text-anchor="start" x="98.25" y="-266.5" font-family="Helvetica,sans-Serif" font-size="10.00">+ while_loop</text>
<text text-anchor="start" x="98.25" y="-255.25" font-family="Helvetica,sans-Serif" font-size="10.00">+ do_loop</text>
<text text-anchor="start" x="98.25" y="-244" font-family="Helvetica,sans-Serif" font-size="10.00">+ for_loop</text>
<text text-anchor="start" x="98.25" y="-232.75" font-family="Helvetica,sans-Serif" font-size="10.00">+ tag</text>
<text text-anchor="start" x="98.25" y="-221.5" font-family="Helvetica,sans-Serif" font-size="10.00">+ control</text>
<text text-anchor="start" x="98.25" y="-210.25" font-family="Helvetica,sans-Serif" font-size="10.00">+ if_statement</text>
<text text-anchor="start" x="98.25" y="-199" font-family="Helvetica,sans-Serif" font-size="10.00">+ mangled_name</text>
<text text-anchor="start" x="98.25" y="-187.75" font-family="Helvetica,sans-Serif" font-size="10.00">+ line_num</text>
<text text-anchor="start" x="98.25" y="-176.5" font-family="Helvetica,sans-Serif" font-size="10.00">+ fun_call</text>
<text text-anchor="start" x="98.25" y="-165.25" font-family="Helvetica,sans-Serif" font-size="10.00">+ fun_def</text>
<text text-anchor="start" x="98.25" y="-154" font-family="Helvetica,sans-Serif" font-size="10.00">+ module</text>
<text text-anchor="start" x="98.25" y="-142.75" font-family="Helvetica,sans-Serif" font-size="10.00">+ import</text>
<text text-anchor="start" x="98.25" y="-131.5" font-family="Helvetica,sans-Serif" font-size="10.00">+ op</text>
<polyline fill="none" stroke="#666666" points="90.25,-125.75 181.25,-125.75"/>
<text text-anchor="middle" x="135.75" y="-112.25" font-family="Helvetica,sans-Serif" font-size="10.00"> </text>
</a>
</g>
</g>
<!-- Node1&#45;&gt;Node2 -->
<g id="edge11" class="edge">
<title>Node1&#45;&gt;Node2</title>
<path fill="none" stroke="#404040" d="M26.06,-448.82C26.53,-439.18 27.87,-428.43 31,-419 42.53,-384.24 63.02,-349.48 82.84,-320.93"/>
<polygon fill="none" stroke="#404040" points="82.92,-320.82 83.13,-313.62 89.86,-311.04 89.65,-318.25 82.92,-320.82"/>
<text text-anchor="middle" x="45.62" y="-420.75" font-family="Helvetica,sans-Serif" font-size="10.00"> +args</text>
</g>
<!-- Node2&#45;&gt;Node1 -->
<g id="edge1" class="edge">
<title>Node2&#45;&gt;Node1</title>
<path fill="none" stroke="#404040" d="M90.43,-375.68C82.02,-394.36 72.72,-413.11 62.75,-430.25 61.21,-432.89 59.55,-435.55 57.8,-438.18"/>
<polygon fill="none" stroke="#404040" points="57.74,-438.25 57.53,-445.46 50.8,-448.04 51.01,-440.83 57.74,-438.25"/>
<text text-anchor="middle" x="82.62" y="-420.75" font-family="Helvetica,sans-Serif" font-size="10.00"> +expr</text>
</g>
<!-- Node2&#45;&gt;Node2 -->
<g id="edge7" class="edge">
<title>Node2&#45;&gt;Node2</title>
<path fill="none" stroke="#404040" d="M181.13,-284.88C191.58,-282.18 199.25,-271.72 199.25,-253.5 199.25,-242.4 196.4,-234.18 191.81,-228.84"/>
<polygon fill="none" stroke="#404040" points="192.05,-228.99 184.84,-229.18 181.89,-222.6 189.1,-222.41 192.05,-228.99"/>
<text text-anchor="middle" x="215.38" y="-305.88" font-family="Helvetica,sans-Serif" font-size="10.00"> +block</text>
<text text-anchor="middle" x="215.38" y="-294.62" font-family="Helvetica,sans-Serif" font-size="10.00">+child</text>
<text text-anchor="middle" x="215.38" y="-283.38" font-family="Helvetica,sans-Serif" font-size="10.00">+expr</text>
<text text-anchor="middle" x="215.38" y="-272.12" font-family="Helvetica,sans-Serif" font-size="10.00">+inc</text>
<text text-anchor="middle" x="215.38" y="-260.88" font-family="Helvetica,sans-Serif" font-size="10.00">+init</text>
<text text-anchor="middle" x="215.38" y="-249.62" font-family="Helvetica,sans-Serif" font-size="10.00">+left</text>
<text text-anchor="middle" x="215.38" y="-238.38" font-family="Helvetica,sans-Serif" font-size="10.00">+loop</text>
<text text-anchor="middle" x="215.38" y="-227.12" font-family="Helvetica,sans-Serif" font-size="10.00">+next</text>
<text text-anchor="middle" x="215.38" y="-215.88" font-family="Helvetica,sans-Serif" font-size="10.00">+right</text>
<text text-anchor="middle" x="215.38" y="-204.62" font-family="Helvetica,sans-Serif" font-size="10.00">+test</text>
<text text-anchor="middle" x="215.38" y="-193.38" font-family="Helvetica,sans-Serif" font-size="10.00">...</text>
</g>
<!-- Node5 -->
<g id="node5" class="node">
<title>Node5</title>
<g id="a_node5"><a xlink:href="struct_statement_block.html" target="_top" xlink:title=" ">
<polygon fill="white" stroke="#666666" points="92.88,-0.5 92.88,-58.25 178.62,-58.25 178.62,-0.5 92.88,-0.5"/>
<text text-anchor="middle" x="135.75" y="-44.75" font-family="Helvetica,sans-Serif" font-size="10.00">StatementBlock</text>
<polyline fill="none" stroke="#666666" points="92.88,-39 178.62,-39"/>
<text text-anchor="middle" x="135.75" y="-25.5" font-family="Helvetica,sans-Serif" font-size="10.00"> </text>
<polyline fill="none" stroke="#666666" points="92.88,-19.75 178.62,-19.75"/>
<text text-anchor="middle" x="135.75" y="-6.25" font-family="Helvetica,sans-Serif" font-size="10.00"> </text>
</a>
</g>
</g>
<!-- Node2&#45;&gt;Node5 -->
<g id="edge9" class="edge">
<title>Node2&#45;&gt;Node5</title>
<path fill="none" stroke="#404040" d="M90.27,-140.08C87.11,-118.75 87.72,-96.83 95.25,-76.75 96.26,-74.07 97.5,-71.44 98.91,-68.88"/>
<polygon fill="none" stroke="#404040" points="98.88,-68.92 98.88,-61.71 105.53,-58.93 105.54,-66.14 98.88,-68.92"/>
<text text-anchor="middle" x="122" y="-78.5" font-family="Helvetica,sans-Serif" font-size="10.00"> +statement</text>
</g>
<!-- Node3 -->
<g id="node3" class="node">
<title>Node3</title>
<g id="a_node3"><a xlink:href="struct_type.html" target="_top" xlink:title=" ">
<polygon fill="white" stroke="#666666" points="145.38,-554.75 145.38,-680 192.12,-680 192.12,-554.75 145.38,-554.75"/>
<text text-anchor="middle" x="168.75" y="-666.5" font-family="Helvetica,sans-Serif" font-size="10.00">Type</text>
<polyline fill="none" stroke="#666666" points="145.38,-660.75 192.12,-660.75"/>
<text text-anchor="start" x="153.38" y="-647.25" font-family="Helvetica,sans-Serif" font-size="10.00">+ tag</text>
<text text-anchor="start" x="153.38" y="-636" font-family="Helvetica,sans-Serif" font-size="10.00">+ base</text>
<text text-anchor="start" x="153.38" y="-624.75" font-family="Helvetica,sans-Serif" font-size="10.00">+ fun</text>
<text text-anchor="start" x="153.38" y="-613.5" font-family="Helvetica,sans-Serif" font-size="10.00">+ size</text>
<text text-anchor="start" x="153.38" y="-602.25" font-family="Helvetica,sans-Serif" font-size="10.00">+ array</text>
<text text-anchor="start" x="153.38" y="-591" font-family="Helvetica,sans-Serif" font-size="10.00">+ ptr</text>
<text text-anchor="start" x="153.38" y="-579.75" font-family="Helvetica,sans-Serif" font-size="10.00">+ op</text>
<polyline fill="none" stroke="#666666" points="145.38,-574 192.12,-574"/>
<text text-anchor="middle" x="168.75" y="-560.5" font-family="Helvetica,sans-Serif" font-size="10.00"> </text>
</a>
</g>
</g>
<!-- Node3&#45;&gt;Node2 -->
<g id="edge2" class="edge">
<title>Node3&#45;&gt;Node2</title>
<path fill="none" stroke="#404040" d="M152.68,-554.85C149.22,-539.33 146.01,-522.64 144,-507 140.12,-476.79 137.74,-444.4 136.33,-413.22"/>
<polygon fill="none" stroke="#404040" points="136.34,-413.31 132.09,-407.48 135.84,-401.32 140.09,-407.15 136.34,-413.31"/>
<text text-anchor="middle" x="158.62" y="-473.75" font-family="Helvetica,sans-Serif" font-size="10.00"> +type</text>
</g>
<!-- Node3&#45;&gt;Node3 -->
<g id="edge3" class="edge">
<title>Node3&#45;&gt;Node3</title>
<path fill="none" stroke="#404040" d="M191.73,-633.45C201.64,-634.76 210.12,-629.4 210.12,-617.38 210.12,-611.17 207.87,-606.74 204.32,-604.09"/>
<polygon fill="none" stroke="#404040" points="204.32,-604.09 197.6,-606.7 192.61,-601.5 199.33,-598.89 204.32,-604.09"/>
<text text-anchor="middle" x="237.5" y="-624.75" font-family="Helvetica,sans-Serif" font-size="10.00"> +elem_type</text>
<text text-anchor="middle" x="237.5" y="-613.5" font-family="Helvetica,sans-Serif" font-size="10.00">+return_type</text>
<text text-anchor="middle" x="237.5" y="-602.25" font-family="Helvetica,sans-Serif" font-size="10.00">+val_type</text>
</g>
<!-- Node4 -->
<g id="node4" class="node">
<title>Node4</title>
<g id="a_node4"><a xlink:href="struct_args.html" target="_top" xlink:title=" ">
<polygon fill="white" stroke="#666666" points="181.25,-448.75 181.25,-506.5 230.25,-506.5 230.25,-448.75 181.25,-448.75"/>
<text text-anchor="middle" x="205.75" y="-493" font-family="Helvetica,sans-Serif" font-size="10.00">Args</text>
<polyline fill="none" stroke="#666666" points="181.25,-487.25 230.25,-487.25"/>
<text text-anchor="start" x="189.25" y="-473.75" font-family="Helvetica,sans-Serif" font-size="10.00">+ name</text>
<polyline fill="none" stroke="#666666" points="181.25,-468 230.25,-468"/>
<text text-anchor="middle" x="205.75" y="-454.5" font-family="Helvetica,sans-Serif" font-size="10.00"> </text>
</a>
</g>
</g>
<!-- Node3&#45;&gt;Node4 -->
<g id="edge5" class="edge">
<title>Node3&#45;&gt;Node4</title>
<path fill="none" stroke="#404040" d="M160.5,-554.87C160.94,-544.67 162.53,-534.38 166,-525 167.86,-519.97 170.54,-515.11 173.64,-510.56"/>
<polygon fill="none" stroke="#404040" points="173.52,-510.71 174.06,-503.52 180.91,-501.25 180.37,-508.45 173.52,-510.71"/>
<text text-anchor="middle" x="180.62" y="-526.75" font-family="Helvetica,sans-Serif" font-size="10.00"> +type</text>
</g>
<!-- Node4&#45;&gt;Node2 -->
<g id="edge12" class="edge">
<title>Node4&#45;&gt;Node2</title>
<path fill="none" stroke="#404040" d="M197.03,-448.94C193.68,-438.31 189.57,-425.28 185.08,-411.04"/>
<polygon fill="none" stroke="#404040" points="185.11,-411.13 179.49,-406.61 181.5,-399.69 187.12,-404.21 185.11,-411.13"/>
<text text-anchor="middle" x="204.62" y="-420.75" font-family="Helvetica,sans-Serif" font-size="10.00"> +args</text>
</g>
<!-- Node4&#45;&gt;Node3 -->
<g id="edge4" class="edge">
<title>Node4&#45;&gt;Node3</title>
<path fill="none" stroke="#404040" d="M203.09,-506.4C201.86,-515.94 200.13,-526.64 197.75,-536.25 197.15,-538.67 196.5,-541.13 195.82,-543.59"/>
<polygon fill="none" stroke="#404040" points="195.81,-543.62 197.93,-550.51 192.38,-555.11 190.26,-548.22 195.81,-543.62"/>
<text text-anchor="middle" x="214.62" y="-526.75" font-family="Helvetica,sans-Serif" font-size="10.00"> +args</text>
</g>
<!-- Node4&#45;&gt;Node4 -->
<g id="edge6" class="edge">
<title>Node4&#45;&gt;Node4</title>
<path fill="none" stroke="#404040" d="M230.21,-487.5C240.02,-488.06 248.25,-484.77 248.25,-477.62 248.25,-474.05 246.19,-471.44 242.91,-469.8"/>
<polygon fill="none" stroke="#404040" points="242.94,-469.8 236.38,-472.8 231.1,-467.89 237.66,-464.9 242.94,-469.8"/>
<text text-anchor="middle" x="262.12" y="-473.75" font-family="Helvetica,sans-Serif" font-size="10.00"> +next</text>
</g>
<!-- Node5&#45;&gt;Node2 -->
<g id="edge8" class="edge">
<title>Node5&#45;&gt;Node2</title>
<path fill="none" stroke="#404040" d="M146.93,-57.94C148.93,-64.04 150.71,-70.53 151.75,-76.75 152.69,-82.34 153.41,-88.04 153.93,-93.8"/>
<polygon fill="none" stroke="#404040" points="153.92,-93.64 158.31,-99.36 154.73,-105.61 150.33,-99.89 153.92,-93.64"/>
<text text-anchor="middle" x="169.88" y="-78.5" font-family="Helvetica,sans-Serif" font-size="10.00"> +block</text>
</g>
<!-- Node5&#45;&gt;Node5 -->
<g id="edge10" class="edge">
<title>Node5&#45;&gt;Node5</title>
<path fill="none" stroke="#404040" d="M178.42,-39.16C188.86,-38.43 196.62,-35.17 196.62,-29.38 196.62,-26.39 194.56,-24.07 191.13,-22.43"/>
<polygon fill="none" stroke="#404040" points="191.01,-22.4 184.28,-25 179.3,-19.79 186.03,-17.19 191.01,-22.4"/>
<text text-anchor="middle" x="210.5" y="-25.5" font-family="Helvetica,sans-Serif" font-size="10.00"> +next</text>
</g>
<!-- Node6 -->
<g id="node6" class="node">
<title>Node6</title>
<g id="a_node6"><a xlink:href="struct_symbol_table.html" target="_top" xlink:title=" ">
<polygon fill="white" stroke="#666666" points="293.62,-448.75 293.62,-506.5 365.88,-506.5 365.88,-448.75 293.62,-448.75"/>
<text text-anchor="middle" x="329.75" y="-493" font-family="Helvetica,sans-Serif" font-size="10.00">SymbolTable</text>
<polyline fill="none" stroke="#666666" points="293.62,-487.25 365.88,-487.25"/>
<text text-anchor="middle" x="329.75" y="-473.75" font-family="Helvetica,sans-Serif" font-size="10.00"> </text>
<polyline fill="none" stroke="#666666" points="293.62,-468 365.88,-468"/>
<text text-anchor="middle" x="329.75" y="-454.5" font-family="Helvetica,sans-Serif" font-size="10.00"> </text>
</a>
</g>
</g>
<!-- Node6&#45;&gt;Node2 -->
<g id="edge13" class="edge">
<title>Node6&#45;&gt;Node2</title>
<path fill="none" stroke="#404040" d="M305.57,-448.94C276.68,-415.86 227.46,-359.51 189.43,-315.96"/>
<polygon fill="none" stroke="#404040" points="189.49,-316.03 182.53,-314.15 181.6,-307 188.56,-308.88 189.49,-316.03"/>
<text text-anchor="middle" x="303.75" y="-420.75" font-family="Helvetica,sans-Serif" font-size="10.00"> +table</text>
</g>
<!-- Node6&#45;&gt;Node6 -->
<g id="edge16" class="edge">
<title>Node6&#45;&gt;Node6</title>
<path fill="none" stroke="#404040" d="M365.66,-487.52C375.95,-487.14 383.88,-483.84 383.88,-477.62 383.88,-474.42 381.77,-471.99 378.32,-470.34"/>
<polygon fill="none" stroke="#404040" points="378.3,-470.34 371.61,-473.04 366.55,-467.91 373.23,-465.21 378.3,-470.34"/>
<text text-anchor="middle" x="397.75" y="-473.75" font-family="Helvetica,sans-Serif" font-size="10.00"> +next</text>
</g>
<!-- Node7 -->
<g id="node7" class="node">
<title>Node7</title>
<g id="a_node7"><a xlink:href="struct_hash_table.html" target="_top" xlink:title=" ">
<polygon fill="white" stroke="#666666" points="298.5,-582.88 298.5,-651.88 361,-651.88 361,-582.88 298.5,-582.88"/>
<text text-anchor="middle" x="329.75" y="-638.38" font-family="Helvetica,sans-Serif" font-size="10.00">HashTable</text>
<polyline fill="none" stroke="#666666" points="298.5,-632.62 361,-632.62"/>
<text text-anchor="start" x="306.5" y="-619.12" font-family="Helvetica,sans-Serif" font-size="10.00">+ capacity</text>
<text text-anchor="start" x="306.5" y="-607.88" font-family="Helvetica,sans-Serif" font-size="10.00">+ length</text>
<polyline fill="none" stroke="#666666" points="298.5,-602.12 361,-602.12"/>
<text text-anchor="middle" x="329.75" y="-588.62" font-family="Helvetica,sans-Serif" font-size="10.00"> </text>
</a>
</g>
</g>
<!-- Node7&#45;&gt;Node6 -->
<g id="edge14" class="edge">
<title>Node7&#45;&gt;Node6</title>
<path fill="none" stroke="#404040" d="M329.75,-583.03C329.75,-563.79 329.75,-539.45 329.75,-519.12"/>
<polygon fill="none" stroke="#404040" points="329.75,-519.01 325.75,-513.01 329.75,-507.01 333.75,-513.01 329.75,-519.01"/>
<text text-anchor="middle" x="357.88" y="-526.75" font-family="Helvetica,sans-Serif" font-size="10.00"> +hash_table</text>
</g>
<!-- Node8 -->
<g id="node8" class="node">
<title>Node8</title>
<g id="a_node8"><a xlink:href="struct_table_entry.html" target="_top" xlink:title=" ">
<polygon fill="white" stroke="#666666" points="298.5,-728.25 298.5,-819.75 361,-819.75 361,-728.25 298.5,-728.25"/>
<text text-anchor="middle" x="329.75" y="-806.25" font-family="Helvetica,sans-Serif" font-size="10.00">TableEntry</text>
<polyline fill="none" stroke="#666666" points="298.5,-800.5 361,-800.5"/>
<text text-anchor="start" x="306.5" y="-787" font-family="Helvetica,sans-Serif" font-size="10.00">+ key</text>
<text text-anchor="start" x="306.5" y="-775.75" font-family="Helvetica,sans-Serif" font-size="10.00">+ value</text>
<text text-anchor="start" x="306.5" y="-764.5" font-family="Helvetica,sans-Serif" font-size="10.00">+ hash</text>
<text text-anchor="start" x="306.5" y="-753.25" font-family="Helvetica,sans-Serif" font-size="10.00">+ psl</text>
<polyline fill="none" stroke="#666666" points="298.5,-747.5 361,-747.5"/>
<text text-anchor="middle" x="329.75" y="-734" font-family="Helvetica,sans-Serif" font-size="10.00"> </text>
</a>
</g>
</g>
<!-- Node8&#45;&gt;Node7 -->
<g id="edge15" class="edge">
<title>Node8&#45;&gt;Node7</title>
<path fill="none" stroke="#404040" d="M329.75,-728.28C329.75,-708.32 329.75,-684.83 329.75,-664.69"/>
<polygon fill="none" stroke="#404040" points="329.75,-664.6 325.75,-658.6 329.75,-652.6 333.75,-658.6 329.75,-664.6"/>
<text text-anchor="middle" x="348.88" y="-700.25" font-family="Helvetica,sans-Serif" font-size="10.00"> +entries</text>
</g>
</g>
</svg>
