<?xml version="1.0" encoding="UTF-8" standalone="no"?>
<!DOCTYPE svg PUBLIC "-//W3C//DTD SVG 1.1//EN"
 "http://www.w3.org/Graphics/SVG/1.1/DTD/svg11.dtd">
<!-- Generated by graphviz version 8.0.5 (20230430.1635)
 -->
<!-- Title: Type Pages: 1 -->
<svg width="134pt" height="240pt"
 viewBox="0.00 0.00 134.37 240.25" xmlns="http://www.w3.org/2000/svg" xmlns:xlink="http://www.w3.org/1999/xlink">
<g id="graph0" class="graph" transform="scale(1 1) rotate(0) translate(4 236.25)">
<title>Type</title>
<!-- Node1 -->
<g id="node1" class="node">
<title>Node1</title>
<g id="a_node1"><a xlink:title=" ">
<polygon fill="#999999" stroke="#666666" points="6.87,-106.5 6.87,-231.75 53.62,-231.75 53.62,-106.5 6.87,-106.5"/>
<text text-anchor="middle" x="30.24" y="-218.25" font-family="Helvetica,sans-Serif" font-size="10.00">Type</text>
<polyline fill="none" stroke="#666666" points="6.87,-212.5 53.62,-212.5"/>
<text text-anchor="start" x="14.87" y="-199" font-family="Helvetica,sans-Serif" font-size="10.00">+ tag</text>
<text text-anchor="start" x="14.87" y="-187.75" font-family="Helvetica,sans-Serif" font-size="10.00">+ base</text>
<text text-anchor="start" x="14.87" y="-176.5" font-family="Helvetica,sans-Serif" font-size="10.00">+ fun</text>
<text text-anchor="start" x="14.87" y="-165.25" font-family="Helvetica,sans-Serif" font-size="10.00">+ size</text>
<text text-anchor="start" x="14.87" y="-154" font-family="Helvetica,sans-Serif" font-size="10.00">+ array</text>
<text text-anchor="start" x="14.87" y="-142.75" font-family="Helvetica,sans-Serif" font-size="10.00">+ ptr</text>
<text text-anchor="start" x="14.87" y="-131.5" font-family="Helvetica,sans-Serif" font-size="10.00">+ op</text>
<polyline fill="none" stroke="#666666" points="6.87,-125.75 53.62,-125.75"/>
<text text-anchor="middle" x="30.24" y="-112.25" font-family="Helvetica,sans-Serif" font-size="10.00"> </text>
</a>
</g>
</g>
<!-- Node1&#45;&gt;Node1 -->
<g id="edge1" class="edge">
<title>Node1&#45;&gt;Node1</title>
<path fill="none" stroke="#404040" d="M53.22,-185.2C63.13,-186.51 71.62,-181.15 71.62,-169.12 71.62,-162.92 69.36,-158.49 65.82,-155.84"/>
<polygon fill="none" stroke="#404040" points="65.82,-155.84 59.1,-158.45 54.1,-153.25 60.82,-150.64 65.82,-155.84"/>
<text text-anchor="middle" x="98.99" y="-176.5" font-family="Helvetica,sans-Serif" font-size="10.00"> +elem_type</text>
<text text-anchor="middle" x="98.99" y="-165.25" font-family="Helvetica,sans-Serif" font-size="10.00">+return_type</text>
<text text-anchor="middle" x="98.99" y="-154" font-family="Helvetica,sans-Serif" font-size="10.00">+val_type</text>
</g>
<!-- Node2 -->
<g id="node2" class="node">
<title>Node2</title>
<g id="a_node2"><a xlink:href="struct_args.html" target="_top" xlink:title=" ">
<polygon fill="white" stroke="#666666" points="5.74,-0.5 5.74,-58.25 54.74,-58.25 54.74,-0.5 5.74,-0.5"/>
<text text-anchor="middle" x="30.24" y="-44.75" font-family="Helvetica,sans-Serif" font-size="10.00">Args</text>
<polyline fill="none" stroke="#666666" points="5.74,-39 54.74,-39"/>
<text text-anchor="start" x="13.74" y="-25.5" font-family="Helvetica,sans-Serif" font-size="10.00">+ name</text>
<polyline fill="none" stroke="#666666" points="5.74,-19.75 54.74,-19.75"/>
<text text-anchor="middle" x="30.24" y="-6.25" font-family="Helvetica,sans-Serif" font-size="10.00"> </text>
</a>
</g>
</g>
<!-- Node1&#45;&gt;Node2 -->
<g id="edge3" class="edge">
<title>Node1&#45;&gt;Node2</title>
<path fill="none" stroke="#404040" d="M6.97,-125.49C1.35,-110.17 -1.92,-92.73 2.49,-76.75 3.12,-74.47 3.9,-72.2 4.78,-69.94"/>
<polygon fill="none" stroke="#404040" points="4.82,-69.87 3.78,-62.73 9.97,-59.03 11,-66.17 4.82,-69.87"/>
<text text-anchor="middle" x="17.12" y="-78.5" font-family="Helvetica,sans-Serif" font-size="10.00"> +type</text>
</g>
<!-- Node2&#45;&gt;Node1 -->
<g id="edge2" class="edge">
<title>Node2&#45;&gt;Node1</title>
<path fill="none" stroke="#404040" d="M33,-57.81C33.52,-64.03 33.98,-70.61 34.24,-76.75 34.49,-82.34 34.58,-88.13 34.58,-93.95"/>
<polygon fill="none" stroke="#404040" points="34.58,-93.79 38.49,-99.84 34.41,-105.79 30.49,-99.73 34.58,-93.79"/>
<text text-anchor="middle" x="48.12" y="-78.5" font-family="Helvetica,sans-Serif" font-size="10.00"> +args</text>
</g>
<!-- Node2&#45;&gt;Node2 -->
<g id="edge4" class="edge">
<title>Node2&#45;&gt;Node2</title>
<path fill="none" stroke="#404040" d="M54.7,-39.25C64.51,-39.81 72.74,-36.52 72.74,-29.38 72.74,-25.8 70.69,-23.19 67.4,-21.55"/>
<polygon fill="none" stroke="#404040" points="67.44,-21.55 60.88,-24.55 55.59,-19.64 62.15,-16.65 67.44,-21.55"/>
<text text-anchor="middle" x="86.62" y="-25.5" font-family="Helvetica,sans-Serif" font-size="10.00"> +next</text>
</g>
</g>
</svg>
