<?xml version="1.0" encoding="UTF-8" standalone="no"?>
<!DOCTYPE svg PUBLIC "-//W3C//DTD SVG 1.1//EN"
 "http://www.w3.org/Graphics/SVG/1.1/DTD/svg11.dtd">
<!-- Generated by graphviz version 8.0.5 (20230430.1635)
 -->
<!-- Title: SymbolTable Pages: 1 -->
<svg width="126pt" height="324pt"
 viewBox="0.00 0.00 126.00 323.75" xmlns="http://www.w3.org/2000/svg" xmlns:xlink="http://www.w3.org/1999/xlink">
<g id="graph0" class="graph" transform="scale(1 1) rotate(0) translate(4 319.75)">
<title>SymbolTable</title>
<!-- Node1 -->
<g id="node1" class="node">
<title>Node1</title>
<g id="a_node1"><a xlink:title=" ">
<polygon fill="#999999" stroke="#666666" points="0,-0.5 0,-58.25 72.25,-58.25 72.25,-0.5 0,-0.5"/>
<text text-anchor="middle" x="36.12" y="-44.75" font-family="Helvetica,sans-Serif" font-size="10.00">SymbolTable</text>
<polyline fill="none" stroke="#666666" points="0,-39 72.25,-39"/>
<text text-anchor="middle" x="36.12" y="-25.5" font-family="Helvetica,sans-Serif" font-size="10.00"> </text>
<polyline fill="none" stroke="#666666" points="0,-19.75 72.25,-19.75"/>
<text text-anchor="middle" x="36.12" y="-6.25" font-family="Helvetica,sans-Serif" font-size="10.00"> </text>
</a>
</g>
</g>
<!-- Node1&#45;&gt;Node1 -->
<g id="edge3" class="edge">
<title>Node1&#45;&gt;Node1</title>
<path fill="none" stroke="#404040" d="M72.04,-39.27C82.32,-38.89 90.25,-35.59 90.25,-29.38 90.25,-26.17 88.14,-23.74 84.69,-22.09"/>
<polygon fill="none" stroke="#404040" points="84.67,-22.09 77.99,-24.79 72.92,-19.66 79.61,-16.96 84.67,-22.09"/>
<text text-anchor="middle" x="104.12" y="-25.5" font-family="Helvetica,sans-Serif" font-size="10.00"> +next</text>
</g>
<!-- Node2 -->
<g id="node2" class="node">
<title>Node2</title>
<g id="a_node2"><a xlink:href="struct_hash_table.html" target="_top" xlink:title=" ">
<polygon fill="white" stroke="#666666" points="4.88,-106.5 4.88,-175.5 67.38,-175.5 67.38,-106.5 4.88,-106.5"/>
<text text-anchor="middle" x="36.12" y="-162" font-family="Helvetica,sans-Serif" font-size="10.00">HashTable</text>
<polyline fill="none" stroke="#666666" points="4.88,-156.25 67.38,-156.25"/>
<text text-anchor="start" x="12.88" y="-142.75" font-family="Helvetica,sans-Serif" font-size="10.00">+ capacity</text>
<text text-anchor="start" x="12.88" y="-131.5" font-family="Helvetica,sans-Serif" font-size="10.00">+ length</text>
<polyline fill="none" stroke="#666666" points="4.88,-125.75 67.38,-125.75"/>
<text text-anchor="middle" x="36.12" y="-112.25" font-family="Helvetica,sans-Serif" font-size="10.00"> </text>
</a>
</g>
</g>
<!-- Node2&#45;&gt;Node1 -->
<g id="edge1" class="edge">
<title>Node2&#45;&gt;Node1</title>
<path fill="none" stroke="#404040" d="M36.12,-106.51C36.12,-95.26 36.12,-82.58 36.12,-70.85"/>
<polygon fill="none" stroke="#404040" points="36.13,-71.03 32.13,-65.03 36.13,-59.03 40.13,-65.03 36.13,-71.03"/>
<text text-anchor="middle" x="64.25" y="-78.5" font-family="Helvetica,sans-Serif" font-size="10.00"> +hash_table</text>
</g>
<!-- Node3 -->
<g id="node3" class="node">
<title>Node3</title>
<g id="a_node3"><a xlink:href="struct_table_entry.html" target="_top" xlink:title=" ">
<polygon fill="white" stroke="#666666" points="4.88,-223.75 4.88,-315.25 67.38,-315.25 67.38,-223.75 4.88,-223.75"/>
<text text-anchor="middle" x="36.12" y="-301.75" font-family="Helvetica,sans-Serif" font-size="10.00">TableEntry</text>
<polyline fill="none" stroke="#666666" points="4.88,-296 67.38,-296"/>
<text text-anchor="start" x="12.88" y="-282.5" font-family="Helvetica,sans-Serif" font-size="10.00">+ key</text>
<text text-anchor="start" x="12.88" y="-271.25" font-family="Helvetica,sans-Serif" font-size="10.00">+ value</text>
<text text-anchor="start" x="12.88" y="-260" font-family="Helvetica,sans-Serif" font-size="10.00">+ hash</text>
<text text-anchor="start" x="12.88" y="-248.75" font-family="Helvetica,sans-Serif" font-size="10.00">+ psl</text>
<polyline fill="none" stroke="#666666" points="4.88,-243 67.38,-243"/>
<text text-anchor="middle" x="36.12" y="-229.5" font-family="Helvetica,sans-Serif" font-size="10.00"> </text>
</a>
</g>
</g>
<!-- Node3&#45;&gt;Node2 -->
<g id="edge2" class="edge">
<title>Node3&#45;&gt;Node2</title>
<path fill="none" stroke="#404040" d="M36.12,-223.9C36.12,-212.32 36.12,-199.83 36.12,-188.18"/>
<polygon fill="none" stroke="#404040" points="36.13,-188.37 32.13,-182.37 36.13,-176.37 40.13,-182.37 36.13,-188.37"/>
<text text-anchor="middle" x="55.25" y="-195.75" font-family="Helvetica,sans-Serif" font-size="10.00"> +entries</text>
</g>
</g>
</svg>
