<?xml version="1.0" encoding="UTF-8" standalone="no"?>
<!DOCTYPE svg PUBLIC "-//W3C//DTD SVG 1.1//EN"
 "http://www.w3.org/Graphics/SVG/1.1/DTD/svg11.dtd">
<!-- Generated by graphviz version 8.0.5 (20230430.1635)
 -->
<!-- Title: Node Pages: 1 -->
<svg width="336pt" height="828pt"
 viewBox="0.00 0.00 335.75 828.25" xmlns="http://www.w3.org/2000/svg" xmlns:xlink="http://www.w3.org/1999/xlink">
<g id="graph0" class="graph" transform="scale(1 1) rotate(0) translate(4 824.25)">
<title>Node</title>
<!-- Node1 -->
<g id="node1" class="node">
<title>Node1</title>
<g id="a_node1"><a xlink:title=" ">
<polygon fill="#999999" stroke="#666666" points="76.38,-106.5 76.38,-400.5 167.38,-400.5 167.38,-106.5 76.38,-106.5"/>
<text text-anchor="middle" x="121.88" y="-387" font-family="Helvetica,sans-Serif" font-size="10.00">Node</text>
<polyline fill="none" stroke="#666666" points="76.38,-381.25 167.38,-381.25"/>
<text text-anchor="start" x="84.38" y="-367.75" font-family="Helvetica,sans-Serif" font-size="10.00">+ tag</text>
<text text-anchor="start" x="84.38" y="-356.5" font-family="Helvetica,sans-Serif" font-size="10.00">+ name</text>
<text text-anchor="start" x="84.38" y="-345.25" font-family="Helvetica,sans-Serif" font-size="10.00">+ var</text>
<text text-anchor="start" x="84.38" y="-334" font-family="Helvetica,sans-Serif" font-size="10.00">+ var_dec</text>
<text text-anchor="start" x="84.38" y="-322.75" font-family="Helvetica,sans-Serif" font-size="10.00">+ type_def</text>
<text text-anchor="start" x="84.38" y="-311.5" font-family="Helvetica,sans-Serif" font-size="10.00">+ op</text>
<text text-anchor="start" x="84.38" y="-300.25" font-family="Helvetica,sans-Serif" font-size="10.00">+ binary_expr</text>
<text text-anchor="start" x="84.38" y="-289" font-family="Helvetica,sans-Serif" font-size="10.00">+ unary_expr</text>
<text text-anchor="start" x="84.38" y="-277.75" font-family="Helvetica,sans-Serif" font-size="10.00">+ literal</text>
<text text-anchor="start" x="84.38" y="-266.5" font-family="Helvetica,sans-Serif" font-size="10.00">+ while_loop</text>
<text text-anchor="start" x="84.38" y="-255.25" font-family="Helvetica,sans-Serif" font-size="10.00">+ do_loop</text>
<text text-anchor="start" x="84.38" y="-244" font-family="Helvetica,sans-Serif" font-size="10.00">+ for_loop</text>
<text text-anchor="start" x="84.38" y="-232.75" font-family="Helvetica,sans-Serif" font-size="10.00">+ tag</text>
<text text-anchor="start" x="84.38" y="-221.5" font-family="Helvetica,sans-Serif" font-size="10.00">+ control</text>
<text text-anchor="start" x="84.38" y="-210.25" font-family="Helvetica,sans-Serif" font-size="10.00">+ if_statement</text>
<text text-anchor="start" x="84.38" y="-199" font-family="Helvetica,sans-Serif" font-size="10.00">+ mangled_name</text>
<text text-anchor="start" x="84.38" y="-187.75" font-family="Helvetica,sans-Serif" font-size="10.00">+ line_num</text>
<text text-anchor="start" x="84.38" y="-176.5" font-family="Helvetica,sans-Serif" font-size="10.00">+ fun_call</text>
<text text-anchor="start" x="84.38" y="-165.25" font-family="Helvetica,sans-Serif" font-size="10.00">+ fun_def</text>
<text text-anchor="start" x="84.38" y="-154" font-family="Helvetica,sans-Serif" font-size="10.00">+ module</text>
<text text-anchor="start" x="84.38" y="-142.75" font-family="Helvetica,sans-Serif" font-size="10.00">+ import</text>
<text text-anchor="start" x="84.38" y="-131.5" font-family="Helvetica,sans-Serif" font-size="10.00">+ op</text>
<polyline fill="none" stroke="#666666" points="76.38,-125.75 167.38,-125.75"/>
<text text-anchor="middle" x="121.88" y="-112.25" font-family="Helvetica,sans-Serif" font-size="10.00"> </text>
</a>
</g>
</g>
<!-- Node1&#45;&gt;Node1 -->
<g id="edge6" class="edge">
<title>Node1&#45;&gt;Node1</title>
<path fill="none" stroke="#404040" d="M167.25,-284.88C177.7,-282.18 185.38,-271.72 185.38,-253.5 185.38,-242.4 182.53,-234.18 177.93,-228.84"/>
<polygon fill="none" stroke="#404040" points="178.17,-228.99 170.96,-229.18 168.02,-222.6 175.22,-222.41 178.17,-228.99"/>
<text text-anchor="middle" x="201.5" y="-305.88" font-family="Helvetica,sans-Serif" font-size="10.00"> +block</text>
<text text-anchor="middle" x="201.5" y="-294.62" font-family="Helvetica,sans-Serif" font-size="10.00">+child</text>
<text text-anchor="middle" x="201.5" y="-283.38" font-family="Helvetica,sans-Serif" font-size="10.00">+expr</text>
<text text-anchor="middle" x="201.5" y="-272.12" font-family="Helvetica,sans-Serif" font-size="10.00">+inc</text>
<text text-anchor="middle" x="201.5" y="-260.88" font-family="Helvetica,sans-Serif" font-size="10.00">+init</text>
<text text-anchor="middle" x="201.5" y="-249.62" font-family="Helvetica,sans-Serif" font-size="10.00">+left</text>
<text text-anchor="middle" x="201.5" y="-238.38" font-family="Helvetica,sans-Serif" font-size="10.00">+loop</text>
<text text-anchor="middle" x="201.5" y="-227.12" font-family="Helvetica,sans-Serif" font-size="10.00">+next</text>
<text text-anchor="middle" x="201.5" y="-215.88" font-family="Helvetica,sans-Serif" font-size="10.00">+right</text>
<text text-anchor="middle" x="201.5" y="-204.62" font-family="Helvetica,sans-Serif" font-size="10.00">+test</text>
<text text-anchor="middle" x="201.5" y="-193.38" font-family="Helvetica,sans-Serif" font-size="10.00">...</text>
</g>
<!-- Node4 -->
<g id="node4" class="node">
<title>Node4</title>
<g id="a_node4"><a xlink:href="struct_statement_block.html" target="_top" xlink:title=" ">
<polygon fill="white" stroke="#666666" points="0,-0.5 0,-58.25 85.75,-58.25 85.75,-0.5 0,-0.5"/>
<text text-anchor="middle" x="42.88" y="-44.75" font-family="Helvetica,sans-Serif" font-size="10.00">StatementBlock</text>
<polyline fill="none" stroke="#666666" points="0,-39 85.75,-39"/>
<text text-anchor="middle" x="42.88" y="-25.5" font-family="Helvetica,sans-Serif" font-size="10.00"> </text>
<polyline fill="none" stroke="#666666" points="0,-19.75 85.75,-19.75"/>
<text text-anchor="middle" x="42.88" y="-6.25" font-family="Helvetica,sans-Serif" font-size="10.00"> </text>
</a>
</g>
</g>
<!-- Node1&#45;&gt;Node4 -->
<g id="edge8" class="edge">
<title>Node1&#45;&gt;Node4</title>
<path fill="none" stroke="#404040" d="M76.64,-199.33C53.74,-168.87 28.3,-128.7 16.38,-88 14.63,-82.04 14.94,-75.91 16.48,-69.97"/>
<polygon fill="none" stroke="#404040" points="16.4,-70.18 14.87,-63.13 20.79,-59.01 22.32,-66.06 16.4,-70.18"/>
<text text-anchor="middle" x="43.12" y="-78.5" font-family="Helvetica,sans-Serif" font-size="10.00"> +statement</text>
</g>
<!-- Node5 -->
<g id="node5" class="node">
<title>Node5</title>
<g id="a_node5"><a xlink:href="struct_call_args.html" target="_top" xlink:title=" ">
<polygon fill="white" stroke="#666666" points="161.12,-0.5 161.12,-58.25 214.62,-58.25 214.62,-0.5 161.12,-0.5"/>
<text text-anchor="middle" x="187.88" y="-44.75" font-family="Helvetica,sans-Serif" font-size="10.00">CallArgs</text>
<polyline fill="none" stroke="#666666" points="161.12,-39 214.62,-39"/>
<text text-anchor="middle" x="187.88" y="-25.5" font-family="Helvetica,sans-Serif" font-size="10.00"> </text>
<polyline fill="none" stroke="#666666" points="161.12,-19.75 214.62,-19.75"/>
<text text-anchor="middle" x="187.88" y="-6.25" font-family="Helvetica,sans-Serif" font-size="10.00"> </text>
</a>
</g>
</g>
<!-- Node1&#45;&gt;Node5 -->
<g id="edge11" class="edge">
<title>Node1&#45;&gt;Node5</title>
<path fill="none" stroke="#404040" d="M136.01,-106.7C139.07,-96.36 142.74,-86.27 147.12,-76.75 148.87,-72.95 151.04,-69.24 153.44,-65.67"/>
<polygon fill="none" stroke="#404040" points="153.42,-65.7 153.88,-58.51 160.7,-56.16 160.24,-63.36 153.42,-65.7"/>
<text text-anchor="middle" x="161.75" y="-78.5" font-family="Helvetica,sans-Serif" font-size="10.00"> +expr</text>
</g>
<!-- Node2 -->
<g id="node2" class="node">
<title>Node2</title>
<g id="a_node2"><a xlink:href="struct_type.html" target="_top" xlink:title=" ">
<polygon fill="white" stroke="#666666" points="61.5,-554.75 61.5,-680 108.25,-680 108.25,-554.75 61.5,-554.75"/>
<text text-anchor="middle" x="84.88" y="-666.5" font-family="Helvetica,sans-Serif" font-size="10.00">Type</text>
<polyline fill="none" stroke="#666666" points="61.5,-660.75 108.25,-660.75"/>
<text text-anchor="start" x="69.5" y="-647.25" font-family="Helvetica,sans-Serif" font-size="10.00">+ tag</text>
<text text-anchor="start" x="69.5" y="-636" font-family="Helvetica,sans-Serif" font-size="10.00">+ base</text>
<text text-anchor="start" x="69.5" y="-624.75" font-family="Helvetica,sans-Serif" font-size="10.00">+ fun</text>
<text text-anchor="start" x="69.5" y="-613.5" font-family="Helvetica,sans-Serif" font-size="10.00">+ size</text>
<text text-anchor="start" x="69.5" y="-602.25" font-family="Helvetica,sans-Serif" font-size="10.00">+ array</text>
<text text-anchor="start" x="69.5" y="-591" font-family="Helvetica,sans-Serif" font-size="10.00">+ ptr</text>
<text text-anchor="start" x="69.5" y="-579.75" font-family="Helvetica,sans-Serif" font-size="10.00">+ op</text>
<polyline fill="none" stroke="#666666" points="61.5,-574 108.25,-574"/>
<text text-anchor="middle" x="84.88" y="-560.5" font-family="Helvetica,sans-Serif" font-size="10.00"> </text>
</a>
</g>
</g>
<!-- Node2&#45;&gt;Node1 -->
<g id="edge1" class="edge">
<title>Node2&#45;&gt;Node1</title>
<path fill="none" stroke="#404040" d="M68.45,-554.89C65,-539.38 61.88,-522.67 60.12,-507 57.23,-481.05 56.11,-474.05 60.12,-448.25 63.1,-429.13 67.63,-409.31 72.91,-389.98"/>
<polygon fill="none" stroke="#404040" points="72.88,-390.1 70.66,-383.24 76.15,-378.55 78.36,-385.42 72.88,-390.1"/>
<text text-anchor="middle" x="74.75" y="-473.75" font-family="Helvetica,sans-Serif" font-size="10.00"> +type</text>
</g>
<!-- Node2&#45;&gt;Node2 -->
<g id="edge2" class="edge">
<title>Node2&#45;&gt;Node2</title>
<path fill="none" stroke="#404040" d="M107.85,-633.45C117.76,-634.76 126.25,-629.4 126.25,-617.38 126.25,-611.17 123.99,-606.74 120.45,-604.09"/>
<polygon fill="none" stroke="#404040" points="120.45,-604.09 113.73,-606.7 108.73,-601.5 115.45,-598.89 120.45,-604.09"/>
<text text-anchor="middle" x="153.62" y="-624.75" font-family="Helvetica,sans-Serif" font-size="10.00"> +elem_type</text>
<text text-anchor="middle" x="153.62" y="-613.5" font-family="Helvetica,sans-Serif" font-size="10.00">+return_type</text>
<text text-anchor="middle" x="153.62" y="-602.25" font-family="Helvetica,sans-Serif" font-size="10.00">+val_type</text>
</g>
<!-- Node3 -->
<g id="node3" class="node">
<title>Node3</title>
<g id="a_node3"><a xlink:href="struct_args.html" target="_top" xlink:title=" ">
<polygon fill="white" stroke="#666666" points="97.38,-448.75 97.38,-506.5 146.38,-506.5 146.38,-448.75 97.38,-448.75"/>
<text text-anchor="middle" x="121.88" y="-493" font-family="Helvetica,sans-Serif" font-size="10.00">Args</text>
<polyline fill="none" stroke="#666666" points="97.38,-487.25 146.38,-487.25"/>
<text text-anchor="start" x="105.38" y="-473.75" font-family="Helvetica,sans-Serif" font-size="10.00">+ name</text>
<polyline fill="none" stroke="#666666" points="97.38,-468 146.38,-468"/>
<text text-anchor="middle" x="121.88" y="-454.5" font-family="Helvetica,sans-Serif" font-size="10.00"> </text>
</a>
</g>
</g>
<!-- Node2&#45;&gt;Node3 -->
<g id="edge4" class="edge">
<title>Node2&#45;&gt;Node3</title>
<path fill="none" stroke="#404040" d="M76.63,-554.87C77.06,-544.67 78.66,-534.38 82.12,-525 83.99,-519.97 86.67,-515.11 89.77,-510.56"/>
<polygon fill="none" stroke="#404040" points="89.65,-510.71 90.19,-503.52 97.03,-501.25 96.49,-508.45 89.65,-510.71"/>
<text text-anchor="middle" x="96.75" y="-526.75" font-family="Helvetica,sans-Serif" font-size="10.00"> +type</text>
</g>
<!-- Node3&#45;&gt;Node1 -->
<g id="edge13" class="edge">
<title>Node3&#45;&gt;Node1</title>
<path fill="none" stroke="#404040" d="M121.88,-448.94C121.88,-438.79 121.88,-426.45 121.88,-412.96"/>
<polygon fill="none" stroke="#404040" points="121.88,-413.18 117.88,-407.18 121.88,-401.18 125.88,-407.18 121.88,-413.18"/>
<text text-anchor="middle" x="135.75" y="-420.75" font-family="Helvetica,sans-Serif" font-size="10.00"> +args</text>
</g>
<!-- Node3&#45;&gt;Node2 -->
<g id="edge3" class="edge">
<title>Node3&#45;&gt;Node2</title>
<path fill="none" stroke="#404040" d="M119.21,-506.4C117.98,-515.94 116.25,-526.64 113.88,-536.25 113.28,-538.67 112.63,-541.13 111.94,-543.59"/>
<polygon fill="none" stroke="#404040" points="111.94,-543.62 114.05,-550.51 108.5,-555.11 106.39,-548.22 111.94,-543.62"/>
<text text-anchor="middle" x="130.75" y="-526.75" font-family="Helvetica,sans-Serif" font-size="10.00"> +args</text>
</g>
<!-- Node3&#45;&gt;Node3 -->
<g id="edge5" class="edge">
<title>Node3&#45;&gt;Node3</title>
<path fill="none" stroke="#404040" d="M146.33,-487.5C156.14,-488.06 164.38,-484.77 164.38,-477.62 164.38,-474.05 162.32,-471.44 159.03,-469.8"/>
<polygon fill="none" stroke="#404040" points="159.07,-469.8 152.51,-472.8 147.22,-467.89 153.78,-464.9 159.07,-469.8"/>
<text text-anchor="middle" x="178.25" y="-473.75" font-family="Helvetica,sans-Serif" font-size="10.00"> +next</text>
</g>
<!-- Node4&#45;&gt;Node1 -->
<g id="edge7" class="edge">
<title>Node4&#45;&gt;Node1</title>
<path fill="none" stroke="#404040" d="M62.7,-58.05C66.43,-64.03 70.04,-70.45 72.88,-76.75 75.53,-82.65 78.07,-88.72 80.5,-94.9"/>
<polygon fill="none" stroke="#404040" points="80.48,-94.85 86.35,-99.05 84.73,-106.08 78.86,-101.88 80.48,-94.85"/>
<text text-anchor="middle" x="93" y="-78.5" font-family="Helvetica,sans-Serif" font-size="10.00"> +block</text>
</g>
<!-- Node4&#45;&gt;Node4 -->
<g id="edge9" class="edge">
<title>Node4&#45;&gt;Node4</title>
<path fill="none" stroke="#404040" d="M85.54,-39.16C95.98,-38.43 103.75,-35.17 103.75,-29.38 103.75,-26.39 101.68,-24.07 98.25,-22.43"/>
<polygon fill="none" stroke="#404040" points="98.14,-22.4 91.41,-25 86.42,-19.79 93.15,-17.19 98.14,-22.4"/>
<text text-anchor="middle" x="117.62" y="-25.5" font-family="Helvetica,sans-Serif" font-size="10.00"> +next</text>
</g>
<!-- Node5&#45;&gt;Node1 -->
<g id="edge10" class="edge">
<title>Node5&#45;&gt;Node1</title>
<path fill="none" stroke="#404040" d="M184.56,-58.13C183.16,-67.67 181.27,-78.37 178.88,-88 176.54,-97.38 173.89,-106.99 171.06,-116.62"/>
<polygon fill="none" stroke="#404040" points="171.1,-116.46 173.19,-123.36 167.63,-127.95 165.54,-121.05 171.1,-116.46"/>
<text text-anchor="middle" x="195.75" y="-78.5" font-family="Helvetica,sans-Serif" font-size="10.00"> +args</text>
</g>
<!-- Node5&#45;&gt;Node5 -->
<g id="edge12" class="edge">
<title>Node5&#45;&gt;Node5</title>
<path fill="none" stroke="#404040" d="M214.52,-39.29C224.45,-39.62 232.62,-36.31 232.62,-29.38 232.62,-25.91 230.58,-23.35 227.3,-21.69"/>
<polygon fill="none" stroke="#404040" points="227.23,-21.68 220.63,-24.59 215.41,-19.61 222.01,-16.71 227.23,-21.68"/>
<text text-anchor="middle" x="246.5" y="-25.5" font-family="Helvetica,sans-Serif" font-size="10.00"> +next</text>
</g>
<!-- Node6 -->
<g id="node6" class="node">
<title>Node6</title>
<g id="a_node6"><a xlink:href="struct_symbol_table.html" target="_top" xlink:title=" ">
<polygon fill="white" stroke="#666666" points="209.75,-448.75 209.75,-506.5 282,-506.5 282,-448.75 209.75,-448.75"/>
<text text-anchor="middle" x="245.88" y="-493" font-family="Helvetica,sans-Serif" font-size="10.00">SymbolTable</text>
<polyline fill="none" stroke="#666666" points="209.75,-487.25 282,-487.25"/>
<text text-anchor="middle" x="245.88" y="-473.75" font-family="Helvetica,sans-Serif" font-size="10.00"> </text>
<polyline fill="none" stroke="#666666" points="209.75,-468 282,-468"/>
<text text-anchor="middle" x="245.88" y="-454.5" font-family="Helvetica,sans-Serif" font-size="10.00"> </text>
</a>
</g>
</g>
<!-- Node6&#45;&gt;Node1 -->
<g id="edge14" class="edge">
<title>Node6&#45;&gt;Node1</title>
<path fill="none" stroke="#404040" d="M230.42,-448.94C216.12,-423.33 194.04,-383.78 173.52,-347.02"/>
<polygon fill="none" stroke="#404040" points="173.5,-346.98 167.09,-343.69 167.65,-336.5 174.07,-339.79 173.5,-346.98"/>
<text text-anchor="middle" x="234.88" y="-420.75" font-family="Helvetica,sans-Serif" font-size="10.00"> +table</text>
</g>
<!-- Node6&#45;&gt;Node6 -->
<g id="edge17" class="edge">
<title>Node6&#45;&gt;Node6</title>
<path fill="none" stroke="#404040" d="M281.79,-487.52C292.07,-487.14 300,-483.84 300,-477.62 300,-474.42 297.89,-471.99 294.44,-470.34"/>
<polygon fill="none" stroke="#404040" points="294.42,-470.34 287.74,-473.04 282.67,-467.91 289.36,-465.21 294.42,-470.34"/>
<text text-anchor="middle" x="313.88" y="-473.75" font-family="Helvetica,sans-Serif" font-size="10.00"> +next</text>
</g>
<!-- Node7 -->
<g id="node7" class="node">
<title>Node7</title>
<g id="a_node7"><a xlink:href="struct_hash_table.html" target="_top" xlink:title=" ">
<polygon fill="white" stroke="#666666" points="214.62,-582.88 214.62,-651.88 277.12,-651.88 277.12,-582.88 214.62,-582.88"/>
<text text-anchor="middle" x="245.88" y="-638.38" font-family="Helvetica,sans-Serif" font-size="10.00">HashTable</text>
<polyline fill="none" stroke="#666666" points="214.62,-632.62 277.12,-632.62"/>
<text text-anchor="start" x="222.62" y="-619.12" font-family="Helvetica,sans-Serif" font-size="10.00">+ capacity</text>
<text text-anchor="start" x="222.62" y="-607.88" font-family="Helvetica,sans-Serif" font-size="10.00">+ length</text>
<polyline fill="none" stroke="#666666" points="214.62,-602.12 277.12,-602.12"/>
<text text-anchor="middle" x="245.88" y="-588.62" font-family="Helvetica,sans-Serif" font-size="10.00"> </text>
</a>
</g>
</g>
<!-- Node7&#45;&gt;Node6 -->
<g id="edge15" class="edge">
<title>Node7&#45;&gt;Node6</title>
<path fill="none" stroke="#404040" d="M245.88,-583.03C245.88,-563.79 245.88,-539.45 245.88,-519.12"/>
<polygon fill="none" stroke="#404040" points="245.88,-519.01 241.88,-513.01 245.88,-507.01 249.88,-513.01 245.88,-519.01"/>
<text text-anchor="middle" x="274" y="-526.75" font-family="Helvetica,sans-Serif" font-size="10.00"> +hash_table</text>
</g>
<!-- Node8 -->
<g id="node8" class="node">
<title>Node8</title>
<g id="a_node8"><a xlink:href="struct_table_entry.html" target="_top" xlink:title=" ">
<polygon fill="white" stroke="#666666" points="214.62,-728.25 214.62,-819.75 277.12,-819.75 277.12,-728.25 214.62,-728.25"/>
<text text-anchor="middle" x="245.88" y="-806.25" font-family="Helvetica,sans-Serif" font-size="10.00">TableEntry</text>
<polyline fill="none" stroke="#666666" points="214.62,-800.5 277.12,-800.5"/>
<text text-anchor="start" x="222.62" y="-787" font-family="Helvetica,sans-Serif" font-size="10.00">+ key</text>
<text text-anchor="start" x="222.62" y="-775.75" font-family="Helvetica,sans-Serif" font-size="10.00">+ value</text>
<text text-anchor="start" x="222.62" y="-764.5" font-family="Helvetica,sans-Serif" font-size="10.00">+ hash</text>
<text text-anchor="start" x="222.62" y="-753.25" font-family="Helvetica,sans-Serif" font-size="10.00">+ psl</text>
<polyline fill="none" stroke="#666666" points="214.62,-747.5 277.12,-747.5"/>
<text text-anchor="middle" x="245.88" y="-734" font-family="Helvetica,sans-Serif" font-size="10.00"> </text>
</a>
</g>
</g>
<!-- Node8&#45;&gt;Node7 -->
<g id="edge16" class="edge">
<title>Node8&#45;&gt;Node7</title>
<path fill="none" stroke="#404040" d="M245.88,-728.28C245.88,-708.32 245.88,-684.83 245.88,-664.69"/>
<polygon fill="none" stroke="#404040" points="245.88,-664.6 241.88,-658.6 245.88,-652.6 249.88,-658.6 245.88,-664.6"/>
<text text-anchor="middle" x="265" y="-700.25" font-family="Helvetica,sans-Serif" font-size="10.00"> +entries</text>
</g>
</g>
</svg>
