<?xml version="1.0" encoding="UTF-8" standalone="no"?>
<!DOCTYPE svg PUBLIC "-//W3C//DTD SVG 1.1//EN"
 "http://www.w3.org/Graphics/SVG/1.1/DTD/svg11.dtd">
<!-- Generated by graphviz version 8.0.5 (20230430.1635)
 -->
<!-- Title: FunSymbol Pages: 1 -->
<svg width="282pt" height="509pt"
 viewBox="0.00 0.00 282.08 508.50" xmlns="http://www.w3.org/2000/svg" xmlns:xlink="http://www.w3.org/1999/xlink">
<g id="graph0" class="graph" transform="scale(1 1) rotate(0) translate(4 504.5)">
<title>FunSymbol</title>
<!-- Node1 -->
<g id="node1" class="node">
<title>Node1</title>
<g id="a_node1"><a xlink:title=" ">
<polygon fill="#999999" stroke="#666666" points="30.58,-0.5 30.58,-80.75 105.83,-80.75 105.83,-0.5 30.58,-0.5"/>
<text text-anchor="middle" x="68.21" y="-67.25" font-family="Helvetica,sans-Serif" font-size="10.00">FunSymbol</text>
<polyline fill="none" stroke="#666666" points="30.58,-61.5 105.83,-61.5"/>
<text text-anchor="start" x="38.58" y="-48" font-family="Helvetica,sans-Serif" font-size="10.00">+ name</text>
<text text-anchor="start" x="38.58" y="-36.75" font-family="Helvetica,sans-Serif" font-size="10.00">+ closure</text>
<text text-anchor="start" x="38.58" y="-25.5" font-family="Helvetica,sans-Serif" font-size="10.00">+ declared_at</text>
<polyline fill="none" stroke="#666666" points="30.58,-19.75 105.83,-19.75"/>
<text text-anchor="middle" x="68.21" y="-6.25" font-family="Helvetica,sans-Serif" font-size="10.00"> </text>
</a>
</g>
</g>
<!-- Node2 -->
<g id="node2" class="node">
<title>Node2</title>
<g id="a_node2"><a xlink:href="struct_type.html" target="_top" xlink:title=" ">
<polygon fill="white" stroke="#666666" points="7.83,-235 7.83,-360.25 54.58,-360.25 54.58,-235 7.83,-235"/>
<text text-anchor="middle" x="31.21" y="-346.75" font-family="Helvetica,sans-Serif" font-size="10.00">Type</text>
<polyline fill="none" stroke="#666666" points="7.83,-341 54.58,-341"/>
<text text-anchor="start" x="15.83" y="-327.5" font-family="Helvetica,sans-Serif" font-size="10.00">+ tag</text>
<text text-anchor="start" x="15.83" y="-316.25" font-family="Helvetica,sans-Serif" font-size="10.00">+ base</text>
<text text-anchor="start" x="15.83" y="-305" font-family="Helvetica,sans-Serif" font-size="10.00">+ fun</text>
<text text-anchor="start" x="15.83" y="-293.75" font-family="Helvetica,sans-Serif" font-size="10.00">+ size</text>
<text text-anchor="start" x="15.83" y="-282.5" font-family="Helvetica,sans-Serif" font-size="10.00">+ array</text>
<text text-anchor="start" x="15.83" y="-271.25" font-family="Helvetica,sans-Serif" font-size="10.00">+ ptr</text>
<text text-anchor="start" x="15.83" y="-260" font-family="Helvetica,sans-Serif" font-size="10.00">+ op</text>
<polyline fill="none" stroke="#666666" points="7.83,-254.25 54.58,-254.25"/>
<text text-anchor="middle" x="31.21" y="-240.75" font-family="Helvetica,sans-Serif" font-size="10.00"> </text>
</a>
</g>
</g>
<!-- Node2&#45;&gt;Node1 -->
<g id="edge1" class="edge">
<title>Node2&#45;&gt;Node1</title>
<path fill="none" stroke="#404040" d="M9.07,-235.24C0.66,-202.91 -4.53,-162.93 6.46,-128.5 10.59,-115.54 17.44,-102.86 25.11,-91.37"/>
<polygon fill="none" stroke="#404040" points="25.18,-91.27 25.39,-84.06 32.13,-81.48 31.92,-88.69 25.18,-91.27"/>
<text text-anchor="middle" x="21.08" y="-154" font-family="Helvetica,sans-Serif" font-size="10.00"> +type</text>
</g>
<!-- Node2&#45;&gt;Node2 -->
<g id="edge2" class="edge">
<title>Node2&#45;&gt;Node2</title>
<path fill="none" stroke="#404040" d="M54.18,-313.7C64.09,-315.01 72.58,-309.65 72.58,-297.62 72.58,-291.42 70.32,-286.99 66.78,-284.34"/>
<polygon fill="none" stroke="#404040" points="66.78,-284.34 60.06,-286.95 55.06,-281.75 61.78,-279.14 66.78,-284.34"/>
<text text-anchor="middle" x="99.96" y="-305" font-family="Helvetica,sans-Serif" font-size="10.00"> +elem_type</text>
<text text-anchor="middle" x="99.96" y="-293.75" font-family="Helvetica,sans-Serif" font-size="10.00">+return_type</text>
<text text-anchor="middle" x="99.96" y="-282.5" font-family="Helvetica,sans-Serif" font-size="10.00">+val_type</text>
</g>
<!-- Node3 -->
<g id="node3" class="node">
<title>Node3</title>
<g id="a_node3"><a xlink:href="struct_args.html" target="_top" xlink:title=" ">
<polygon fill="white" stroke="#666666" points="43.71,-129 43.71,-186.75 92.71,-186.75 92.71,-129 43.71,-129"/>
<text text-anchor="middle" x="68.21" y="-173.25" font-family="Helvetica,sans-Serif" font-size="10.00">Args</text>
<polyline fill="none" stroke="#666666" points="43.71,-167.5 92.71,-167.5"/>
<text text-anchor="start" x="51.71" y="-154" font-family="Helvetica,sans-Serif" font-size="10.00">+ name</text>
<polyline fill="none" stroke="#666666" points="43.71,-148.25 92.71,-148.25"/>
<text text-anchor="middle" x="68.21" y="-134.75" font-family="Helvetica,sans-Serif" font-size="10.00"> </text>
</a>
</g>
</g>
<!-- Node2&#45;&gt;Node3 -->
<g id="edge4" class="edge">
<title>Node2&#45;&gt;Node3</title>
<path fill="none" stroke="#404040" d="M22.96,-235.12C23.39,-224.92 24.99,-214.63 28.46,-205.25 30.32,-200.22 33,-195.36 36.1,-190.81"/>
<polygon fill="none" stroke="#404040" points="35.98,-190.96 36.52,-183.77 43.36,-181.5 42.82,-188.7 35.98,-190.96"/>
<text text-anchor="middle" x="43.08" y="-207" font-family="Helvetica,sans-Serif" font-size="10.00"> +type</text>
</g>
<!-- Node3&#45;&gt;Node1 -->
<g id="edge10" class="edge">
<title>Node3&#45;&gt;Node1</title>
<path fill="none" stroke="#404040" d="M68.21,-129.27C68.21,-118.4 68.21,-105.54 68.21,-93.08"/>
<polygon fill="none" stroke="#404040" points="68.21,-93.24 64.21,-87.24 68.21,-81.24 72.21,-87.24 68.21,-93.24"/>
<text text-anchor="middle" x="82.08" y="-101" font-family="Helvetica,sans-Serif" font-size="10.00"> +args</text>
</g>
<!-- Node3&#45;&gt;Node2 -->
<g id="edge3" class="edge">
<title>Node3&#45;&gt;Node2</title>
<path fill="none" stroke="#404040" d="M65.54,-186.65C64.31,-196.19 62.58,-206.89 60.21,-216.5 59.61,-218.92 58.96,-221.38 58.27,-223.84"/>
<polygon fill="none" stroke="#404040" points="58.27,-223.87 60.38,-230.76 54.83,-235.36 52.72,-228.47 58.27,-223.87"/>
<text text-anchor="middle" x="77.08" y="-207" font-family="Helvetica,sans-Serif" font-size="10.00"> +args</text>
</g>
<!-- Node3&#45;&gt;Node3 -->
<g id="edge5" class="edge">
<title>Node3&#45;&gt;Node3</title>
<path fill="none" stroke="#404040" d="M92.66,-167.75C102.47,-168.31 110.71,-165.02 110.71,-157.88 110.71,-154.3 108.65,-151.69 105.36,-150.05"/>
<polygon fill="none" stroke="#404040" points="105.4,-150.05 98.84,-153.05 93.55,-148.14 100.11,-145.15 105.4,-150.05"/>
<text text-anchor="middle" x="124.58" y="-154" font-family="Helvetica,sans-Serif" font-size="10.00"> +next</text>
</g>
<!-- Node4 -->
<g id="node4" class="node">
<title>Node4</title>
<g id="a_node4"><a xlink:href="struct_symbol_table.html" target="_top" xlink:title=" ">
<polygon fill="white" stroke="#666666" points="156.08,-129 156.08,-186.75 228.33,-186.75 228.33,-129 156.08,-129"/>
<text text-anchor="middle" x="192.21" y="-173.25" font-family="Helvetica,sans-Serif" font-size="10.00">SymbolTable</text>
<polyline fill="none" stroke="#666666" points="156.08,-167.5 228.33,-167.5"/>
<text text-anchor="middle" x="192.21" y="-154" font-family="Helvetica,sans-Serif" font-size="10.00"> </text>
<polyline fill="none" stroke="#666666" points="156.08,-148.25 228.33,-148.25"/>
<text text-anchor="middle" x="192.21" y="-134.75" font-family="Helvetica,sans-Serif" font-size="10.00"> </text>
</a>
</g>
</g>
<!-- Node4&#45;&gt;Node1 -->
<g id="edge6" class="edge">
<title>Node4&#45;&gt;Node1</title>
<path fill="none" stroke="#404040" d="M162.5,-129.27C148.25,-116.02 130.83,-99.83 114.87,-84.99"/>
<polygon fill="none" stroke="#404040" points="115.12,-85.23 108,-84.07 106.33,-77.06 113.45,-78.21 115.12,-85.23"/>
<text text-anchor="middle" x="175.58" y="-101" font-family="Helvetica,sans-Serif" font-size="10.00"> +symbol_table</text>
</g>
<!-- Node4&#45;&gt;Node4 -->
<g id="edge9" class="edge">
<title>Node4&#45;&gt;Node4</title>
<path fill="none" stroke="#404040" d="M228.12,-167.77C238.4,-167.39 246.33,-164.09 246.33,-157.88 246.33,-154.67 244.22,-152.24 240.77,-150.59"/>
<polygon fill="none" stroke="#404040" points="240.75,-150.59 234.07,-153.29 229,-148.16 235.69,-145.46 240.75,-150.59"/>
<text text-anchor="middle" x="260.21" y="-154" font-family="Helvetica,sans-Serif" font-size="10.00"> +next</text>
</g>
<!-- Node5 -->
<g id="node5" class="node">
<title>Node5</title>
<g id="a_node5"><a xlink:href="struct_hash_table.html" target="_top" xlink:title=" ">
<polygon fill="white" stroke="#666666" points="160.96,-263.12 160.96,-332.12 223.46,-332.12 223.46,-263.12 160.96,-263.12"/>
<text text-anchor="middle" x="192.21" y="-318.62" font-family="Helvetica,sans-Serif" font-size="10.00">HashTable</text>
<polyline fill="none" stroke="#666666" points="160.96,-312.88 223.46,-312.88"/>
<text text-anchor="start" x="168.96" y="-299.38" font-family="Helvetica,sans-Serif" font-size="10.00">+ capacity</text>
<text text-anchor="start" x="168.96" y="-288.12" font-family="Helvetica,sans-Serif" font-size="10.00">+ length</text>
<polyline fill="none" stroke="#666666" points="160.96,-282.38 223.46,-282.38"/>
<text text-anchor="middle" x="192.21" y="-268.88" font-family="Helvetica,sans-Serif" font-size="10.00"> </text>
</a>
</g>
</g>
<!-- Node5&#45;&gt;Node4 -->
<g id="edge7" class="edge">
<title>Node5&#45;&gt;Node4</title>
<path fill="none" stroke="#404040" d="M192.21,-263.28C192.21,-244.04 192.21,-219.7 192.21,-199.37"/>
<polygon fill="none" stroke="#404040" points="192.21,-199.26 188.21,-193.26 192.21,-187.26 196.21,-193.26 192.21,-199.26"/>
<text text-anchor="middle" x="220.33" y="-207" font-family="Helvetica,sans-Serif" font-size="10.00"> +hash_table</text>
</g>
<!-- Node6 -->
<g id="node6" class="node">
<title>Node6</title>
<g id="a_node6"><a xlink:href="struct_table_entry.html" target="_top" xlink:title=" ">
<polygon fill="white" stroke="#666666" points="160.96,-408.5 160.96,-500 223.46,-500 223.46,-408.5 160.96,-408.5"/>
<text text-anchor="middle" x="192.21" y="-486.5" font-family="Helvetica,sans-Serif" font-size="10.00">TableEntry</text>
<polyline fill="none" stroke="#666666" points="160.96,-480.75 223.46,-480.75"/>
<text text-anchor="start" x="168.96" y="-467.25" font-family="Helvetica,sans-Serif" font-size="10.00">+ key</text>
<text text-anchor="start" x="168.96" y="-456" font-family="Helvetica,sans-Serif" font-size="10.00">+ value</text>
<text text-anchor="start" x="168.96" y="-444.75" font-family="Helvetica,sans-Serif" font-size="10.00">+ hash</text>
<text text-anchor="start" x="168.96" y="-433.5" font-family="Helvetica,sans-Serif" font-size="10.00">+ psl</text>
<polyline fill="none" stroke="#666666" points="160.96,-427.75 223.46,-427.75"/>
<text text-anchor="middle" x="192.21" y="-414.25" font-family="Helvetica,sans-Serif" font-size="10.00"> </text>
</a>
</g>
</g>
<!-- Node6&#45;&gt;Node5 -->
<g id="edge8" class="edge">
<title>Node6&#45;&gt;Node5</title>
<path fill="none" stroke="#404040" d="M192.21,-408.53C192.21,-388.57 192.21,-365.08 192.21,-344.94"/>
<polygon fill="none" stroke="#404040" points="192.21,-344.85 188.21,-338.85 192.21,-332.85 196.21,-338.85 192.21,-344.85"/>
<text text-anchor="middle" x="211.33" y="-380.5" font-family="Helvetica,sans-Serif" font-size="10.00"> +entries</text>
</g>
</g>
</svg>
