<?xml version="1.0" encoding="UTF-8" standalone="no"?>
<!DOCTYPE svg PUBLIC "-//W3C//DTD SVG 1.1//EN"
 "http://www.w3.org/Graphics/SVG/1.1/DTD/svg11.dtd">
<!-- Generated by graphviz version 8.0.5 (20230430.1635)
 -->
<!-- Title: HashTable Pages: 1 -->
<svg width="78pt" height="218pt"
 viewBox="0.00 0.00 77.50 217.75" xmlns="http://www.w3.org/2000/svg" xmlns:xlink="http://www.w3.org/1999/xlink">
<g id="graph0" class="graph" transform="scale(1 1) rotate(0) translate(4 213.75)">
<title>HashTable</title>
<!-- Node1 -->
<g id="node1" class="node">
<title>Node1</title>
<g id="a_node1"><a xlink:title=" ">
<polygon fill="#999999" stroke="#666666" points="0,-0.5 0,-69.5 62.5,-69.5 62.5,-0.5 0,-0.5"/>
<text text-anchor="middle" x="31.25" y="-56" font-family="Helvetica,sans-Serif" font-size="10.00">HashTable</text>
<polyline fill="none" stroke="#666666" points="0,-50.25 62.5,-50.25"/>
<text text-anchor="start" x="8" y="-36.75" font-family="Helvetica,sans-Serif" font-size="10.00">+ capacity</text>
<text text-anchor="start" x="8" y="-25.5" font-family="Helvetica,sans-Serif" font-size="10.00">+ length</text>
<polyline fill="none" stroke="#666666" points="0,-19.75 62.5,-19.75"/>
<text text-anchor="middle" x="31.25" y="-6.25" font-family="Helvetica,sans-Serif" font-size="10.00"> </text>
</a>
</g>
</g>
<!-- Node2 -->
<g id="node2" class="node">
<title>Node2</title>
<g id="a_node2"><a xlink:href="struct_table_entry.html" target="_top" xlink:title=" ">
<polygon fill="white" stroke="#666666" points="0,-117.75 0,-209.25 62.5,-209.25 62.5,-117.75 0,-117.75"/>
<text text-anchor="middle" x="31.25" y="-195.75" font-family="Helvetica,sans-Serif" font-size="10.00">TableEntry</text>
<polyline fill="none" stroke="#666666" points="0,-190 62.5,-190"/>
<text text-anchor="start" x="8" y="-176.5" font-family="Helvetica,sans-Serif" font-size="10.00">+ key</text>
<text text-anchor="start" x="8" y="-165.25" font-family="Helvetica,sans-Serif" font-size="10.00">+ value</text>
<text text-anchor="start" x="8" y="-154" font-family="Helvetica,sans-Serif" font-size="10.00">+ hash</text>
<text text-anchor="start" x="8" y="-142.75" font-family="Helvetica,sans-Serif" font-size="10.00">+ psl</text>
<polyline fill="none" stroke="#666666" points="0,-137 62.5,-137"/>
<text text-anchor="middle" x="31.25" y="-123.5" font-family="Helvetica,sans-Serif" font-size="10.00"> </text>
</a>
</g>
</g>
<!-- Node2&#45;&gt;Node1 -->
<g id="edge1" class="edge">
<title>Node2&#45;&gt;Node1</title>
<path fill="none" stroke="#404040" d="M31.25,-117.9C31.25,-106.32 31.25,-93.83 31.25,-82.18"/>
<polygon fill="none" stroke="#404040" points="31.25,-82.37 27.25,-76.37 31.25,-70.37 35.25,-76.37 31.25,-82.37"/>
<text text-anchor="middle" x="50.38" y="-89.75" font-family="Helvetica,sans-Serif" font-size="10.00"> +entries</text>
</g>
</g>
</svg>
