<?xml version="1.0" encoding="UTF-8" standalone="no"?>
<!DOCTYPE svg PUBLIC "-//W3C//DTD SVG 1.1//EN"
 "http://www.w3.org/Graphics/SVG/1.1/DTD/svg11.dtd">
<!-- Generated by graphviz version 8.0.5 (20230430.1635)
 -->
<!-- Title: Args Pages: 1 -->
<svg width="134pt" height="240pt"
 viewBox="0.00 0.00 134.09 240.25" xmlns="http://www.w3.org/2000/svg" xmlns:xlink="http://www.w3.org/1999/xlink">
<g id="graph0" class="graph" transform="scale(1 1) rotate(0) translate(4 236.25)">
<title>Args</title>
<!-- Node1 -->
<g id="node1" class="node">
<title>Node1</title>
<g id="a_node1"><a xlink:title=" ">
<polygon fill="#999999" stroke="#666666" points="5.47,-174 5.47,-231.75 54.47,-231.75 54.47,-174 5.47,-174"/>
<text text-anchor="middle" x="29.97" y="-218.25" font-family="Helvetica,sans-Serif" font-size="10.00">Args</text>
<polyline fill="none" stroke="#666666" points="5.47,-212.5 54.47,-212.5"/>
<text text-anchor="start" x="13.47" y="-199" font-family="Helvetica,sans-Serif" font-size="10.00">+ name</text>
<polyline fill="none" stroke="#666666" points="5.47,-193.25 54.47,-193.25"/>
<text text-anchor="middle" x="29.97" y="-179.75" font-family="Helvetica,sans-Serif" font-size="10.00"> </text>
</a>
</g>
</g>
<!-- Node1&#45;&gt;Node1 -->
<g id="edge4" class="edge">
<title>Node1&#45;&gt;Node1</title>
<path fill="none" stroke="#404040" d="M54.43,-212.75C64.24,-213.31 72.47,-210.02 72.47,-202.88 72.47,-199.3 70.41,-196.69 67.13,-195.05"/>
<polygon fill="none" stroke="#404040" points="67.16,-195.05 60.6,-198.05 55.32,-193.14 61.88,-190.15 67.16,-195.05"/>
<text text-anchor="middle" x="86.34" y="-199" font-family="Helvetica,sans-Serif" font-size="10.00"> +next</text>
</g>
<!-- Node2 -->
<g id="node2" class="node">
<title>Node2</title>
<g id="a_node2"><a xlink:href="struct_type.html" target="_top" xlink:title=" ">
<polygon fill="white" stroke="#666666" points="6.59,-0.5 6.59,-125.75 53.34,-125.75 53.34,-0.5 6.59,-0.5"/>
<text text-anchor="middle" x="29.97" y="-112.25" font-family="Helvetica,sans-Serif" font-size="10.00">Type</text>
<polyline fill="none" stroke="#666666" points="6.59,-106.5 53.34,-106.5"/>
<text text-anchor="start" x="14.59" y="-93" font-family="Helvetica,sans-Serif" font-size="10.00">+ tag</text>
<text text-anchor="start" x="14.59" y="-81.75" font-family="Helvetica,sans-Serif" font-size="10.00">+ base</text>
<text text-anchor="start" x="14.59" y="-70.5" font-family="Helvetica,sans-Serif" font-size="10.00">+ fun</text>
<text text-anchor="start" x="14.59" y="-59.25" font-family="Helvetica,sans-Serif" font-size="10.00">+ size</text>
<text text-anchor="start" x="14.59" y="-48" font-family="Helvetica,sans-Serif" font-size="10.00">+ array</text>
<text text-anchor="start" x="14.59" y="-36.75" font-family="Helvetica,sans-Serif" font-size="10.00">+ ptr</text>
<text text-anchor="start" x="14.59" y="-25.5" font-family="Helvetica,sans-Serif" font-size="10.00">+ op</text>
<polyline fill="none" stroke="#666666" points="6.59,-19.75 53.34,-19.75"/>
<text text-anchor="middle" x="29.97" y="-6.25" font-family="Helvetica,sans-Serif" font-size="10.00"> </text>
</a>
</g>
</g>
<!-- Node1&#45;&gt;Node2 -->
<g id="edge3" class="edge">
<title>Node1&#45;&gt;Node2</title>
<path fill="none" stroke="#404040" d="M10.08,-174.03C6.84,-168.17 3.97,-161.83 2.22,-155.5 -1.06,-143.64 -0.1,-130.98 2.91,-118.97"/>
<polygon fill="none" stroke="#404040" points="2.87,-119.08 0.83,-112.17 6.43,-107.62 8.47,-114.54 2.87,-119.08"/>
<text text-anchor="middle" x="16.84" y="-146" font-family="Helvetica,sans-Serif" font-size="10.00"> +args</text>
</g>
<!-- Node2&#45;&gt;Node1 -->
<g id="edge1" class="edge">
<title>Node2&#45;&gt;Node1</title>
<path fill="none" stroke="#404040" d="M34.12,-125.56C34.38,-135.57 34.39,-145.82 33.97,-155.5 33.88,-157.51 33.77,-159.57 33.65,-161.66"/>
<polygon fill="none" stroke="#404040" points="33.66,-161.57 37.22,-167.84 32.79,-173.54 29.24,-167.26 33.66,-161.57"/>
<text text-anchor="middle" x="47.84" y="-146" font-family="Helvetica,sans-Serif" font-size="10.00"> +type</text>
</g>
<!-- Node2&#45;&gt;Node2 -->
<g id="edge2" class="edge">
<title>Node2&#45;&gt;Node2</title>
<path fill="none" stroke="#404040" d="M52.95,-79.2C62.86,-80.51 71.34,-75.15 71.34,-63.12 71.34,-56.92 69.09,-52.49 65.54,-49.84"/>
<polygon fill="none" stroke="#404040" points="65.54,-49.84 58.82,-52.45 53.83,-47.25 60.55,-44.64 65.54,-49.84"/>
<text text-anchor="middle" x="98.72" y="-70.5" font-family="Helvetica,sans-Serif" font-size="10.00"> +elem_type</text>
<text text-anchor="middle" x="98.72" y="-59.25" font-family="Helvetica,sans-Serif" font-size="10.00">+return_type</text>
<text text-anchor="middle" x="98.72" y="-48" font-family="Helvetica,sans-Serif" font-size="10.00">+val_type</text>
</g>
</g>
</svg>
