<?xml version="1.0" encoding="UTF-8" standalone="no"?>
<!DOCTYPE svg PUBLIC "-//W3C//DTD SVG 1.1//EN"
 "http://www.w3.org/Graphics/SVG/1.1/DTD/svg11.dtd">
<!-- Generated by graphviz version 8.0.5 (20230430.1635)
 -->
<!-- Title: VarSymbol Pages: 1 -->
<svg width="207pt" height="252pt"
 viewBox="0.00 0.00 206.88 251.50" xmlns="http://www.w3.org/2000/svg" xmlns:xlink="http://www.w3.org/1999/xlink">
<g id="graph0" class="graph" transform="scale(1 1) rotate(0) translate(4 247.5)">
<title>VarSymbol</title>
<!-- Node1 -->
<g id="node1" class="node">
<title>Node1</title>
<g id="a_node1"><a xlink:title=" ">
<polygon fill="#999999" stroke="#666666" points="0,-0.5 0,-69.5 75.25,-69.5 75.25,-0.5 0,-0.5"/>
<text text-anchor="middle" x="37.62" y="-56" font-family="Helvetica,sans-Serif" font-size="10.00">VarSymbol</text>
<polyline fill="none" stroke="#666666" points="0,-50.25 75.25,-50.25"/>
<text text-anchor="start" x="8" y="-36.75" font-family="Helvetica,sans-Serif" font-size="10.00">+ name</text>
<text text-anchor="start" x="8" y="-25.5" font-family="Helvetica,sans-Serif" font-size="10.00">+ declared_at</text>
<polyline fill="none" stroke="#666666" points="0,-19.75 75.25,-19.75"/>
<text text-anchor="middle" x="37.62" y="-6.25" font-family="Helvetica,sans-Serif" font-size="10.00"> </text>
</a>
</g>
</g>
<!-- Node2 -->
<g id="node2" class="node">
<title>Node2</title>
<g id="a_node2"><a xlink:href="struct_type.html" target="_top" xlink:title=" ">
<polygon fill="white" stroke="#666666" points="65.25,-117.75 65.25,-243 112,-243 112,-117.75 65.25,-117.75"/>
<text text-anchor="middle" x="88.62" y="-229.5" font-family="Helvetica,sans-Serif" font-size="10.00">Type</text>
<polyline fill="none" stroke="#666666" points="65.25,-223.75 112,-223.75"/>
<text text-anchor="start" x="73.25" y="-210.25" font-family="Helvetica,sans-Serif" font-size="10.00">+ tag</text>
<text text-anchor="start" x="73.25" y="-199" font-family="Helvetica,sans-Serif" font-size="10.00">+ base</text>
<text text-anchor="start" x="73.25" y="-187.75" font-family="Helvetica,sans-Serif" font-size="10.00">+ fun</text>
<text text-anchor="start" x="73.25" y="-176.5" font-family="Helvetica,sans-Serif" font-size="10.00">+ size</text>
<text text-anchor="start" x="73.25" y="-165.25" font-family="Helvetica,sans-Serif" font-size="10.00">+ array</text>
<text text-anchor="start" x="73.25" y="-154" font-family="Helvetica,sans-Serif" font-size="10.00">+ ptr</text>
<text text-anchor="start" x="73.25" y="-142.75" font-family="Helvetica,sans-Serif" font-size="10.00">+ op</text>
<polyline fill="none" stroke="#666666" points="65.25,-137 112,-137"/>
<text text-anchor="middle" x="88.62" y="-123.5" font-family="Helvetica,sans-Serif" font-size="10.00"> </text>
</a>
</g>
</g>
<!-- Node2&#45;&gt;Node1 -->
<g id="edge1" class="edge">
<title>Node2&#45;&gt;Node1</title>
<path fill="none" stroke="#404040" d="M65.38,-133.01C60.47,-122.11 55.65,-110.41 51.88,-99.25 49.95,-93.55 48.21,-87.48 46.66,-81.43"/>
<polygon fill="none" stroke="#404040" points="46.73,-81.74 41.45,-76.83 43.95,-70.06 49.23,-74.97 46.73,-81.74"/>
<text text-anchor="middle" x="66.5" y="-89.75" font-family="Helvetica,sans-Serif" font-size="10.00"> +type</text>
</g>
<!-- Node2&#45;&gt;Node2 -->
<g id="edge2" class="edge">
<title>Node2&#45;&gt;Node2</title>
<path fill="none" stroke="#404040" d="M111.6,-196.45C121.51,-197.76 130,-192.4 130,-180.38 130,-174.17 127.74,-169.74 124.2,-167.09"/>
<polygon fill="none" stroke="#404040" points="124.2,-167.09 117.48,-169.7 112.48,-164.5 119.2,-161.89 124.2,-167.09"/>
<text text-anchor="middle" x="157.38" y="-187.75" font-family="Helvetica,sans-Serif" font-size="10.00"> +elem_type</text>
<text text-anchor="middle" x="157.38" y="-176.5" font-family="Helvetica,sans-Serif" font-size="10.00">+return_type</text>
<text text-anchor="middle" x="157.38" y="-165.25" font-family="Helvetica,sans-Serif" font-size="10.00">+val_type</text>
</g>
<!-- Node3 -->
<g id="node3" class="node">
<title>Node3</title>
<g id="a_node3"><a xlink:href="struct_args.html" target="_top" xlink:title=" ">
<polygon fill="white" stroke="#666666" points="104.12,-6.12 104.12,-63.88 153.12,-63.88 153.12,-6.12 104.12,-6.12"/>
<text text-anchor="middle" x="128.62" y="-50.38" font-family="Helvetica,sans-Serif" font-size="10.00">Args</text>
<polyline fill="none" stroke="#666666" points="104.12,-44.62 153.12,-44.62"/>
<text text-anchor="start" x="112.12" y="-31.12" font-family="Helvetica,sans-Serif" font-size="10.00">+ name</text>
<polyline fill="none" stroke="#666666" points="104.12,-25.38 153.12,-25.38"/>
<text text-anchor="middle" x="128.62" y="-11.88" font-family="Helvetica,sans-Serif" font-size="10.00"> </text>
</a>
</g>
</g>
<!-- Node2&#45;&gt;Node3 -->
<g id="edge4" class="edge">
<title>Node2&#45;&gt;Node3</title>
<path fill="none" stroke="#404040" d="M80.54,-117.93C80.96,-107.73 82.5,-97.41 85.88,-88 88.29,-81.26 92,-74.77 96.24,-68.79"/>
<polygon fill="none" stroke="#404040" points="96.27,-68.76 96.86,-61.57 103.73,-59.36 103.13,-66.54 96.27,-68.76"/>
<text text-anchor="middle" x="100.5" y="-89.75" font-family="Helvetica,sans-Serif" font-size="10.00"> +type</text>
</g>
<!-- Node3&#45;&gt;Node2 -->
<g id="edge3" class="edge">
<title>Node3&#45;&gt;Node2</title>
<path fill="none" stroke="#404040" d="M124.9,-63.62C123.11,-74.78 120.69,-87.72 117.62,-99.25 117.02,-101.51 116.39,-103.8 115.72,-106.1"/>
<polygon fill="none" stroke="#404040" points="115.71,-106.15 117.76,-113.06 112.18,-117.62 110.12,-110.71 115.71,-106.15"/>
<text text-anchor="middle" x="133.5" y="-89.75" font-family="Helvetica,sans-Serif" font-size="10.00"> +args</text>
</g>
<!-- Node3&#45;&gt;Node3 -->
<g id="edge5" class="edge">
<title>Node3&#45;&gt;Node3</title>
<path fill="none" stroke="#404040" d="M153.08,-45.93C162.89,-46.54 171.12,-42.9 171.12,-35 171.12,-31.05 169.07,-28.16 165.78,-26.34"/>
<polygon fill="none" stroke="#404040" points="165.78,-26.34 159.17,-29.23 153.97,-24.23 160.58,-21.35 165.78,-26.34"/>
<text text-anchor="middle" x="185" y="-31.12" font-family="Helvetica,sans-Serif" font-size="10.00"> +next</text>
</g>
</g>
</svg>
