<?xml version="1.0" encoding="UTF-8" standalone="no"?>
<!DOCTYPE svg PUBLIC "-//W3C//DTD SVG 1.1//EN"
 "http://www.w3.org/Graphics/SVG/1.1/DTD/svg11.dtd">
<!-- Generated by graphviz version 8.0.5 (20230430.1635)
 -->
<!-- Title: symbol_table.c Pages: 1 -->
<svg width="184pt" height="193pt"
 viewBox="0.00 0.00 183.88 193.00" xmlns="http://www.w3.org/2000/svg" xmlns:xlink="http://www.w3.org/1999/xlink">
<g id="graph0" class="graph" transform="scale(1 1) rotate(0) translate(4 189)">
<title>symbol_table.c</title>
<!-- Node1 -->
<g id="node1" class="node">
<title>Node1</title>
<g id="a_node1"><a xlink:title=" ">
<polygon fill="#999999" stroke="#666666" points="110.75,-185 28.75,-185 28.75,-165.75 110.75,-165.75 110.75,-185"/>
<text text-anchor="middle" x="69.75" y="-171.5" font-family="Helvetica,sans-Serif" font-size="10.00">symbol_table.c</text>
</a>
</g>
</g>
<!-- Node2 -->
<g id="node2" class="node">
<title>Node2</title>
<g id="a_node2"><a xlink:href="hash__table_8h.html" target="_top" xlink:title=" ">
<polygon fill="white" stroke="#666666" points="71.5,-74.5 0,-74.5 0,-55.25 71.5,-55.25 71.5,-74.5"/>
<text text-anchor="middle" x="35.75" y="-61" font-family="Helvetica,sans-Serif" font-size="10.00">hash_table.h</text>
</a>
</g>
</g>
<!-- Node1&#45;&gt;Node2 -->
<g id="edge1" class="edge">
<title>Node1&#45;&gt;Node2</title>
<path fill="none" stroke="#63b8ff" d="M66.67,-165.51C63.57,-156.53 58.7,-142.22 54.75,-129.75 49.99,-114.72 44.91,-97.59 41.21,-84.86"/>
<polygon fill="#63b8ff" stroke="#63b8ff" points="44.38,-84.22 38.24,-75.58 37.65,-86.16 44.38,-84.22"/>
</g>
<!-- Node5 -->
<g id="node5" class="node">
<title>Node5</title>
<g id="a_node5"><a xlink:href="symbol__table_8h.html" target="_top" xlink:title=" ">
<polygon fill="white" stroke="#666666" points="145.75,-129.75 63.75,-129.75 63.75,-110.5 145.75,-110.5 145.75,-129.75"/>
<text text-anchor="middle" x="104.75" y="-116.25" font-family="Helvetica,sans-Serif" font-size="10.00">symbol_table.h</text>
</a>
</g>
</g>
<!-- Node1&#45;&gt;Node5 -->
<g id="edge4" class="edge">
<title>Node1&#45;&gt;Node5</title>
<path fill="none" stroke="#63b8ff" d="M75.53,-165.58C80.21,-158.46 86.97,-148.18 92.81,-139.3"/>
<polygon fill="#63b8ff" stroke="#63b8ff" points="96.28,-141.39 98.84,-131.11 90.43,-137.54 96.28,-141.39"/>
</g>
<!-- Node3 -->
<g id="node3" class="node">
<title>Node3</title>
<g id="a_node3"><a xlink:title=" ">
<polygon fill="#e0e0e0" stroke="#999999" points="162.88,-19.25 114.62,-19.25 114.62,0 162.88,0 162.88,-19.25"/>
<text text-anchor="middle" x="138.75" y="-5.75" font-family="Helvetica,sans-Serif" font-size="10.00">stdint.h</text>
</a>
</g>
</g>
<!-- Node2&#45;&gt;Node3 -->
<g id="edge2" class="edge">
<title>Node2&#45;&gt;Node3</title>
<path fill="none" stroke="#63b8ff" d="M53.22,-54.84C69.2,-46.58 93.1,-34.23 111.57,-24.68"/>
<polygon fill="#63b8ff" stroke="#63b8ff" points="112.92,-27.4 120.19,-19.7 109.7,-21.19 112.92,-27.4"/>
</g>
<!-- Node4 -->
<g id="node4" class="node">
<title>Node4</title>
<g id="a_node4"><a xlink:title=" ">
<polygon fill="#e0e0e0" stroke="#999999" points="84.5,-19.25 37,-19.25 37,0 84.5,0 84.5,-19.25"/>
<text text-anchor="middle" x="60.75" y="-5.75" font-family="Helvetica,sans-Serif" font-size="10.00">stdlib.h</text>
</a>
</g>
</g>
<!-- Node2&#45;&gt;Node4 -->
<g id="edge3" class="edge">
<title>Node2&#45;&gt;Node4</title>
<path fill="none" stroke="#63b8ff" d="M39.88,-55.08C43.15,-48.11 47.84,-38.12 51.95,-29.37"/>
<polygon fill="#63b8ff" stroke="#63b8ff" points="55.45,-31.15 56.53,-20.61 49.11,-28.17 55.45,-31.15"/>
</g>
<!-- Node5&#45;&gt;Node2 -->
<g id="edge9" class="edge">
<title>Node5&#45;&gt;Node2</title>
<path fill="none" stroke="#63b8ff" d="M93.05,-110.09C82.87,-102.24 67.92,-90.7 55.83,-81.37"/>
<polygon fill="#63b8ff" stroke="#63b8ff" points="58.34,-78.11 48.28,-74.77 54.06,-83.66 58.34,-78.11"/>
</g>
<!-- Node5&#45;&gt;Node4 -->
<g id="edge5" class="edge">
<title>Node5&#45;&gt;Node4</title>
<path fill="none" stroke="#63b8ff" d="M101.66,-110.38C97.24,-98.01 88.77,-74.75 80.75,-55.25 77.2,-46.61 73,-37.16 69.38,-29.19"/>
<polygon fill="#63b8ff" stroke="#63b8ff" points="72.26,-28.07 64.9,-20.45 65.9,-30.99 72.26,-28.07"/>
</g>
<!-- Node6 -->
<g id="node6" class="node">
<title>Node6</title>
<g id="a_node6"><a xlink:href="types_8h.html" target="_top" xlink:title=" ">
<polygon fill="white" stroke="#666666" points="175.88,-74.5 127.62,-74.5 127.62,-55.25 175.88,-55.25 175.88,-74.5"/>
<text text-anchor="middle" x="151.75" y="-61" font-family="Helvetica,sans-Serif" font-size="10.00">types.h</text>
</a>
</g>
</g>
<!-- Node5&#45;&gt;Node6 -->
<g id="edge6" class="edge">
<title>Node5&#45;&gt;Node6</title>
<path fill="none" stroke="#63b8ff" d="M107.34,-110.33C112.42,-102.75 121.89,-91.59 130.92,-82.35"/>
<polygon fill="#63b8ff" stroke="#63b8ff" points="132.89,-85.34 137.61,-75.86 128.01,-80.32 132.89,-85.34"/>
</g>
<!-- Node6&#45;&gt;Node3 -->
<g id="edge7" class="edge">
<title>Node6&#45;&gt;Node3</title>
<path fill="none" stroke="#63b8ff" d="M149.6,-55.08C147.96,-48.34 145.62,-38.77 143.54,-30.24"/>
<polygon fill="#63b8ff" stroke="#63b8ff" points="146.72,-29.49 140.94,-20.61 139.91,-31.15 146.72,-29.49"/>
</g>
<!-- Node6&#45;&gt;Node5 -->
<g id="edge8" class="edge">
<title>Node6&#45;&gt;Node5</title>
<path fill="none" stroke="#63b8ff" d="M149.08,-74.77C144,-82.35 134.58,-93.44 125.6,-102.64"/>
<polygon fill="#63b8ff" stroke="#63b8ff" points="123.66,-99.61 118.94,-109.09 128.55,-104.62 123.66,-99.61"/>
</g>
</g>
</svg>
