<?xml version="1.0" encoding="UTF-8" standalone="no"?>
<!DOCTYPE svg PUBLIC "-//W3C//DTD SVG 1.1//EN"
 "http://www.w3.org/Graphics/SVG/1.1/DTD/svg11.dtd">
<!-- Generated by graphviz version 8.0.5 (20230430.1635)
 -->
<!-- Title: symbol_table.h Pages: 1 -->
<svg width="166pt" height="138pt"
 viewBox="0.00 0.00 165.88 137.75" xmlns="http://www.w3.org/2000/svg" xmlns:xlink="http://www.w3.org/1999/xlink">
<g id="graph0" class="graph" transform="scale(1 1) rotate(0) translate(4 133.75)">
<title>symbol_table.h</title>
<!-- Node1 -->
<g id="node1" class="node">
<title>Node1</title>
<g id="a_node1"><a xlink:title=" ">
<polygon fill="#999999" stroke="#666666" points="135.75,-129.75 53.75,-129.75 53.75,-110.5 135.75,-110.5 135.75,-129.75"/>
<text text-anchor="middle" x="94.75" y="-116.25" font-family="Helvetica,sans-Serif" font-size="10.00">symbol_table.h</text>
</a>
</g>
</g>
<!-- Node2 -->
<g id="node2" class="node">
<title>Node2</title>
<g id="a_node2"><a xlink:title=" ">
<polygon fill="#e0e0e0" stroke="#999999" points="47.5,-19.25 0,-19.25 0,0 47.5,0 47.5,-19.25"/>
<text text-anchor="middle" x="23.75" y="-5.75" font-family="Helvetica,sans-Serif" font-size="10.00">stdlib.h</text>
</a>
</g>
</g>
<!-- Node1&#45;&gt;Node2 -->
<g id="edge1" class="edge">
<title>Node1&#45;&gt;Node2</title>
<path fill="none" stroke="#63b8ff" d="M60.06,-110.09C41.99,-103.42 21.47,-92.33 10.75,-74.5 2.47,-60.72 7.38,-42.57 13.39,-29.14"/>
<polygon fill="#63b8ff" stroke="#63b8ff" points="16.85,-31.06 18.22,-20.56 10.59,-27.91 16.85,-31.06"/>
</g>
<!-- Node3 -->
<g id="node3" class="node">
<title>Node3</title>
<g id="a_node3"><a xlink:href="types_8h.html" target="_top" xlink:title=" ">
<polygon fill="white" stroke="#666666" points="157.88,-74.5 109.62,-74.5 109.62,-55.25 157.88,-55.25 157.88,-74.5"/>
<text text-anchor="middle" x="133.75" y="-61" font-family="Helvetica,sans-Serif" font-size="10.00">types.h</text>
</a>
</g>
</g>
<!-- Node1&#45;&gt;Node3 -->
<g id="edge2" class="edge">
<title>Node1&#45;&gt;Node3</title>
<path fill="none" stroke="#63b8ff" d="M96.02,-110.33C99.88,-102.9 107.44,-92.04 114.93,-82.91"/>
<polygon fill="#63b8ff" stroke="#63b8ff" points="118.02,-85.69 121.96,-75.86 112.75,-81.09 118.02,-85.69"/>
</g>
<!-- Node5 -->
<g id="node5" class="node">
<title>Node5</title>
<g id="a_node5"><a xlink:href="hash__table_8h.html" target="_top" xlink:title=" ">
<polygon fill="white" stroke="#666666" points="91.5,-74.5 20,-74.5 20,-55.25 91.5,-55.25 91.5,-74.5"/>
<text text-anchor="middle" x="55.75" y="-61" font-family="Helvetica,sans-Serif" font-size="10.00">hash_table.h</text>
</a>
</g>
</g>
<!-- Node1&#45;&gt;Node5 -->
<g id="edge5" class="edge">
<title>Node1&#45;&gt;Node5</title>
<path fill="none" stroke="#63b8ff" d="M88.31,-110.33C82.98,-103.05 75.24,-92.48 68.64,-83.48"/>
<polygon fill="#63b8ff" stroke="#63b8ff" points="71.06,-81.86 62.33,-75.86 65.42,-85.99 71.06,-81.86"/>
</g>
<!-- Node3&#45;&gt;Node1 -->
<g id="edge4" class="edge">
<title>Node3&#45;&gt;Node1</title>
<path fill="none" stroke="#63b8ff" d="M132.38,-74.86C128.46,-82.35 120.87,-93.23 113.38,-102.32"/>
<polygon fill="#63b8ff" stroke="#63b8ff" points="110.32,-99.51 106.36,-109.33 115.58,-104.12 110.32,-99.51"/>
</g>
<!-- Node4 -->
<g id="node4" class="node">
<title>Node4</title>
<g id="a_node4"><a xlink:title=" ">
<polygon fill="#e0e0e0" stroke="#999999" points="135.88,-19.25 87.62,-19.25 87.62,0 135.88,0 135.88,-19.25"/>
<text text-anchor="middle" x="111.75" y="-5.75" font-family="Helvetica,sans-Serif" font-size="10.00">stdint.h</text>
</a>
</g>
</g>
<!-- Node3&#45;&gt;Node4 -->
<g id="edge3" class="edge">
<title>Node3&#45;&gt;Node4</title>
<path fill="none" stroke="#63b8ff" d="M130.12,-55.08C127.27,-48.19 123.2,-38.34 119.61,-29.66"/>
<polygon fill="#63b8ff" stroke="#63b8ff" points="122.52,-28.52 115.46,-20.61 116.05,-31.19 122.52,-28.52"/>
</g>
<!-- Node5&#45;&gt;Node2 -->
<g id="edge7" class="edge">
<title>Node5&#45;&gt;Node2</title>
<path fill="none" stroke="#63b8ff" d="M50.47,-55.08C46.18,-47.96 40.01,-37.68 34.67,-28.8"/>
<polygon fill="#63b8ff" stroke="#63b8ff" points="37.3,-27.38 29.15,-20.61 31.3,-30.98 37.3,-27.38"/>
</g>
<!-- Node5&#45;&gt;Node4 -->
<g id="edge6" class="edge">
<title>Node5&#45;&gt;Node4</title>
<path fill="none" stroke="#63b8ff" d="M65.25,-54.84C73.26,-47.22 84.93,-36.12 94.58,-26.95"/>
<polygon fill="#63b8ff" stroke="#63b8ff" points="96.56,-29.95 101.39,-20.52 91.73,-24.88 96.56,-29.95"/>
</g>
</g>
</svg>
