<?xml version="1.0" encoding="UTF-8" standalone="no"?>
<!DOCTYPE svg PUBLIC "-//W3C//DTD SVG 1.1//EN"
 "http://www.w3.org/Graphics/SVG/1.1/DTD/svg11.dtd">
<!-- Generated by graphviz version 8.0.5 (20230430.1635)
 -->
<!-- Title: symbol_table.h Pages: 1 -->
<svg width="526pt" height="193pt"
 viewBox="0.00 0.00 525.77 193.00" xmlns="http://www.w3.org/2000/svg" xmlns:xlink="http://www.w3.org/1999/xlink">
<g id="graph0" class="graph" transform="scale(1 1) rotate(0) translate(4 189)">
<title>symbol_table.h</title>
<!-- Node1 -->
<g id="node1" class="node">
<title>Node1</title>
<g id="a_node1"><a xlink:title=" ">
<polygon fill="#999999" stroke="#666666" points="271.15,-185 189.15,-185 189.15,-165.75 271.15,-165.75 271.15,-185"/>
<text text-anchor="middle" x="230.15" y="-171.5" font-family="Helvetica,sans-Serif" font-size="10.00">symbol_table.h</text>
</a>
</g>
</g>
<!-- Node2 -->
<g id="node2" class="node">
<title>Node2</title>
<g id="a_node2"><a xlink:href="handlers_8c.html" target="_top" xlink:title=" ">
<polygon fill="white" stroke="#666666" points="221.65,-74.5 160.65,-74.5 160.65,-55.25 221.65,-55.25 221.65,-74.5"/>
<text text-anchor="middle" x="191.15" y="-61" font-family="Helvetica,sans-Serif" font-size="10.00">handlers.c</text>
</a>
</g>
</g>
<!-- Node1&#45;&gt;Node2 -->
<g id="edge1" class="edge">
<title>Node1&#45;&gt;Node2</title>
<path fill="none" stroke="#63b8ff" d="M223.3,-155.33C214.82,-131.72 200.7,-92.46 194.38,-74.88"/>
<polygon fill="#63b8ff" stroke="#63b8ff" points="220.28,-156.27 226.96,-164.5 226.87,-153.9 220.28,-156.27"/>
</g>
<!-- Node3 -->
<g id="node3" class="node">
<title>Node3</title>
<g id="a_node3"><a xlink:href="handlers_8h.html" target="_top" xlink:title=" ">
<polygon fill="white" stroke="#666666" points="142.65,-74.5 81.65,-74.5 81.65,-55.25 142.65,-55.25 142.65,-74.5"/>
<text text-anchor="middle" x="112.15" y="-61" font-family="Helvetica,sans-Serif" font-size="10.00">handlers.h</text>
</a>
</g>
</g>
<!-- Node1&#45;&gt;Node3 -->
<g id="edge2" class="edge">
<title>Node1&#45;&gt;Node3</title>
<path fill="none" stroke="#63b8ff" d="M212.5,-158.14C187.29,-134.97 141.84,-93.18 121.94,-74.88"/>
<polygon fill="#63b8ff" stroke="#63b8ff" points="209.76,-160.3 219.49,-164.5 214.5,-155.15 209.76,-160.3"/>
</g>
<!-- Node4 -->
<g id="node4" class="node">
<title>Node4</title>
<g id="a_node4"><a xlink:href="symbol__table_8c.html" target="_top" xlink:title=" ">
<polygon fill="white" stroke="#666666" points="492.15,-129.75 410.15,-129.75 410.15,-110.5 492.15,-110.5 492.15,-129.75"/>
<text text-anchor="middle" x="451.15" y="-116.25" font-family="Helvetica,sans-Serif" font-size="10.00">symbol_table.c</text>
</a>
</g>
</g>
<!-- Node1&#45;&gt;Node4 -->
<g id="edge3" class="edge">
<title>Node1&#45;&gt;Node4</title>
<path fill="none" stroke="#63b8ff" d="M278.35,-162.76C318.97,-152.97 376.27,-139.17 413.56,-130.18"/>
<polygon fill="#63b8ff" stroke="#63b8ff" points="277.79,-159.54 268.89,-165.28 279.43,-166.34 277.79,-159.54"/>
</g>
<!-- Node5 -->
<g id="node5" class="node">
<title>Node5</title>
<g id="a_node5"><a xlink:href="syntax__tree_8c.html" target="_top" xlink:title=" ">
<polygon fill="white" stroke="#666666" points="517.77,-74.5 442.52,-74.5 442.52,-55.25 517.77,-55.25 517.77,-74.5"/>
<text text-anchor="middle" x="480.15" y="-61" font-family="Helvetica,sans-Serif" font-size="10.00">syntax_tree.c</text>
</a>
</g>
</g>
<!-- Node1&#45;&gt;Node5 -->
<g id="edge4" class="edge">
<title>Node1&#45;&gt;Node5</title>
<path fill="none" stroke="#63b8ff" d="M272.89,-162.13C299.33,-154.05 333.72,-142.6 363.15,-129.75 383.19,-121 437.41,-90.35 464.42,-74.91"/>
<polygon fill="#63b8ff" stroke="#63b8ff" points="272.02,-159.04 263.45,-165.28 274.04,-165.75 272.02,-159.04"/>
</g>
<!-- Node6 -->
<g id="node6" class="node">
<title>Node6</title>
<g id="a_node6"><a xlink:href="syntax__tree_8h.html" target="_top" xlink:title=" ">
<polygon fill="white" stroke="#666666" points="353.77,-129.75 278.52,-129.75 278.52,-110.5 353.77,-110.5 353.77,-129.75"/>
<text text-anchor="middle" x="316.15" y="-116.25" font-family="Helvetica,sans-Serif" font-size="10.00">syntax_tree.h</text>
</a>
</g>
</g>
<!-- Node1&#45;&gt;Node6 -->
<g id="edge5" class="edge">
<title>Node1&#45;&gt;Node6</title>
<path fill="none" stroke="#63b8ff" d="M254.05,-159.57C269.27,-150.15 288.49,-138.25 301.49,-130.2"/>
<polygon fill="#63b8ff" stroke="#63b8ff" points="252.4,-157.1 245.74,-165.34 256.08,-163.05 252.4,-157.1"/>
</g>
<!-- Node8 -->
<g id="node8" class="node">
<title>Node8</title>
<g id="a_node8"><a xlink:href="typecheck_8c.html" target="_top" xlink:title=" ">
<polygon fill="white" stroke="#666666" points="309.77,-19.25 240.52,-19.25 240.52,0 309.77,0 309.77,-19.25"/>
<text text-anchor="middle" x="275.15" y="-5.75" font-family="Helvetica,sans-Serif" font-size="10.00">typecheck.c</text>
</a>
</g>
</g>
<!-- Node1&#45;&gt;Node8 -->
<g id="edge14" class="edge">
<title>Node1&#45;&gt;Node8</title>
<path fill="none" stroke="#63b8ff" d="M235.43,-155.16C245.19,-119.65 265.68,-45.07 272.72,-19.47"/>
<polygon fill="#63b8ff" stroke="#63b8ff" points="231.84,-154 232.57,-164.57 238.59,-155.86 231.84,-154"/>
</g>
<!-- Node10 -->
<g id="node10" class="node">
<title>Node10</title>
<g id="a_node10"><a xlink:href="types_8h.html" target="_top" xlink:title=" ">
<polygon fill="white" stroke="#666666" points="138.27,-129.75 90.02,-129.75 90.02,-110.5 138.27,-110.5 138.27,-129.75"/>
<text text-anchor="middle" x="114.15" y="-116.25" font-family="Helvetica,sans-Serif" font-size="10.00">types.h</text>
</a>
</g>
</g>
<!-- Node1&#45;&gt;Node10 -->
<g id="edge15" class="edge">
<title>Node1&#45;&gt;Node10</title>
<path fill="none" stroke="#63b8ff" d="M195.14,-161.03C172.9,-151.41 145.39,-138.67 128.7,-130.2"/>
<polygon fill="#63b8ff" stroke="#63b8ff" points="193.68,-164.64 204.25,-165.34 196.43,-158.2 193.68,-164.64"/>
</g>
<!-- Node6&#45;&gt;Node2 -->
<g id="edge6" class="edge">
<title>Node6&#45;&gt;Node2</title>
<path fill="none" stroke="#63b8ff" d="M284.83,-105.78C262.23,-96.16 232.33,-83.42 212.46,-74.95"/>
<polygon fill="#63b8ff" stroke="#63b8ff" points="283.37,-109.39 293.94,-110.09 286.11,-102.95 283.37,-109.39"/>
</g>
<!-- Node6&#45;&gt;Node3 -->
<g id="edge7" class="edge">
<title>Node6&#45;&gt;Node3</title>
<path fill="none" stroke="#63b8ff" d="M271.03,-107.35C232.11,-97.19 176.94,-82.79 142.91,-73.91"/>
<polygon fill="#63b8ff" stroke="#63b8ff" points="269.98,-110.95 280.54,-110.09 271.75,-104.18 269.98,-110.95"/>
</g>
<!-- Node6&#45;&gt;Node5 -->
<g id="edge9" class="edge">
<title>Node6&#45;&gt;Node5</title>
<path fill="none" stroke="#63b8ff" d="M354.06,-106.82C384.02,-97.09 425.17,-83.73 452.19,-74.95"/>
<polygon fill="#63b8ff" stroke="#63b8ff" points="353.4,-103.67 344.97,-110.09 355.56,-110.33 353.4,-103.67"/>
</g>
<!-- Node7 -->
<g id="node7" class="node">
<title>Node7</title>
<g id="a_node7"><a xlink:href="main_8c.html" target="_top" xlink:title=" ">
<polygon fill="white" stroke="#666666" points="385.77,-19.25 340.52,-19.25 340.52,0 385.77,0 385.77,-19.25"/>
<text text-anchor="middle" x="363.15" y="-5.75" font-family="Helvetica,sans-Serif" font-size="10.00">main.c</text>
</a>
</g>
</g>
<!-- Node6&#45;&gt;Node7 -->
<g id="edge8" class="edge">
<title>Node6&#45;&gt;Node7</title>
<path fill="none" stroke="#63b8ff" d="M357.55,-105.74C372.07,-98.82 386.82,-88.76 395.15,-74.5 406.28,-55.43 386.46,-32 373.35,-19.49"/>
<polygon fill="#63b8ff" stroke="#63b8ff" points="356.41,-102.85 348.62,-110.03 359.19,-109.27 356.41,-102.85"/>
</g>
<!-- Node6&#45;&gt;Node8 -->
<g id="edge10" class="edge">
<title>Node6&#45;&gt;Node8</title>
<path fill="none" stroke="#63b8ff" d="M308.95,-100.08C300.03,-76.47 285.19,-37.21 278.55,-19.63"/>
<polygon fill="#63b8ff" stroke="#63b8ff" points="305.98,-101.13 312.79,-109.25 312.53,-98.65 305.98,-101.13"/>
</g>
<!-- Node9 -->
<g id="node9" class="node">
<title>Node9</title>
<g id="a_node9"><a xlink:href="typecheck_8h.html" target="_top" xlink:title=" ">
<polygon fill="white" stroke="#666666" points="385.77,-74.5 316.52,-74.5 316.52,-55.25 385.77,-55.25 385.77,-74.5"/>
<text text-anchor="middle" x="351.15" y="-61" font-family="Helvetica,sans-Serif" font-size="10.00">typecheck.h</text>
</a>
</g>
</g>
<!-- Node6&#45;&gt;Node9 -->
<g id="edge11" class="edge">
<title>Node6&#45;&gt;Node9</title>
<path fill="none" stroke="#63b8ff" d="M327.94,-101.19C333.76,-92.34 340.52,-82.04 345.24,-74.86"/>
<polygon fill="#63b8ff" stroke="#63b8ff" points="324.49,-99.05 321.93,-109.33 330.34,-102.9 324.49,-99.05"/>
</g>
<!-- Node9&#45;&gt;Node7 -->
<g id="edge12" class="edge">
<title>Node9&#45;&gt;Node7</title>
<path fill="none" stroke="#63b8ff" d="M355.51,-44.5C357.43,-35.99 359.59,-26.4 361.12,-19.61"/>
<polygon fill="#63b8ff" stroke="#63b8ff" points="351.91,-43.56 353.13,-54.08 358.74,-45.1 351.91,-43.56"/>
</g>
<!-- Node9&#45;&gt;Node8 -->
<g id="edge13" class="edge">
<title>Node9&#45;&gt;Node8</title>
<path fill="none" stroke="#63b8ff" d="M329.25,-48.53C315.93,-39.2 299.37,-27.6 288.1,-19.7"/>
<polygon fill="#63b8ff" stroke="#63b8ff" points="327.06,-51.97 337.25,-54.84 331.07,-46.24 327.06,-51.97"/>
</g>
<!-- Node10&#45;&gt;Node1 -->
<g id="edge18" class="edge">
<title>Node10&#45;&gt;Node1</title>
<path fill="none" stroke="#63b8ff" d="M148.56,-134.21C170.95,-143.88 198.86,-156.8 215.69,-165.34"/>
<polygon fill="#63b8ff" stroke="#63b8ff" points="150.3,-130.72 139.72,-130.02 147.55,-137.16 150.3,-130.72"/>
</g>
<!-- Node10&#45;&gt;Node2 -->
<g id="edge16" class="edge">
<title>Node10&#45;&gt;Node2</title>
<path fill="none" stroke="#63b8ff" d="M135.94,-104.05C149.5,-94.67 166.5,-82.92 178.02,-74.95"/>
<polygon fill="#63b8ff" stroke="#63b8ff" points="134.44,-101.53 128.21,-110.09 138.42,-107.28 134.44,-101.53"/>
</g>
<!-- Node10&#45;&gt;Node3 -->
<g id="edge17" class="edge">
<title>Node10&#45;&gt;Node3</title>
<path fill="none" stroke="#63b8ff" d="M113.41,-99.46C113.09,-91.02 112.74,-81.58 112.48,-74.86"/>
<polygon fill="#63b8ff" stroke="#63b8ff" points="109.94,-99.47 113.82,-109.33 116.94,-99.21 109.94,-99.47"/>
</g>
<!-- Node10&#45;&gt;Node8 -->
<g id="edge19" class="edge">
<title>Node10&#45;&gt;Node8</title>
<path fill="none" stroke="#63b8ff" d="M79.22,-112.27C39.14,-102.89 -18.11,-83.86 6.15,-55.25 35.76,-20.31 174.29,-12.7 240.17,-11.06"/>
<polygon fill="#63b8ff" stroke="#63b8ff" points="78.21,-115.86 88.73,-114.61 79.73,-109.02 78.21,-115.86"/>
</g>
<!-- Node11 -->
<g id="node11" class="node">
<title>Node11</title>
<g id="a_node11"><a xlink:href="types_8c.html" target="_top" xlink:title=" ">
<polygon fill="white" stroke="#666666" points="63.27,-74.5 15.02,-74.5 15.02,-55.25 63.27,-55.25 63.27,-74.5"/>
<text text-anchor="middle" x="39.15" y="-61" font-family="Helvetica,sans-Serif" font-size="10.00">types.c</text>
</a>
</g>
</g>
<!-- Node10&#45;&gt;Node11 -->
<g id="edge20" class="edge">
<title>Node10&#45;&gt;Node11</title>
<path fill="none" stroke="#63b8ff" d="M92.54,-103.78C79.39,-94.45 63.05,-82.85 51.93,-74.95"/>
<polygon fill="#63b8ff" stroke="#63b8ff" points="90.24,-107.16 100.42,-110.09 94.3,-101.45 90.24,-107.16"/>
</g>
</g>
</svg>
