<?xml version="1.0" encoding="UTF-8" standalone="no"?>
<!DOCTYPE svg PUBLIC "-//W3C//DTD SVG 1.1//EN"
 "http://www.w3.org/Graphics/SVG/1.1/DTD/svg11.dtd">
<!-- Generated by graphviz version 8.0.5 (20230430.1635)
 -->
<!-- Title: syntax_tree.c Pages: 1 -->
<svg width="208pt" height="248pt"
 viewBox="0.00 0.00 208.25 248.25" xmlns="http://www.w3.org/2000/svg" xmlns:xlink="http://www.w3.org/1999/xlink">
<g id="graph0" class="graph" transform="scale(1 1) rotate(0) translate(4 244.25)">
<title>syntax_tree.c</title>
<!-- Node1 -->
<g id="node1" class="node">
<title>Node1</title>
<g id="a_node1"><a xlink:title=" ">
<polygon fill="#999999" stroke="#666666" points="141.75,-240.25 66.5,-240.25 66.5,-221 141.75,-221 141.75,-240.25"/>
<text text-anchor="middle" x="104.12" y="-226.75" font-family="Helvetica,sans-Serif" font-size="10.00">syntax_tree.c</text>
</a>
</g>
</g>
<!-- Node2 -->
<g id="node2" class="node">
<title>Node2</title>
<g id="a_node2"><a xlink:title=" ">
<polygon fill="#e0e0e0" stroke="#999999" points="48.25,-185 0,-185 0,-165.75 48.25,-165.75 48.25,-185"/>
<text text-anchor="middle" x="24.12" y="-171.5" font-family="Helvetica,sans-Serif" font-size="10.00">string.h</text>
</a>
</g>
</g>
<!-- Node1&#45;&gt;Node2 -->
<g id="edge1" class="edge">
<title>Node1&#45;&gt;Node2</title>
<path fill="none" stroke="#63b8ff" d="M90.55,-220.59C78.6,-212.64 60.95,-200.89 46.85,-191.5"/>
<polygon fill="#63b8ff" stroke="#63b8ff" points="49.03,-188.08 38.76,-185.45 45.15,-193.91 49.03,-188.08"/>
</g>
<!-- Node3 -->
<g id="node3" class="node">
<title>Node3</title>
<g id="a_node3"><a xlink:href="syntax__tree_8h.html" target="_top" xlink:title=" ">
<polygon fill="white" stroke="#666666" points="141.75,-185 66.5,-185 66.5,-165.75 141.75,-165.75 141.75,-185"/>
<text text-anchor="middle" x="104.12" y="-171.5" font-family="Helvetica,sans-Serif" font-size="10.00">syntax_tree.h</text>
</a>
</g>
</g>
<!-- Node1&#45;&gt;Node3 -->
<g id="edge2" class="edge">
<title>Node1&#45;&gt;Node3</title>
<path fill="none" stroke="#63b8ff" d="M104.12,-220.83C104.12,-214.17 104.12,-204.74 104.12,-196.28"/>
<polygon fill="#63b8ff" stroke="#63b8ff" points="107.63,-196.36 104.12,-186.36 100.63,-196.36 107.63,-196.36"/>
</g>
<!-- Node4 -->
<g id="node4" class="node">
<title>Node4</title>
<g id="a_node4"><a xlink:href="symbol__table_8h.html" target="_top" xlink:title=" ">
<polygon fill="white" stroke="#666666" points="178.12,-129.75 96.12,-129.75 96.12,-110.5 178.12,-110.5 178.12,-129.75"/>
<text text-anchor="middle" x="137.12" y="-116.25" font-family="Helvetica,sans-Serif" font-size="10.00">symbol_table.h</text>
</a>
</g>
</g>
<!-- Node1&#45;&gt;Node4 -->
<g id="edge11" class="edge">
<title>Node1&#45;&gt;Node4</title>
<path fill="none" stroke="#63b8ff" d="M118.65,-220.67C129.87,-212.83 144.55,-200.3 151.12,-185 157.36,-170.49 152.69,-152.9 147.12,-139.85"/>
<polygon fill="#63b8ff" stroke="#63b8ff" points="149.94,-138.63 142.45,-131.13 143.62,-141.66 149.94,-138.63"/>
</g>
<!-- Node3&#45;&gt;Node4 -->
<g id="edge3" class="edge">
<title>Node3&#45;&gt;Node4</title>
<path fill="none" stroke="#63b8ff" d="M109.57,-165.58C113.99,-158.46 120.36,-148.18 125.86,-139.3"/>
<polygon fill="#63b8ff" stroke="#63b8ff" points="129.26,-141.45 131.56,-131.11 123.31,-137.77 129.26,-141.45"/>
</g>
<!-- Node5 -->
<g id="node5" class="node">
<title>Node5</title>
<g id="a_node5"><a xlink:title=" ">
<polygon fill="#e0e0e0" stroke="#999999" points="89.88,-19.25 42.38,-19.25 42.38,0 89.88,0 89.88,-19.25"/>
<text text-anchor="middle" x="66.12" y="-5.75" font-family="Helvetica,sans-Serif" font-size="10.00">stdlib.h</text>
</a>
</g>
</g>
<!-- Node4&#45;&gt;Node5 -->
<g id="edge4" class="edge">
<title>Node4&#45;&gt;Node5</title>
<path fill="none" stroke="#63b8ff" d="M102.43,-110.09C84.36,-103.42 63.84,-92.33 53.12,-74.5 44.84,-60.72 49.75,-42.57 55.77,-29.14"/>
<polygon fill="#63b8ff" stroke="#63b8ff" points="59.22,-31.06 60.59,-20.56 52.97,-27.91 59.22,-31.06"/>
</g>
<!-- Node6 -->
<g id="node6" class="node">
<title>Node6</title>
<g id="a_node6"><a xlink:href="types_8h.html" target="_top" xlink:title=" ">
<polygon fill="white" stroke="#666666" points="200.25,-74.5 152,-74.5 152,-55.25 200.25,-55.25 200.25,-74.5"/>
<text text-anchor="middle" x="176.12" y="-61" font-family="Helvetica,sans-Serif" font-size="10.00">types.h</text>
</a>
</g>
</g>
<!-- Node4&#45;&gt;Node6 -->
<g id="edge5" class="edge">
<title>Node4&#45;&gt;Node6</title>
<path fill="none" stroke="#63b8ff" d="M138.4,-110.33C142.25,-102.9 149.82,-92.04 157.3,-82.91"/>
<polygon fill="#63b8ff" stroke="#63b8ff" points="160.39,-85.69 164.34,-75.86 155.12,-81.09 160.39,-85.69"/>
</g>
<!-- Node8 -->
<g id="node8" class="node">
<title>Node8</title>
<g id="a_node8"><a xlink:href="hash__table_8h.html" target="_top" xlink:title=" ">
<polygon fill="white" stroke="#666666" points="133.88,-74.5 62.38,-74.5 62.38,-55.25 133.88,-55.25 133.88,-74.5"/>
<text text-anchor="middle" x="98.12" y="-61" font-family="Helvetica,sans-Serif" font-size="10.00">hash_table.h</text>
</a>
</g>
</g>
<!-- Node4&#45;&gt;Node8 -->
<g id="edge8" class="edge">
<title>Node4&#45;&gt;Node8</title>
<path fill="none" stroke="#63b8ff" d="M130.68,-110.33C125.35,-103.05 117.61,-92.48 111.02,-83.48"/>
<polygon fill="#63b8ff" stroke="#63b8ff" points="113.44,-81.86 104.7,-75.86 107.79,-85.99 113.44,-81.86"/>
</g>
<!-- Node6&#45;&gt;Node4 -->
<g id="edge7" class="edge">
<title>Node6&#45;&gt;Node4</title>
<path fill="none" stroke="#63b8ff" d="M174.75,-74.86C170.84,-82.35 163.24,-93.23 155.75,-102.32"/>
<polygon fill="#63b8ff" stroke="#63b8ff" points="152.69,-99.51 148.73,-109.33 157.96,-104.12 152.69,-99.51"/>
</g>
<!-- Node7 -->
<g id="node7" class="node">
<title>Node7</title>
<g id="a_node7"><a xlink:title=" ">
<polygon fill="#e0e0e0" stroke="#999999" points="178.25,-19.25 130,-19.25 130,0 178.25,0 178.25,-19.25"/>
<text text-anchor="middle" x="154.12" y="-5.75" font-family="Helvetica,sans-Serif" font-size="10.00">stdint.h</text>
</a>
</g>
</g>
<!-- Node6&#45;&gt;Node7 -->
<g id="edge6" class="edge">
<title>Node6&#45;&gt;Node7</title>
<path fill="none" stroke="#63b8ff" d="M172.49,-55.08C169.64,-48.19 165.57,-38.34 161.99,-29.66"/>
<polygon fill="#63b8ff" stroke="#63b8ff" points="164.89,-28.52 157.84,-20.61 158.42,-31.19 164.89,-28.52"/>
</g>
<!-- Node8&#45;&gt;Node5 -->
<g id="edge10" class="edge">
<title>Node8&#45;&gt;Node5</title>
<path fill="none" stroke="#63b8ff" d="M92.84,-55.08C88.56,-47.96 82.38,-37.68 77.05,-28.8"/>
<polygon fill="#63b8ff" stroke="#63b8ff" points="79.67,-27.38 71.52,-20.61 73.67,-30.98 79.67,-27.38"/>
</g>
<!-- Node8&#45;&gt;Node7 -->
<g id="edge9" class="edge">
<title>Node8&#45;&gt;Node7</title>
<path fill="none" stroke="#63b8ff" d="M107.62,-54.84C115.64,-47.22 127.31,-36.12 136.95,-26.95"/>
<polygon fill="#63b8ff" stroke="#63b8ff" points="138.93,-29.95 143.77,-20.52 134.11,-24.88 138.93,-29.95"/>
</g>
</g>
</svg>
