<?xml version="1.0" encoding="UTF-8" standalone="no"?>
<!DOCTYPE svg PUBLIC "-//W3C//DTD SVG 1.1//EN"
 "http://www.w3.org/Graphics/SVG/1.1/DTD/svg11.dtd">
<!-- Generated by graphviz version 8.0.5 (20230430.1635)
 -->
<!-- Title: syntax_tree.h Pages: 1 -->
<svg width="398pt" height="138pt"
 viewBox="0.00 0.00 398.12 137.75" xmlns="http://www.w3.org/2000/svg" xmlns:xlink="http://www.w3.org/1999/xlink">
<g id="graph0" class="graph" transform="scale(1 1) rotate(0) translate(4 133.75)">
<title>syntax_tree.h</title>
<!-- Node1 -->
<g id="node1" class="node">
<title>Node1</title>
<g id="a_node1"><a xlink:title=" ">
<polygon fill="#999999" stroke="#666666" points="239.12,-129.75 163.88,-129.75 163.88,-110.5 239.12,-110.5 239.12,-129.75"/>
<text text-anchor="middle" x="201.5" y="-116.25" font-family="Helvetica,sans-Serif" font-size="10.00">syntax_tree.h</text>
</a>
</g>
</g>
<!-- Node2 -->
<g id="node2" class="node">
<title>Node2</title>
<g id="a_node2"><a xlink:href="handlers_8c.html" target="_top" xlink:title=" ">
<polygon fill="white" stroke="#666666" points="61,-74.5 0,-74.5 0,-55.25 61,-55.25 61,-74.5"/>
<text text-anchor="middle" x="30.5" y="-61" font-family="Helvetica,sans-Serif" font-size="10.00">handlers.c</text>
</a>
</g>
</g>
<!-- Node1&#45;&gt;Node2 -->
<g id="edge1" class="edge">
<title>Node1&#45;&gt;Node2</title>
<path fill="none" stroke="#63b8ff" d="M162.38,-106.94C131.1,-97.2 87.95,-83.77 59.65,-74.95"/>
<polygon fill="#63b8ff" stroke="#63b8ff" points="160.9,-110.46 171.49,-110.09 162.99,-103.78 160.9,-110.46"/>
</g>
<!-- Node3 -->
<g id="node3" class="node">
<title>Node3</title>
<g id="a_node3"><a xlink:href="handlers_8h.html" target="_top" xlink:title=" ">
<polygon fill="white" stroke="#666666" points="140,-74.5 79,-74.5 79,-55.25 140,-55.25 140,-74.5"/>
<text text-anchor="middle" x="109.5" y="-61" font-family="Helvetica,sans-Serif" font-size="10.00">handlers.h</text>
</a>
</g>
</g>
<!-- Node1&#45;&gt;Node3 -->
<g id="edge2" class="edge">
<title>Node1&#45;&gt;Node3</title>
<path fill="none" stroke="#63b8ff" d="M176.39,-104.59C160.04,-95.13 139.22,-83.08 125.18,-74.95"/>
<polygon fill="#63b8ff" stroke="#63b8ff" points="174.49,-108.11 184.89,-110.09 177.99,-102.05 174.49,-108.11"/>
</g>
<!-- Node4 -->
<g id="node4" class="node">
<title>Node4</title>
<g id="a_node4"><a xlink:href="main_8c.html" target="_top" xlink:title=" ">
<polygon fill="white" stroke="#666666" points="263.12,-19.25 217.88,-19.25 217.88,0 263.12,0 263.12,-19.25"/>
<text text-anchor="middle" x="240.5" y="-5.75" font-family="Helvetica,sans-Serif" font-size="10.00">main.c</text>
</a>
</g>
</g>
<!-- Node1&#45;&gt;Node4 -->
<g id="edge3" class="edge">
<title>Node1&#45;&gt;Node4</title>
<path fill="none" stroke="#63b8ff" d="M191.24,-100.28C185.55,-87.17 180.84,-69.56 187.5,-55.25 194.86,-39.44 210.88,-27.22 223.4,-19.6"/>
<polygon fill="#63b8ff" stroke="#63b8ff" points="188.48,-101.61 196.02,-109.05 194.77,-98.53 188.48,-101.61"/>
</g>
<!-- Node5 -->
<g id="node5" class="node">
<title>Node5</title>
<g id="a_node5"><a xlink:href="syntax__tree_8c.html" target="_top" xlink:title=" ">
<polygon fill="white" stroke="#666666" points="272.12,-74.5 196.88,-74.5 196.88,-55.25 272.12,-55.25 272.12,-74.5"/>
<text text-anchor="middle" x="234.5" y="-61" font-family="Helvetica,sans-Serif" font-size="10.00">syntax_tree.c</text>
</a>
</g>
</g>
<!-- Node1&#45;&gt;Node5 -->
<g id="edge4" class="edge">
<title>Node1&#45;&gt;Node5</title>
<path fill="none" stroke="#63b8ff" d="M212.61,-101.19C218.1,-92.34 224.48,-82.04 228.93,-74.86"/>
<polygon fill="#63b8ff" stroke="#63b8ff" points="209.24,-98.99 206.95,-109.33 215.19,-102.68 209.24,-98.99"/>
</g>
<!-- Node6 -->
<g id="node6" class="node">
<title>Node6</title>
<g id="a_node6"><a xlink:href="typecheck_8c.html" target="_top" xlink:title=" ">
<polygon fill="white" stroke="#666666" points="390.12,-19.25 320.88,-19.25 320.88,0 390.12,0 390.12,-19.25"/>
<text text-anchor="middle" x="355.5" y="-5.75" font-family="Helvetica,sans-Serif" font-size="10.00">typecheck.c</text>
</a>
</g>
</g>
<!-- Node1&#45;&gt;Node6 -->
<g id="edge5" class="edge">
<title>Node1&#45;&gt;Node6</title>
<path fill="none" stroke="#63b8ff" d="M250.13,-112.73C294.11,-105.84 354.09,-93.26 368.5,-74.5 381.04,-58.16 369.18,-32.77 361.28,-19.46"/>
<polygon fill="#63b8ff" stroke="#63b8ff" points="249.7,-109.41 240.34,-114.36 250.75,-116.33 249.7,-109.41"/>
</g>
<!-- Node7 -->
<g id="node7" class="node">
<title>Node7</title>
<g id="a_node7"><a xlink:href="typecheck_8h.html" target="_top" xlink:title=" ">
<polygon fill="white" stroke="#666666" points="359.12,-74.5 289.88,-74.5 289.88,-55.25 359.12,-55.25 359.12,-74.5"/>
<text text-anchor="middle" x="324.5" y="-61" font-family="Helvetica,sans-Serif" font-size="10.00">typecheck.h</text>
</a>
</g>
</g>
<!-- Node1&#45;&gt;Node7 -->
<g id="edge6" class="edge">
<title>Node1&#45;&gt;Node7</title>
<path fill="none" stroke="#63b8ff" d="M232.32,-105.78C254.55,-96.16 283.97,-83.42 303.53,-74.95"/>
<polygon fill="#63b8ff" stroke="#63b8ff" points="231.15,-102.91 223.37,-110.09 233.93,-109.33 231.15,-102.91"/>
</g>
<!-- Node7&#45;&gt;Node4 -->
<g id="edge7" class="edge">
<title>Node7&#45;&gt;Node4</title>
<path fill="none" stroke="#63b8ff" d="M301.15,-49.07C286.29,-39.65 267.51,-27.75 254.82,-19.7"/>
<polygon fill="#63b8ff" stroke="#63b8ff" points="298.93,-52.44 309.25,-54.84 302.68,-46.53 298.93,-52.44"/>
</g>
<!-- Node7&#45;&gt;Node6 -->
<g id="edge8" class="edge">
<title>Node7&#45;&gt;Node6</title>
<path fill="none" stroke="#63b8ff" d="M335.11,-45.65C340.22,-36.86 346.13,-26.71 350.27,-19.61"/>
<polygon fill="#63b8ff" stroke="#63b8ff" points="331.63,-43.68 329.62,-54.08 337.67,-47.2 331.63,-43.68"/>
</g>
</g>
</svg>
