<?xml version="1.0" encoding="UTF-8" standalone="no"?>
<!DOCTYPE svg PUBLIC "-//W3C//DTD SVG 1.1//EN"
 "http://www.w3.org/Graphics/SVG/1.1/DTD/svg11.dtd">
<!-- Generated by graphviz version 8.0.5 (20230430.1635)
 -->
<!-- Title: typecheck.h Pages: 1 -->
<svg width="140pt" height="83pt"
 viewBox="0.00 0.00 140.25 82.50" xmlns="http://www.w3.org/2000/svg" xmlns:xlink="http://www.w3.org/1999/xlink">
<g id="graph0" class="graph" transform="scale(1 1) rotate(0) translate(4 78.5)">
<title>typecheck.h</title>
<!-- Node1 -->
<g id="node1" class="node">
<title>Node1</title>
<g id="a_node1"><a xlink:title=" ">
<polygon fill="#999999" stroke="#666666" points="94.25,-74.5 25,-74.5 25,-55.25 94.25,-55.25 94.25,-74.5"/>
<text text-anchor="middle" x="59.62" y="-61" font-family="Helvetica,sans-Serif" font-size="10.00">typecheck.h</text>
</a>
</g>
</g>
<!-- Node2 -->
<g id="node2" class="node">
<title>Node2</title>
<g id="a_node2"><a xlink:href="main_8c.html" target="_top" xlink:title=" ">
<polygon fill="white" stroke="#666666" points="45.25,-19.25 0,-19.25 0,0 45.25,0 45.25,-19.25"/>
<text text-anchor="middle" x="22.62" y="-5.75" font-family="Helvetica,sans-Serif" font-size="10.00">main.c</text>
</a>
</g>
</g>
<!-- Node1&#45;&gt;Node2 -->
<g id="edge1" class="edge">
<title>Node1&#45;&gt;Node2</title>
<path fill="none" stroke="#63b8ff" d="M47.36,-46.22C41.16,-37.31 33.91,-26.87 28.87,-19.61"/>
<polygon fill="#63b8ff" stroke="#63b8ff" points="44.93,-47.87 53.52,-54.08 50.68,-43.87 44.93,-47.87"/>
</g>
<!-- Node3 -->
<g id="node3" class="node">
<title>Node3</title>
<g id="a_node3"><a xlink:href="typecheck_8c.html" target="_top" xlink:title=" ">
<polygon fill="white" stroke="#666666" points="132.25,-19.25 63,-19.25 63,0 132.25,0 132.25,-19.25"/>
<text text-anchor="middle" x="97.62" y="-5.75" font-family="Helvetica,sans-Serif" font-size="10.00">typecheck.c</text>
</a>
</g>
</g>
<!-- Node1&#45;&gt;Node3 -->
<g id="edge2" class="edge">
<title>Node1&#45;&gt;Node3</title>
<path fill="none" stroke="#63b8ff" d="M72.22,-46.22C78.58,-37.31 86.03,-26.87 91.21,-19.61"/>
<polygon fill="#63b8ff" stroke="#63b8ff" points="68.86,-43.91 65.9,-54.08 74.56,-47.97 68.86,-43.91"/>
</g>
</g>
</svg>
