<?xml version="1.0" encoding="UTF-8" standalone="no"?>
<!DOCTYPE svg PUBLIC "-//W3C//DTD SVG 1.1//EN"
 "http://www.w3.org/Graphics/SVG/1.1/DTD/svg11.dtd">
<!-- Generated by graphviz version 8.0.5 (20230430.1635)
 -->
<!-- Title: types.h Pages: 1 -->
<svg width="137pt" height="193pt"
 viewBox="0.00 0.00 136.88 193.00" xmlns="http://www.w3.org/2000/svg" xmlns:xlink="http://www.w3.org/1999/xlink">
<g id="graph0" class="graph" transform="scale(1 1) rotate(0) translate(4 189)">
<title>types.h</title>
<!-- Node1 -->
<g id="node1" class="node">
<title>Node1</title>
<g id="a_node1"><a xlink:title=" ">
<polygon fill="#999999" stroke="#666666" points="86.25,-185 38,-185 38,-165.75 86.25,-165.75 86.25,-185"/>
<text text-anchor="middle" x="62.12" y="-171.5" font-family="Helvetica,sans-Serif" font-size="10.00">types.h</text>
</a>
</g>
</g>
<!-- Node2 -->
<g id="node2" class="node">
<title>Node2</title>
<g id="a_node2"><a xlink:title=" ">
<polygon fill="#e0e0e0" stroke="#999999" points="48.25,-19.25 0,-19.25 0,0 48.25,0 48.25,-19.25"/>
<text text-anchor="middle" x="24.12" y="-5.75" font-family="Helvetica,sans-Serif" font-size="10.00">stdint.h</text>
</a>
</g>
</g>
<!-- Node1&#45;&gt;Node2 -->
<g id="edge1" class="edge">
<title>Node1&#45;&gt;Node2</title>
<path fill="none" stroke="#63b8ff" d="M46.21,-165.33C34.35,-157.59 19.07,-145.25 12.12,-129.75 -2.62,-96.83 8.14,-53.81 16.6,-29.5"/>
<polygon fill="#63b8ff" stroke="#63b8ff" points="20.12,-31.07 20.34,-20.48 13.56,-28.63 20.12,-31.07"/>
</g>
<!-- Node3 -->
<g id="node3" class="node">
<title>Node3</title>
<g id="a_node3"><a xlink:href="symbol__table_8h.html" target="_top" xlink:title=" ">
<polygon fill="white" stroke="#666666" points="103.12,-129.75 21.12,-129.75 21.12,-110.5 103.12,-110.5 103.12,-129.75"/>
<text text-anchor="middle" x="62.12" y="-116.25" font-family="Helvetica,sans-Serif" font-size="10.00">symbol_table.h</text>
</a>
</g>
</g>
<!-- Node1&#45;&gt;Node3 -->
<g id="edge2" class="edge">
<title>Node1&#45;&gt;Node3</title>
<path fill="none" stroke="#63b8ff" d="M56.96,-165.58C55.52,-158.84 55.06,-149.27 55.59,-140.74"/>
<polygon fill="#63b8ff" stroke="#63b8ff" points="59.15,-141.47 56.92,-131.11 52.2,-140.6 59.15,-141.47"/>
</g>
<!-- Node3&#45;&gt;Node1 -->
<g id="edge4" class="edge">
<title>Node3&#45;&gt;Node1</title>
<path fill="none" stroke="#63b8ff" d="M67.33,-130.11C68.74,-136.83 69.18,-146.27 68.67,-154.71"/>
<polygon fill="#63b8ff" stroke="#63b8ff" points="65.07,-154.22 67.29,-164.58 72.02,-155.1 65.07,-154.22"/>
</g>
<!-- Node4 -->
<g id="node4" class="node">
<title>Node4</title>
<g id="a_node4"><a xlink:title=" ">
<polygon fill="#e0e0e0" stroke="#999999" points="128.88,-19.25 81.38,-19.25 81.38,0 128.88,0 128.88,-19.25"/>
<text text-anchor="middle" x="105.12" y="-5.75" font-family="Helvetica,sans-Serif" font-size="10.00">stdlib.h</text>
</a>
</g>
</g>
<!-- Node3&#45;&gt;Node4 -->
<g id="edge3" class="edge">
<title>Node3&#45;&gt;Node4</title>
<path fill="none" stroke="#63b8ff" d="M73.6,-110.26C83.15,-102.12 96.13,-89.13 102.12,-74.5 107.86,-60.5 108.34,-43.3 107.53,-30.28"/>
<polygon fill="#63b8ff" stroke="#63b8ff" points="110.96,-30.34 106.55,-20.71 103.99,-30.99 110.96,-30.34"/>
</g>
<!-- Node5 -->
<g id="node5" class="node">
<title>Node5</title>
<g id="a_node5"><a xlink:href="hash__table_8h.html" target="_top" xlink:title=" ">
<polygon fill="white" stroke="#666666" points="92.88,-74.5 21.38,-74.5 21.38,-55.25 92.88,-55.25 92.88,-74.5"/>
<text text-anchor="middle" x="57.12" y="-61" font-family="Helvetica,sans-Serif" font-size="10.00">hash_table.h</text>
</a>
</g>
</g>
<!-- Node3&#45;&gt;Node5 -->
<g id="edge5" class="edge">
<title>Node3&#45;&gt;Node5</title>
<path fill="none" stroke="#63b8ff" d="M61.3,-110.33C60.67,-103.67 59.79,-94.24 58.99,-85.78"/>
<polygon fill="#63b8ff" stroke="#63b8ff" points="62.39,-85.49 57.97,-75.86 55.42,-86.14 62.39,-85.49"/>
</g>
<!-- Node5&#45;&gt;Node2 -->
<g id="edge6" class="edge">
<title>Node5&#45;&gt;Node2</title>
<path fill="none" stroke="#63b8ff" d="M51.68,-55.08C47.26,-47.96 40.89,-37.68 35.39,-28.8"/>
<polygon fill="#63b8ff" stroke="#63b8ff" points="37.94,-27.27 29.69,-20.61 31.99,-30.95 37.94,-27.27"/>
</g>
<!-- Node5&#45;&gt;Node4 -->
<g id="edge7" class="edge">
<title>Node5&#45;&gt;Node4</title>
<path fill="none" stroke="#63b8ff" d="M65.05,-55.08C71.75,-47.65 81.54,-36.79 89.77,-27.66"/>
<polygon fill="#63b8ff" stroke="#63b8ff" points="91.93,-30.38 96.03,-20.61 86.73,-25.69 91.93,-30.38"/>
</g>
</g>
</svg>
