<?xml version="1.0" encoding="UTF-8" standalone="no"?>
<!DOCTYPE svg PUBLIC "-//W3C//DTD SVG 1.1//EN"
 "http://www.w3.org/Graphics/SVG/1.1/DTD/svg11.dtd">
<!-- Generated by graphviz version 8.0.5 (20230430.1635)
 -->
<!-- Title: typecheck.c Pages: 1 -->
<svg width="264pt" height="304pt"
 viewBox="0.00 0.00 264.38 303.50" xmlns="http://www.w3.org/2000/svg" xmlns:xlink="http://www.w3.org/1999/xlink">
<g id="graph0" class="graph" transform="scale(1 1) rotate(0) translate(4 299.5)">
<title>typecheck.c</title>
<!-- Node1 -->
<g id="node1" class="node">
<title>Node1</title>
<g id="a_node1"><a xlink:title=" ">
<polygon fill="#999999" stroke="#666666" points="150.88,-295.5 81.62,-295.5 81.62,-276.25 150.88,-276.25 150.88,-295.5"/>
<text text-anchor="middle" x="116.25" y="-282" font-family="Helvetica,sans-Serif" font-size="10.00">typecheck.c</text>
</a>
</g>
</g>
<!-- Node2 -->
<g id="node2" class="node">
<title>Node2</title>
<g id="a_node2"><a xlink:title=" ">
<polygon fill="#e0e0e0" stroke="#999999" points="50.5,-240.25 0,-240.25 0,-221 50.5,-221 50.5,-240.25"/>
<text text-anchor="middle" x="25.25" y="-226.75" font-family="Helvetica,sans-Serif" font-size="10.00">parser.h</text>
</a>
</g>
</g>
<!-- Node1&#45;&gt;Node2 -->
<g id="edge1" class="edge">
<title>Node1&#45;&gt;Node2</title>
<path fill="none" stroke="#63b8ff" d="M100.81,-275.84C86.96,-267.73 66.36,-255.68 50.17,-246.21"/>
<polygon fill="#63b8ff" stroke="#63b8ff" points="52.16,-242.73 41.76,-240.7 48.63,-248.77 52.16,-242.73"/>
</g>
<!-- Node3 -->
<g id="node3" class="node">
<title>Node3</title>
<g id="a_node3"><a xlink:href="symbol__table_8h.html" target="_top" xlink:title=" ">
<polygon fill="white" stroke="#666666" points="195.25,-129.75 113.25,-129.75 113.25,-110.5 195.25,-110.5 195.25,-129.75"/>
<text text-anchor="middle" x="154.25" y="-116.25" font-family="Helvetica,sans-Serif" font-size="10.00">symbol_table.h</text>
</a>
</g>
</g>
<!-- Node1&#45;&gt;Node3 -->
<g id="edge2" class="edge">
<title>Node1&#45;&gt;Node3</title>
<path fill="none" stroke="#63b8ff" d="M112.9,-276.05C105.73,-255.65 90.8,-204.05 107.25,-165.75 112.23,-154.15 121.87,-144.15 131.13,-136.58"/>
<polygon fill="#63b8ff" stroke="#63b8ff" points="132.85,-138.9 138.72,-130.08 128.63,-133.32 132.85,-138.9"/>
</g>
<!-- Node5 -->
<g id="node5" class="node">
<title>Node5</title>
<g id="a_node5"><a xlink:href="types_8h.html" target="_top" xlink:title=" ">
<polygon fill="white" stroke="#666666" points="256.38,-74.5 208.12,-74.5 208.12,-55.25 256.38,-55.25 256.38,-74.5"/>
<text text-anchor="middle" x="232.25" y="-61" font-family="Helvetica,sans-Serif" font-size="10.00">types.h</text>
</a>
</g>
</g>
<!-- Node1&#45;&gt;Node5 -->
<g id="edge14" class="edge">
<title>Node1&#45;&gt;Node5</title>
<path fill="none" stroke="#63b8ff" d="M151.22,-280.11C175.67,-274.79 206.79,-263.62 223.25,-240.25 256.35,-193.25 245.35,-120.19 237.42,-85.48"/>
<polygon fill="#63b8ff" stroke="#63b8ff" points="240.61,-84.78 234.82,-75.9 233.81,-86.45 240.61,-84.78"/>
</g>
<!-- Node8 -->
<g id="node8" class="node">
<title>Node8</title>
<g id="a_node8"><a xlink:href="syntax__tree_8h.html" target="_top" xlink:title=" ">
<polygon fill="white" stroke="#666666" points="191.88,-185 116.62,-185 116.62,-165.75 191.88,-165.75 191.88,-185"/>
<text text-anchor="middle" x="154.25" y="-171.5" font-family="Helvetica,sans-Serif" font-size="10.00">syntax_tree.h</text>
</a>
</g>
</g>
<!-- Node1&#45;&gt;Node8 -->
<g id="edge10" class="edge">
<title>Node1&#45;&gt;Node8</title>
<path fill="none" stroke="#63b8ff" d="M118.52,-276.09C121.81,-263.69 128.27,-240.37 135.25,-221 138.32,-212.49 142.15,-203.27 145.57,-195.43"/>
<polygon fill="#63b8ff" stroke="#63b8ff" points="149.13,-197.04 150.01,-186.48 142.74,-194.19 149.13,-197.04"/>
</g>
<!-- Node9 -->
<g id="node9" class="node">
<title>Node9</title>
<g id="a_node9"><a xlink:href="typecheck_8h.html" target="_top" xlink:title=" ">
<polygon fill="white" stroke="#666666" points="213.88,-240.25 144.62,-240.25 144.62,-221 213.88,-221 213.88,-240.25"/>
<text text-anchor="middle" x="179.25" y="-226.75" font-family="Helvetica,sans-Serif" font-size="10.00">typecheck.h</text>
</a>
</g>
</g>
<!-- Node1&#45;&gt;Node9 -->
<g id="edge12" class="edge">
<title>Node1&#45;&gt;Node9</title>
<path fill="none" stroke="#63b8ff" d="M126.94,-275.84C136.13,-268.07 149.61,-256.67 160.59,-247.4"/>
<polygon fill="#63b8ff" stroke="#63b8ff" points="162.34,-249.65 167.72,-240.52 157.82,-244.31 162.34,-249.65"/>
</g>
<!-- Node4 -->
<g id="node4" class="node">
<title>Node4</title>
<g id="a_node4"><a xlink:title=" ">
<polygon fill="#e0e0e0" stroke="#999999" points="146,-19.25 98.5,-19.25 98.5,0 146,0 146,-19.25"/>
<text text-anchor="middle" x="122.25" y="-5.75" font-family="Helvetica,sans-Serif" font-size="10.00">stdlib.h</text>
</a>
</g>
</g>
<!-- Node3&#45;&gt;Node4 -->
<g id="edge3" class="edge">
<title>Node3&#45;&gt;Node4</title>
<path fill="none" stroke="#63b8ff" d="M140.32,-110.03C129.57,-102.1 115.51,-89.53 109.25,-74.5 103.2,-59.97 107.56,-42.38 112.8,-29.34"/>
<polygon fill="#63b8ff" stroke="#63b8ff" points="116.27,-31.18 117.21,-20.62 109.89,-28.28 116.27,-31.18"/>
</g>
<!-- Node3&#45;&gt;Node5 -->
<g id="edge4" class="edge">
<title>Node3&#45;&gt;Node5</title>
<path fill="none" stroke="#63b8ff" d="M162.26,-110.09C172.36,-102.06 189.48,-90.16 204.37,-80.73"/>
<polygon fill="#63b8ff" stroke="#63b8ff" points="206.06,-83.18 212.73,-74.95 202.38,-77.23 206.06,-83.18"/>
</g>
<!-- Node7 -->
<g id="node7" class="node">
<title>Node7</title>
<g id="a_node7"><a xlink:href="hash__table_8h.html" target="_top" xlink:title=" ">
<polygon fill="white" stroke="#666666" points="190,-74.5 118.5,-74.5 118.5,-55.25 190,-55.25 190,-74.5"/>
<text text-anchor="middle" x="154.25" y="-61" font-family="Helvetica,sans-Serif" font-size="10.00">hash_table.h</text>
</a>
</g>
</g>
<!-- Node3&#45;&gt;Node7 -->
<g id="edge7" class="edge">
<title>Node3&#45;&gt;Node7</title>
<path fill="none" stroke="#63b8ff" d="M154.25,-110.33C154.25,-103.67 154.25,-94.24 154.25,-85.78"/>
<polygon fill="#63b8ff" stroke="#63b8ff" points="157.75,-85.86 154.25,-75.86 150.75,-85.86 157.75,-85.86"/>
</g>
<!-- Node5&#45;&gt;Node3 -->
<g id="edge6" class="edge">
<title>Node5&#45;&gt;Node3</title>
<path fill="none" stroke="#63b8ff" d="M224.4,-74.77C214.23,-82.89 196.75,-95.03 181.68,-104.56"/>
<polygon fill="#63b8ff" stroke="#63b8ff" points="180.38,-101.87 173.7,-110.09 184.05,-107.83 180.38,-101.87"/>
</g>
<!-- Node6 -->
<g id="node6" class="node">
<title>Node6</title>
<g id="a_node6"><a xlink:title=" ">
<polygon fill="#e0e0e0" stroke="#999999" points="234.38,-19.25 186.12,-19.25 186.12,0 234.38,0 234.38,-19.25"/>
<text text-anchor="middle" x="210.25" y="-5.75" font-family="Helvetica,sans-Serif" font-size="10.00">stdint.h</text>
</a>
</g>
</g>
<!-- Node5&#45;&gt;Node6 -->
<g id="edge5" class="edge">
<title>Node5&#45;&gt;Node6</title>
<path fill="none" stroke="#63b8ff" d="M228.62,-55.08C225.77,-48.19 221.7,-38.34 218.11,-29.66"/>
<polygon fill="#63b8ff" stroke="#63b8ff" points="221.02,-28.52 213.96,-20.61 214.55,-31.19 221.02,-28.52"/>
</g>
<!-- Node7&#45;&gt;Node4 -->
<g id="edge9" class="edge">
<title>Node7&#45;&gt;Node4</title>
<path fill="none" stroke="#63b8ff" d="M148.97,-55.08C144.68,-47.96 138.51,-37.68 133.17,-28.8"/>
<polygon fill="#63b8ff" stroke="#63b8ff" points="135.8,-27.38 127.65,-20.61 129.8,-30.98 135.8,-27.38"/>
</g>
<!-- Node7&#45;&gt;Node6 -->
<g id="edge8" class="edge">
<title>Node7&#45;&gt;Node6</title>
<path fill="none" stroke="#63b8ff" d="M163.75,-54.84C171.76,-47.22 183.43,-36.12 193.08,-26.95"/>
<polygon fill="#63b8ff" stroke="#63b8ff" points="195.06,-29.95 199.89,-20.52 190.23,-24.88 195.06,-29.95"/>
</g>
<!-- Node8&#45;&gt;Node3 -->
<g id="edge11" class="edge">
<title>Node8&#45;&gt;Node3</title>
<path fill="none" stroke="#63b8ff" d="M154.25,-165.58C154.25,-158.92 154.25,-149.49 154.25,-141.03"/>
<polygon fill="#63b8ff" stroke="#63b8ff" points="157.75,-141.11 154.25,-131.11 150.75,-141.11 157.75,-141.11"/>
</g>
<!-- Node9&#45;&gt;Node8 -->
<g id="edge13" class="edge">
<title>Node9&#45;&gt;Node8</title>
<path fill="none" stroke="#63b8ff" d="M175.12,-220.83C171.85,-213.86 167.16,-203.87 163.05,-195.12"/>
<polygon fill="#63b8ff" stroke="#63b8ff" points="165.89,-193.92 158.47,-186.36 159.55,-196.9 165.89,-193.92"/>
</g>
</g>
</svg>
