<?xml version="1.0" encoding="UTF-8" standalone="no"?>
<!DOCTYPE svg PUBLIC "-//W3C//DTD SVG 1.1//EN"
 "http://www.w3.org/Graphics/SVG/1.1/DTD/svg11.dtd">
<!-- Generated by graphviz version 8.0.5 (20230430.1635)
 -->
<!-- Title: types.c Pages: 1 -->
<svg width="160pt" height="248pt"
 viewBox="0.00 0.00 159.94 248.25" xmlns="http://www.w3.org/2000/svg" xmlns:xlink="http://www.w3.org/1999/xlink">
<g id="graph0" class="graph" transform="scale(1 1) rotate(0) translate(4 244.25)">
<title>types.c</title>
<!-- Node1 -->
<g id="node1" class="node">
<title>Node1</title>
<g id="a_node1"><a xlink:title=" ">
<polygon fill="#999999" stroke="#666666" points="64.31,-240.25 16.06,-240.25 16.06,-221 64.31,-221 64.31,-240.25"/>
<text text-anchor="middle" x="40.19" y="-226.75" font-family="Helvetica,sans-Serif" font-size="10.00">types.c</text>
</a>
</g>
</g>
<!-- Node2 -->
<g id="node2" class="node">
<title>Node2</title>
<g id="a_node2"><a xlink:title=" ">
<polygon fill="#e0e0e0" stroke="#999999" points="55.31,-19.25 7.06,-19.25 7.06,0 55.31,0 55.31,-19.25"/>
<text text-anchor="middle" x="31.19" y="-5.75" font-family="Helvetica,sans-Serif" font-size="10.00">stdint.h</text>
</a>
</g>
</g>
<!-- Node1&#45;&gt;Node2 -->
<g id="edge1" class="edge">
<title>Node1&#45;&gt;Node2</title>
<path fill="none" stroke="#63b8ff" d="M30.86,-220.73C22.83,-212.38 11.83,-199.09 7.19,-185 -10.78,-130.48 10.55,-62.08 23.17,-29.53"/>
<polygon fill="#63b8ff" stroke="#63b8ff" points="26.69,-31.17 27.2,-20.59 20.2,-28.54 26.69,-31.17"/>
</g>
<!-- Node3 -->
<g id="node3" class="node">
<title>Node3</title>
<g id="a_node3"><a xlink:title=" ">
<polygon fill="#e0e0e0" stroke="#999999" points="64.31,-185 16.06,-185 16.06,-165.75 64.31,-165.75 64.31,-185"/>
<text text-anchor="middle" x="40.19" y="-171.5" font-family="Helvetica,sans-Serif" font-size="10.00">string.h</text>
</a>
</g>
</g>
<!-- Node1&#45;&gt;Node3 -->
<g id="edge2" class="edge">
<title>Node1&#45;&gt;Node3</title>
<path fill="none" stroke="#63b8ff" d="M40.19,-220.83C40.19,-214.17 40.19,-204.74 40.19,-196.28"/>
<polygon fill="#63b8ff" stroke="#63b8ff" points="43.69,-196.36 40.19,-186.36 36.69,-196.36 43.69,-196.36"/>
</g>
<!-- Node4 -->
<g id="node4" class="node">
<title>Node4</title>
<g id="a_node4"><a xlink:href="types_8h.html" target="_top" xlink:title=" ">
<polygon fill="white" stroke="#666666" points="130.31,-185 82.06,-185 82.06,-165.75 130.31,-165.75 130.31,-185"/>
<text text-anchor="middle" x="106.19" y="-171.5" font-family="Helvetica,sans-Serif" font-size="10.00">types.h</text>
</a>
</g>
</g>
<!-- Node1&#45;&gt;Node4 -->
<g id="edge3" class="edge">
<title>Node1&#45;&gt;Node4</title>
<path fill="none" stroke="#63b8ff" d="M51.39,-220.59C61.02,-212.82 75.14,-201.42 86.64,-192.15"/>
<polygon fill="#63b8ff" stroke="#63b8ff" points="88.57,-194.28 94.16,-185.27 84.18,-188.83 88.57,-194.28"/>
</g>
<!-- Node4&#45;&gt;Node2 -->
<g id="edge4" class="edge">
<title>Node4&#45;&gt;Node2</title>
<path fill="none" stroke="#63b8ff" d="M92.07,-165.53C80.59,-157.58 64.93,-144.86 56.19,-129.75 37.99,-98.3 32.96,-55.35 31.62,-30.55"/>
<polygon fill="#63b8ff" stroke="#63b8ff" points="35.08,-30.53 31.21,-20.67 28.09,-30.79 35.08,-30.53"/>
</g>
<!-- Node5 -->
<g id="node5" class="node">
<title>Node5</title>
<g id="a_node5"><a xlink:href="symbol__table_8h.html" target="_top" xlink:title=" ">
<polygon fill="white" stroke="#666666" points="147.19,-129.75 65.19,-129.75 65.19,-110.5 147.19,-110.5 147.19,-129.75"/>
<text text-anchor="middle" x="106.19" y="-116.25" font-family="Helvetica,sans-Serif" font-size="10.00">symbol_table.h</text>
</a>
</g>
</g>
<!-- Node4&#45;&gt;Node5 -->
<g id="edge5" class="edge">
<title>Node4&#45;&gt;Node5</title>
<path fill="none" stroke="#63b8ff" d="M101.02,-165.58C99.58,-158.84 99.12,-149.27 99.65,-140.74"/>
<polygon fill="#63b8ff" stroke="#63b8ff" points="103.21,-141.47 100.98,-131.11 96.27,-140.6 103.21,-141.47"/>
</g>
<!-- Node5&#45;&gt;Node4 -->
<g id="edge7" class="edge">
<title>Node5&#45;&gt;Node4</title>
<path fill="none" stroke="#63b8ff" d="M111.4,-130.11C112.8,-136.83 113.25,-146.27 112.73,-154.71"/>
<polygon fill="#63b8ff" stroke="#63b8ff" points="109.14,-154.22 111.36,-164.58 116.08,-155.1 109.14,-154.22"/>
</g>
<!-- Node6 -->
<g id="node6" class="node">
<title>Node6</title>
<g id="a_node6"><a xlink:title=" ">
<polygon fill="#e0e0e0" stroke="#999999" points="151.94,-19.25 104.44,-19.25 104.44,0 151.94,0 151.94,-19.25"/>
<text text-anchor="middle" x="128.19" y="-5.75" font-family="Helvetica,sans-Serif" font-size="10.00">stdlib.h</text>
</a>
</g>
</g>
<!-- Node5&#45;&gt;Node6 -->
<g id="edge6" class="edge">
<title>Node5&#45;&gt;Node6</title>
<path fill="none" stroke="#63b8ff" d="M115.8,-110.29C124.06,-101.97 135.39,-88.71 140.19,-74.5 145.16,-59.78 141.31,-42.42 136.69,-29.52"/>
<polygon fill="#63b8ff" stroke="#63b8ff" points="139.64,-28.46 132.64,-20.5 133.15,-31.08 139.64,-28.46"/>
</g>
<!-- Node7 -->
<g id="node7" class="node">
<title>Node7</title>
<g id="a_node7"><a xlink:href="hash__table_8h.html" target="_top" xlink:title=" ">
<polygon fill="white" stroke="#666666" points="130.94,-74.5 59.44,-74.5 59.44,-55.25 130.94,-55.25 130.94,-74.5"/>
<text text-anchor="middle" x="95.19" y="-61" font-family="Helvetica,sans-Serif" font-size="10.00">hash_table.h</text>
</a>
</g>
</g>
<!-- Node5&#45;&gt;Node7 -->
<g id="edge8" class="edge">
<title>Node5&#45;&gt;Node7</title>
<path fill="none" stroke="#63b8ff" d="M104.37,-110.33C102.98,-103.59 101,-94.02 99.24,-85.49"/>
<polygon fill="#63b8ff" stroke="#63b8ff" points="102.5,-84.94 97.05,-75.86 95.64,-86.36 102.5,-84.94"/>
</g>
<!-- Node7&#45;&gt;Node2 -->
<g id="edge9" class="edge">
<title>Node7&#45;&gt;Node2</title>
<path fill="none" stroke="#63b8ff" d="M84.33,-54.84C74.99,-47.07 61.3,-35.67 50.15,-26.4"/>
<polygon fill="#63b8ff" stroke="#63b8ff" points="52.81,-23.23 42.89,-19.52 48.33,-28.61 52.81,-23.23"/>
</g>
<!-- Node7&#45;&gt;Node6 -->
<g id="edge10" class="edge">
<title>Node7&#45;&gt;Node6</title>
<path fill="none" stroke="#63b8ff" d="M100.64,-55.08C105.05,-47.96 111.42,-37.68 116.93,-28.8"/>
<polygon fill="#63b8ff" stroke="#63b8ff" points="120.33,-30.95 122.62,-20.61 114.38,-27.27 120.33,-30.95"/>
</g>
</g>
</svg>
