<?xml version="1.0" encoding="UTF-8" standalone="no"?>
<!DOCTYPE svg PUBLIC "-//W3C//DTD SVG 1.1//EN"
 "http://www.w3.org/Graphics/SVG/1.1/DTD/svg11.dtd">
<!-- Generated by graphviz version 8.0.5 (20230430.1635)
 -->
<!-- Title: types.h Pages: 1 -->
<svg width="549pt" height="248pt"
 viewBox="0.00 0.00 548.62 248.25" xmlns="http://www.w3.org/2000/svg" xmlns:xlink="http://www.w3.org/1999/xlink">
<g id="graph0" class="graph" transform="scale(1 1) rotate(0) translate(4 244.25)">
<title>types.h</title>
<!-- Node1 -->
<g id="node1" class="node">
<title>Node1</title>
<g id="a_node1"><a xlink:title=" ">
<polygon fill="#999999" stroke="#666666" points="410.62,-240.25 362.38,-240.25 362.38,-221 410.62,-221 410.62,-240.25"/>
<text text-anchor="middle" x="386.5" y="-226.75" font-family="Helvetica,sans-Serif" font-size="10.00">types.h</text>
</a>
</g>
</g>
<!-- Node2 -->
<g id="node2" class="node">
<title>Node2</title>
<g id="a_node2"><a xlink:href="handlers_8c.html" target="_top" xlink:title=" ">
<polygon fill="white" stroke="#666666" points="61,-74.5 0,-74.5 0,-55.25 61,-55.25 61,-74.5"/>
<text text-anchor="middle" x="30.5" y="-61" font-family="Helvetica,sans-Serif" font-size="10.00">handlers.c</text>
</a>
</g>
</g>
<!-- Node1&#45;&gt;Node2 -->
<g id="edge1" class="edge">
<title>Node1&#45;&gt;Node2</title>
<path fill="none" stroke="#63b8ff" d="M351.55,-226.92C288.41,-220.4 153.86,-198.82 67.5,-129.75 49.08,-115.02 38.03,-88.47 33.26,-74.7"/>
<polygon fill="#63b8ff" stroke="#63b8ff" points="350.84,-230.47 361.13,-227.94 351.51,-223.5 350.84,-230.47"/>
</g>
<!-- Node3 -->
<g id="node3" class="node">
<title>Node3</title>
<g id="a_node3"><a xlink:href="handlers_8h.html" target="_top" xlink:title=" ">
<polygon fill="white" stroke="#666666" points="398,-74.5 337,-74.5 337,-55.25 398,-55.25 398,-74.5"/>
<text text-anchor="middle" x="367.5" y="-61" font-family="Helvetica,sans-Serif" font-size="10.00">handlers.h</text>
</a>
</g>
</g>
<!-- Node1&#45;&gt;Node3 -->
<g id="edge2" class="edge">
<title>Node1&#45;&gt;Node3</title>
<path fill="none" stroke="#63b8ff" d="M384.22,-209.94C380.08,-174.25 371.48,-100.21 368.53,-74.72"/>
<polygon fill="#63b8ff" stroke="#63b8ff" points="380.85,-210.29 385.48,-219.82 387.8,-209.48 380.85,-210.29"/>
</g>
<!-- Node4 -->
<g id="node4" class="node">
<title>Node4</title>
<g id="a_node4"><a xlink:href="symbol__table_8h.html" target="_top" xlink:title=" ">
<polygon fill="white" stroke="#666666" points="356.5,-185 274.5,-185 274.5,-165.75 356.5,-165.75 356.5,-185"/>
<text text-anchor="middle" x="315.5" y="-171.5" font-family="Helvetica,sans-Serif" font-size="10.00">symbol_table.h</text>
</a>
</g>
</g>
<!-- Node1&#45;&gt;Node4 -->
<g id="edge3" class="edge">
<title>Node1&#45;&gt;Node4</title>
<path fill="none" stroke="#63b8ff" d="M360.2,-214.51C346.57,-205.07 331.11,-193.24 322.18,-185.27"/>
<polygon fill="#63b8ff" stroke="#63b8ff" points="357.99,-217.92 368.24,-220.59 361.89,-212.11 357.99,-217.92"/>
</g>
<!-- Node9 -->
<g id="node9" class="node">
<title>Node9</title>
<g id="a_node9"><a xlink:href="typecheck_8c.html" target="_top" xlink:title=" ">
<polygon fill="white" stroke="#666666" points="361.12,-19.25 291.88,-19.25 291.88,0 361.12,0 361.12,-19.25"/>
<text text-anchor="middle" x="326.5" y="-5.75" font-family="Helvetica,sans-Serif" font-size="10.00">typecheck.c</text>
</a>
</g>
</g>
<!-- Node1&#45;&gt;Node9 -->
<g id="edge19" class="edge">
<title>Node1&#45;&gt;Node9</title>
<path fill="none" stroke="#63b8ff" d="M398.07,-211.83C418.16,-178.45 454.44,-105.32 422.5,-55.25 409.16,-34.33 383.19,-23.07 361.62,-17.09"/>
<polygon fill="#63b8ff" stroke="#63b8ff" points="394.77,-209.5 392.45,-219.84 400.71,-213.21 394.77,-209.5"/>
</g>
<!-- Node11 -->
<g id="node11" class="node">
<title>Node11</title>
<g id="a_node11"><a xlink:href="types_8c.html" target="_top" xlink:title=" ">
<polygon fill="white" stroke="#666666" points="540.62,-185 492.38,-185 492.38,-165.75 540.62,-165.75 540.62,-185"/>
<text text-anchor="middle" x="516.5" y="-171.5" font-family="Helvetica,sans-Serif" font-size="10.00">types.c</text>
</a>
</g>
</g>
<!-- Node1&#45;&gt;Node11 -->
<g id="edge20" class="edge">
<title>Node1&#45;&gt;Node11</title>
<path fill="none" stroke="#63b8ff" d="M418.44,-216.54C442.01,-206.89 473.48,-194 494.34,-185.45"/>
<polygon fill="#63b8ff" stroke="#63b8ff" points="417.48,-213.56 409.55,-220.59 420.13,-220.04 417.48,-213.56"/>
</g>
<!-- Node4&#45;&gt;Node1 -->
<g id="edge18" class="edge">
<title>Node4&#45;&gt;Node1</title>
<path fill="none" stroke="#63b8ff" d="M341.82,-191.5C355.37,-200.89 370.72,-212.64 379.67,-220.59"/>
<polygon fill="#63b8ff" stroke="#63b8ff" points="344.08,-188.13 333.83,-185.45 340.17,-193.94 344.08,-188.13"/>
</g>
<!-- Node4&#45;&gt;Node2 -->
<g id="edge4" class="edge">
<title>Node4&#45;&gt;Node2</title>
<path fill="none" stroke="#63b8ff" d="M263.37,-171.81C217.42,-167.71 149.84,-157.12 97.5,-129.75 71.29,-116.05 48.15,-89.05 37.2,-74.94"/>
<polygon fill="#63b8ff" stroke="#63b8ff" points="263.02,-175.37 273.27,-172.69 263.59,-168.39 263.02,-175.37"/>
</g>
<!-- Node4&#45;&gt;Node3 -->
<g id="edge5" class="edge">
<title>Node4&#45;&gt;Node3</title>
<path fill="none" stroke="#63b8ff" d="M324.47,-155.65C335.77,-132.08 354.72,-92.54 363.19,-74.88"/>
<polygon fill="#63b8ff" stroke="#63b8ff" points="320.92,-153.97 319.76,-164.5 327.23,-156.99 320.92,-153.97"/>
</g>
<!-- Node5 -->
<g id="node5" class="node">
<title>Node5</title>
<g id="a_node5"><a xlink:href="symbol__table_8c.html" target="_top" xlink:title=" ">
<polygon fill="white" stroke="#666666" points="188.5,-129.75 106.5,-129.75 106.5,-110.5 188.5,-110.5 188.5,-129.75"/>
<text text-anchor="middle" x="147.5" y="-116.25" font-family="Helvetica,sans-Serif" font-size="10.00">symbol_table.c</text>
</a>
</g>
</g>
<!-- Node4&#45;&gt;Node5 -->
<g id="edge6" class="edge">
<title>Node4&#45;&gt;Node5</title>
<path fill="none" stroke="#63b8ff" d="M276.66,-162.07C245.97,-152.34 203.82,-138.98 176.14,-130.2"/>
<polygon fill="#63b8ff" stroke="#63b8ff" points="275.41,-165.66 286,-165.34 277.53,-158.98 275.41,-165.66"/>
</g>
<!-- Node6 -->
<g id="node6" class="node">
<title>Node6</title>
<g id="a_node6"><a xlink:href="syntax__tree_8c.html" target="_top" xlink:title=" ">
<polygon fill="white" stroke="#666666" points="154.12,-74.5 78.88,-74.5 78.88,-55.25 154.12,-55.25 154.12,-74.5"/>
<text text-anchor="middle" x="116.5" y="-61" font-family="Helvetica,sans-Serif" font-size="10.00">syntax_tree.c</text>
</a>
</g>
</g>
<!-- Node4&#45;&gt;Node6 -->
<g id="edge7" class="edge">
<title>Node4&#45;&gt;Node6</title>
<path fill="none" stroke="#63b8ff" d="M289.44,-160.16C247.91,-137.53 167.9,-93.9 133.22,-74.99"/>
<polygon fill="#63b8ff" stroke="#63b8ff" points="287.42,-163.6 297.88,-165.31 290.77,-157.45 287.42,-163.6"/>
</g>
<!-- Node7 -->
<g id="node7" class="node">
<title>Node7</title>
<g id="a_node7"><a xlink:href="syntax__tree_8h.html" target="_top" xlink:title=" ">
<polygon fill="white" stroke="#666666" points="320.12,-129.75 244.88,-129.75 244.88,-110.5 320.12,-110.5 320.12,-129.75"/>
<text text-anchor="middle" x="282.5" y="-116.25" font-family="Helvetica,sans-Serif" font-size="10.00">syntax_tree.h</text>
</a>
</g>
</g>
<!-- Node4&#45;&gt;Node7 -->
<g id="edge8" class="edge">
<title>Node4&#45;&gt;Node7</title>
<path fill="none" stroke="#63b8ff" d="M304.39,-156.44C298.9,-147.59 292.52,-137.29 288.07,-130.11"/>
<polygon fill="#63b8ff" stroke="#63b8ff" points="301.81,-157.93 310.05,-164.58 307.76,-154.24 301.81,-157.93"/>
</g>
<!-- Node4&#45;&gt;Node9 -->
<g id="edge17" class="edge">
<title>Node4&#45;&gt;Node9</title>
<path fill="none" stroke="#63b8ff" d="M336.78,-158.96C359.02,-141.41 392.58,-110.45 406.5,-74.5 409.59,-66.52 410.83,-62.63 406.5,-55.25 396.11,-37.56 375.88,-26.37 358.36,-19.61"/>
<polygon fill="#63b8ff" stroke="#63b8ff" points="335.14,-156.58 329.32,-165.43 339.39,-162.14 335.14,-156.58"/>
</g>
<!-- Node7&#45;&gt;Node2 -->
<g id="edge9" class="edge">
<title>Node7&#45;&gt;Node2</title>
<path fill="none" stroke="#63b8ff" d="M233.61,-109.04C190.42,-100.1 125.73,-86.61 69.5,-74.5 66.79,-73.92 63.97,-73.3 61.15,-72.69"/>
<polygon fill="#63b8ff" stroke="#63b8ff" points="232.88,-112.67 243.38,-111.27 234.3,-105.82 232.88,-112.67"/>
</g>
<!-- Node7&#45;&gt;Node3 -->
<g id="edge10" class="edge">
<title>Node7&#45;&gt;Node3</title>
<path fill="none" stroke="#63b8ff" d="M306.13,-104.32C321.17,-94.9 340.17,-83 353.01,-74.95"/>
<polygon fill="#63b8ff" stroke="#63b8ff" points="304.54,-101.82 297.92,-110.09 308.25,-107.75 304.54,-101.82"/>
</g>
<!-- Node7&#45;&gt;Node6 -->
<g id="edge12" class="edge">
<title>Node7&#45;&gt;Node6</title>
<path fill="none" stroke="#63b8ff" d="M244.13,-106.82C213.8,-97.09 172.15,-83.73 144.8,-74.95"/>
<polygon fill="#63b8ff" stroke="#63b8ff" points="242.75,-110.37 253.34,-110.09 244.89,-103.7 242.75,-110.37"/>
</g>
<!-- Node8 -->
<g id="node8" class="node">
<title>Node8</title>
<g id="a_node8"><a xlink:href="main_8c.html" target="_top" xlink:title=" ">
<polygon fill="white" stroke="#666666" points="249.12,-19.25 203.88,-19.25 203.88,0 249.12,0 249.12,-19.25"/>
<text text-anchor="middle" x="226.5" y="-5.75" font-family="Helvetica,sans-Serif" font-size="10.00">main.c</text>
</a>
</g>
</g>
<!-- Node7&#45;&gt;Node8 -->
<g id="edge11" class="edge">
<title>Node7&#45;&gt;Node8</title>
<path fill="none" stroke="#63b8ff" d="M239.73,-105.82C224.95,-98.94 209.99,-88.88 201.5,-74.5 190.72,-56.25 207.02,-32.5 217.95,-19.72"/>
<polygon fill="#63b8ff" stroke="#63b8ff" points="238.27,-109.42 248.84,-110.08 240.99,-102.97 238.27,-109.42"/>
</g>
<!-- Node7&#45;&gt;Node9 -->
<g id="edge13" class="edge">
<title>Node7&#45;&gt;Node9</title>
<path fill="none" stroke="#63b8ff" d="M290.22,-100.08C299.8,-76.47 315.72,-37.21 322.85,-19.63"/>
<polygon fill="#63b8ff" stroke="#63b8ff" points="286.62,-98.66 286.1,-109.25 293.1,-101.29 286.62,-98.66"/>
</g>
<!-- Node10 -->
<g id="node10" class="node">
<title>Node10</title>
<g id="a_node10"><a xlink:href="typecheck_8h.html" target="_top" xlink:title=" ">
<polygon fill="white" stroke="#666666" points="280.12,-74.5 210.88,-74.5 210.88,-55.25 280.12,-55.25 280.12,-74.5"/>
<text text-anchor="middle" x="245.5" y="-61" font-family="Helvetica,sans-Serif" font-size="10.00">typecheck.h</text>
</a>
</g>
</g>
<!-- Node7&#45;&gt;Node10 -->
<g id="edge14" class="edge">
<title>Node7&#45;&gt;Node10</title>
<path fill="none" stroke="#63b8ff" d="M270.24,-101.47C264.04,-92.56 256.79,-82.12 251.74,-74.86"/>
<polygon fill="#63b8ff" stroke="#63b8ff" points="267.81,-103.12 276.39,-109.33 273.56,-99.12 267.81,-103.12"/>
</g>
<!-- Node10&#45;&gt;Node8 -->
<g id="edge15" class="edge">
<title>Node10&#45;&gt;Node8</title>
<path fill="none" stroke="#63b8ff" d="M238.69,-44.79C235.63,-36.21 232.16,-26.48 229.71,-19.61"/>
<polygon fill="#63b8ff" stroke="#63b8ff" points="235.71,-45.84 242.36,-54.08 242.3,-43.49 235.71,-45.84"/>
</g>
<!-- Node10&#45;&gt;Node9 -->
<g id="edge16" class="edge">
<title>Node10&#45;&gt;Node9</title>
<path fill="none" stroke="#63b8ff" d="M268.43,-48.8C282.69,-39.42 300.57,-27.67 312.69,-19.7"/>
<polygon fill="#63b8ff" stroke="#63b8ff" points="266.67,-46.42 260.24,-54.84 270.52,-52.27 266.67,-46.42"/>
</g>
</g>
</svg>
